<?xml version="1.0" encoding="UTF-8"?>
<svg xmlns="http://www.w3.org/2000/svg" xmlns:xlink="http://www.w3.org/1999/xlink" version="1.2" >
<font id="BrandonGrotesque-Bold">
<font-face  font-family="Brandon Grotesque" units-per-em="1000" ascent="700" descent="-300" font-style="normal" font-weight="450" font-stretch="normal" cap-height="700" x-height="400" underline-position="-75" underline-thickness="50" />
<missing-glyph  horiz-adv-x="599" d="M50 30 L50 670 Q50 700 80 700 L519 700 Q549 700 549 670 L549 30 Q549 0 519 0 L80 0 Q50 0 50 30 Z M262 314 Q262 302 276 302 L312 302 Q327 302 327 315 L327 341 Q327 357 343.5 373 Q360 389 379.5 401.5 Q399 414 415.5 438 Q432 462 432 491 Q432 539 396.5 570.5 Q361 602 307 602 Q283 602 260.5 595.5 Q238 589 223.5 580.5 Q209 572 198 563 Q187 554 182 548 L177 541 Q169 529 177 523 L199 501 Q208 495 216 501 Q217 502 223.5 508 Q230 514 233 517 Q236 520 244.5 525.5 Q253 531 260 534 Q267 537 278 539.5 Q289 542 300 542 Q329 542 345 527 Q361 512 361 490 Q361 469 345.5 451 Q330 433 311.5 421 Q293 409 277.5 388.5 Q262 368 262 343 L262 314 Z M259.5 190 Q245 176 245 156 Q245 136 259.5 122 Q274 108 293 108 Q313 108 327.5 122 Q342 136 342 156 Q342 176 327.5 190 Q313 204 293 204 Q274 204 259.5 190 Z " />
<glyph glyph-name="space" unicode="&#x20;" horiz-adv-x="221" d="" />
<glyph glyph-name="exclam" unicode="&#x21;" horiz-adv-x="310" d="M139 272 Q132 272 126.5 277 Q121 282 120 288 L81 567 L81 681 Q81 688 86.5 694 Q92 700 100 700 L210 700 Q218 700 223.5 694 Q229 688 229 681 L229 569 L190 288 Q189 282 183.5 277 Q178 272 171 272 L139 272 Z M97 14 Q73 38 73 72 Q73 106 97 130.5 Q121 155 154 155 Q188 155 212.5 130.5 Q237 106 237 72 Q237 38 212.5 14 Q188 -10 154 -10 Q121 -10 97 14 Z " />
<glyph glyph-name="quotedbl" unicode="&#x22;" horiz-adv-x="343" d="M226 501 Q218 501 212.5 506.5 Q207 512 207 520 L207 681 Q207 688 212.5 694 Q218 700 226 700 L306 700 Q316 700 321.5 692.5 Q327 685 324 675 L283 516 Q279 501 265 501 L226 501 Z M55 501 Q48 501 42 506.5 Q36 512 36 520 L36 681 Q36 688 42 694 Q48 700 55 700 L135 700 Q145 700 150.5 692.5 Q156 685 153 675 L112 516 Q108 501 94 501 L55 501 Z " />
<glyph glyph-name="numbersign" unicode="&#x23;" horiz-adv-x="538" d="M104 22 L127 188 L56 188 Q48 188 42.5 193.5 Q37 199 37 207 L37 221 Q37 240 56 240 L134 240 L157 404 L85 404 Q78 404 72 410 Q66 416 66 423 L66 437 Q66 444 72 450 Q78 456 85 456 L164 456 L196 684 Q197 690 202 695 Q207 700 214 700 L228 700 Q236 700 241.5 693.5 Q247 687 246 678 L216 456 L374 456 L407 684 Q408 690 413.5 695 Q419 700 426 700 L438 700 Q447 700 452.5 693.5 Q458 687 457 678 L425 456 L489 456 Q497 456 502.5 450.5 Q508 445 508 437 L508 423 Q508 415 502.5 409.5 Q497 404 489 404 L418 404 L395 240 L460 240 Q468 240 473.5 234.5 Q479 229 479 221 L479 207 Q479 200 473.5 194 Q468 188 460 188 L387 188 L365 16 Q363 0 346 0 L333 0 Q324 0 318.5 6.5 Q313 13 314 22 L336 188 L177 188 L154 16 Q152 0 135 0 L123 0 Q113 0 107.5 6.5 Q102 13 104 22 Z M185 240 L344 240 L366 404 L208 404 L185 240 Z " />
<glyph glyph-name="dollar" unicode="&#x24;" horiz-adv-x="525" d="M46 68 Q31 83 41 98 Q44 103 49.5 112.5 Q55 122 59 129 Q63 136 68 144.5 Q73 153 78 158.5 Q83 164 88.5 168 Q94 172 100 171.5 Q106 171 112 167 Q174 120 236 105 Q236 138 236.5 201 Q237 264 237 297 Q195 314 165.5 329.5 Q136 345 104 371 Q72 397 55 434.5 Q38 472 38 519 Q38 595 89 648 Q140 701 238 709 L238 741 Q238 749 243.5 754.5 Q249 760 257 760 L270 760 Q278 760 283.5 754.5 Q289 749 289 741 L289 708 Q383 701 463 643 Q471 638 472.5 628 Q474 618 469 610 Q466 606 460 596 Q454 586 450 580.5 Q446 575 439.5 565.5 Q433 556 429 552 Q425 548 418 542.5 Q411 537 407 538.5 Q403 540 397 541 Q396 541 378.5 552 Q361 563 336 575.5 Q311 588 289 595 L289 415 Q329 398 359 381.5 Q389 365 423.5 338 Q458 311 476.5 272.5 Q495 234 495 188 Q495 104 440.5 50.5 Q386 -3 287 -9 L287 -113 Q287 -131 267 -131 Q236 -131 236 -113 L236 -9 Q118 0 46 68 Z M235 437 L235 598 Q199 594 179.5 575.5 Q160 557 160 533 Q160 477 235 437 Z M289 99 Q322 104 343 124.5 Q364 145 364 174 Q364 230 289 274 L289 99 Z " />
<glyph glyph-name="percent" unicode="&#x25;" horiz-adv-x="662" d="M252.5 479.5 Q213 440 157 440 Q101 440 61.5 479.5 Q22 519 22 575 Q22 631 61.5 670.5 Q101 710 157 710 Q213 710 252.5 670.5 Q292 631 292 575 Q292 519 252.5 479.5 Z M104 27 L447 690 Q452 700 464 700 L514 700 Q525 700 530.5 691.5 Q536 683 531 673 L186 10 Q181 0 169 0 L121 0 Q110 0 104.5 8.5 Q99 17 104 27 Z M122.5 540.5 Q137 526 157 526 Q177 526 191 540.5 Q205 555 205 575 Q205 594 190.5 608.5 Q176 623 157 623 Q137 623 122.5 609 Q108 595 108 575 Q108 555 122.5 540.5 Z M390.5 29.5 Q351 69 351 125 Q351 181 390.5 220.5 Q430 260 486 260 Q542 260 582 220.5 Q622 181 622 125 Q622 69 582 29.5 Q542 -10 486 -10 Q430 -10 390.5 29.5 Z M451.5 159 Q437 145 437 125 Q437 105 451.5 90.5 Q466 76 486 76 Q506 76 520.5 90.5 Q535 105 535 125 Q535 144 520.5 158.5 Q506 173 486 173 Q466 173 451.5 159 Z " />
<glyph glyph-name="ampersand" unicode="&#x26;" horiz-adv-x="689" d="M74 178 Q74 199 78 219 Q82 239 89.5 255.5 Q97 272 105.5 286 Q114 300 126 312.5 Q138 325 147 334 Q156 343 168.5 351.5 Q181 360 187.5 364.5 Q194 369 203 374 L212 379 L212 381 L191 404 Q122 477 123 548 Q123 611 173.5 660.5 Q224 710 312 710 Q395 710 448 663 Q501 616 501 547 Q501 518 491 491 Q481 464 463.5 443 Q446 422 431.5 408 Q417 394 399 380 Q381 366 379 365 L494 249 Q519 298 530 360 Q533 377 540 383.5 Q547 390 563 385 L618 369 Q642 363 635 330 Q616 251 573 171 L662 87 Q670 79 673 74.5 Q676 70 673.5 61 Q671 52 660 41 L619 -1 Q598 -21 575 2 L503 75 Q489 59 467.5 42.5 Q446 26 395 8 Q344 -10 285 -10 Q192 -10 133 45 Q74 100 74 178 Z M308 436 L316 440 Q323 445 327.5 447.5 Q332 450 341 456.5 Q350 463 356 468.5 Q362 474 369.5 482.5 Q377 491 382 499.5 Q387 508 390 519 Q393 530 393 541 Q393 571 369.5 593.5 Q346 616 308 616 Q274 616 254 596.5 Q234 577 234 548 Q234 532 242 515 Q250 498 258 489 Q266 480 286 458 L308 436 Z M193 191 Q193 150 223 123.5 Q253 97 298 97 Q375 97 427 156 L278 314 L270 310 Q262 305 257.5 302 Q253 299 244 292 Q235 285 229 278.5 Q223 272 215.5 262.5 Q208 253 203.5 242.5 Q199 232 196 218.5 Q193 205 193 191 Z " />
<glyph glyph-name="quotesingle" unicode="&#x27;" horiz-adv-x="172" d="M55 501 Q48 501 42 506.5 Q36 512 36 520 L36 681 Q36 688 42 694 Q48 700 55 700 L135 700 Q145 700 150.5 692.5 Q156 685 153 675 L112 516 Q108 501 94 501 L55 501 Z " />
<glyph glyph-name="parenleft" unicode="&#x28;" horiz-adv-x="342" d="M291 -79 Q243 -76 203 -57.5 Q163 -39 125 2 Q87 43 65 123 Q43 203 43 315 Q43 427 65 507 Q87 587 125 628.5 Q163 670 203 688 Q243 706 291 709 Q299 710 304.5 705.5 Q310 701 310 694 L313 628 Q314 622 310 616.5 Q306 611 301 610 Q230 591 198 517.5 Q166 444 166 315 Q166 186 197.5 113 Q229 40 301 21 Q315 18 313 2 L310 -63 Q308 -79 291 -79 Z " />
<glyph glyph-name="parenright" unicode="&#x29;" horiz-adv-x="343" d="M29 2 Q27 18 41 21 Q113 40 144.5 113 Q176 186 176 315 Q176 444 144 517.5 Q112 591 41 610 Q36 611 32 616.5 Q28 622 29 628 L32 694 Q32 701 37.5 705.5 Q43 710 51 709 Q99 706 139 688 Q179 670 217 628.5 Q255 587 277 507 Q299 427 299 315 Q299 203 277 123 Q255 43 217 2 Q179 -39 139 -57.5 Q99 -76 51 -79 Q34 -79 32 -63 L29 2 Z " />
<glyph glyph-name="asterisk" unicode="&#x2a;" horiz-adv-x="350" d="M159 370 Q152 370 146 376 Q140 382 140 389 L142 476 L70 426 Q64 422 56 423.5 Q48 425 44 431 L27 458 Q16 474 32 485 L115 535 L32 585 Q17 595 26 612 Q29 617 35 625.5 Q41 634 45 639 Q49 644 56.5 645.5 Q64 647 70 643 L142 593 L140 681 Q140 688 146 694 Q152 700 159 700 L191 700 Q198 700 204 694 Q210 688 210 681 L208 593 L280 644 Q296 654 306 639 L323 612 Q334 595 318 585 L235 535 L318 484 Q334 474 324 458 L305 431 Q296 415 280 425 L208 475 L210 389 Q210 382 204 376 Q198 370 191 370 L159 370 Z " />
<glyph glyph-name="plus" unicode="&#x2b;" horiz-adv-x="560" d="M233 150 L233 299 L83 299 Q76 299 70 304.5 Q64 310 64 318 L64 374 Q64 382 70 387.5 Q76 393 83 393 L233 393 L233 544 Q233 551 238.5 556.5 Q244 562 252 562 L308 562 Q316 562 321.5 556.5 Q327 551 327 544 L327 393 L478 393 Q485 393 490.5 387.5 Q496 382 496 374 L496 318 Q496 310 490.5 304.5 Q485 299 478 299 L327 299 L327 150 Q327 143 321.5 137.5 Q316 132 308 132 L252 132 Q244 132 238.5 137.5 Q233 143 233 150 Z " />
<glyph glyph-name="comma" unicode="&#x2c;" horiz-adv-x="259" d="M36 71 Q36 105 61 129.5 Q86 154 124 154 Q163 154 194 122 Q225 90 225 23 Q225 -58 188.5 -113 Q152 -168 111 -193 Q97 -202 86 -191 L71 -175 Q59 -161 75 -148 L80 -144 Q86 -139 90 -135 Q94 -131 100.5 -124.5 Q107 -118 112.5 -110.5 Q118 -103 125 -94 Q132 -85 137 -75 Q142 -65 146 -53.5 Q150 -42 152.5 -29 Q155 -16 155 -2 L153 -3 Q151 -4 147.5 -5 Q144 -6 139.5 -7 Q135 -8 129 -9 Q123 -10 117 -10 Q84 -10 60 14 Q36 38 36 71 Z " />
<glyph glyph-name="hyphen" unicode="&#x2d;" horiz-adv-x="369" d="M73 192 Q65 192 59.5 197 Q54 202 54 210 L54 277 Q54 296 73 296 L296 296 Q315 296 315 277 L315 210 Q315 202 309.5 197 Q304 192 296 192 L73 192 Z " />
<glyph glyph-name="period" unicode="&#x2e;" horiz-adv-x="235" d="M59 14 Q35 38 35 72 Q35 106 59 130.5 Q83 155 117 155 Q151 155 175.5 130.5 Q200 106 200 72 Q200 38 175.5 14 Q151 -10 117 -10 Q83 -10 59 14 Z " />
<glyph glyph-name="slash" unicode="&#x2f;" horiz-adv-x="353" d="M29 25 L225 687 Q229 700 243 700 L315 700 Q326 700 331 692.5 Q336 685 333 675 L138 13 Q134 0 120 0 L47 0 Q37 0 31.5 7.5 Q26 15 29 25 Z " />
<glyph glyph-name="zero" unicode="0" horiz-adv-x="626" d="M499 82.5 Q433 -10 313 -10 Q193 -10 127 82.5 Q61 175 61 340 Q61 505 127 597.5 Q193 690 313 690 Q433 690 499 597.5 Q565 505 565 340 Q565 175 499 82.5 Z M223.5 168 Q255 108 313 108 Q371 108 402.5 168 Q434 228 434 340 Q434 451 402.5 511.5 Q371 572 313 572 Q255 572 223.5 511.5 Q192 451 192 340 Q192 228 223.5 168 Z " />
<glyph glyph-name="one" unicode="1" horiz-adv-x="357" d="M141 19 L141 498 L53 479 Q46 477 40 481 Q34 485 33 492 L27 541 Q26 553 32 559 L176 680 L246 680 Q253 680 258.5 674.5 Q264 669 264 661 L264 19 Q264 11 258.5 5.5 Q253 0 246 0 L160 0 Q152 0 146.5 5.5 Q141 11 141 19 Z " />
<glyph glyph-name="two" unicode="2" horiz-adv-x="518" d="M31 19 L31 42 Q126 157 290 375 Q341 438 341 486 Q341 523 313.5 550 Q286 577 235 577 Q177 577 123 518 Q110 504 96 518 L48 566 Q35 579 47 592 Q50 596 56 602.5 Q62 609 82 626 Q102 643 123.5 656 Q145 669 178 679.5 Q211 690 244 690 Q347 690 407 633 Q467 576 467 491 Q467 460 457 431 Q447 402 435.5 383 Q424 364 400 329 Q370 287 228 107 L444 107 Q452 107 457.5 101.5 Q463 96 463 88 L463 19 Q463 12 457.5 6 Q452 0 444 0 L50 0 Q42 0 36.5 5.5 Q31 11 31 19 Z " />
<glyph glyph-name="three" unicode="3" horiz-adv-x="522" d="M36 79 Q26 91 37 104 L88 153 Q102 165 114 153 Q117 149 133 137 Q149 125 179.5 112 Q210 99 237 99 Q279 99 311 126 Q343 153 343 193 Q343 234 306.5 263 Q270 292 205 292 L149 292 Q130 292 130 312 L130 375 Q130 395 149 395 L205 395 Q264 395 296.5 421 Q329 447 329 487 Q329 527 300 553 Q271 579 232 579 Q172 579 131 531 Q119 517 104 530 L55 576 Q41 588 55 602 Q58 606 64 611.5 Q70 617 89 632.5 Q108 648 128.5 659.5 Q149 671 180.5 680.5 Q212 690 243 690 Q333 690 394.5 639.5 Q456 589 456 507 Q456 454 424 411.5 Q392 369 353 351 L353 348 Q399 329 436.5 287 Q474 245 474 185 Q474 100 410.5 45 Q347 -10 244 -10 Q111 -10 36 79 Z " />
<glyph glyph-name="four" unicode="4" horiz-adv-x="597" d="M35 145 Q27 145 21.5 150.5 Q16 156 16 164 L16 247 L376 685 Q382 691 391 691 L445 691 Q453 691 458.5 685.5 Q464 680 464 672 L464 246 L544 246 Q552 246 557.5 241 Q563 236 563 228 L563 166 Q563 158 557.5 152.5 Q552 147 544 147 L464 147 L465 19 Q465 12 459.5 6 Q454 0 446 0 L363 0 Q356 0 350 6 Q344 12 344 19 L344 145 L35 145 Z M148 249 L348 249 L348 489 L148 249 Z " />
<glyph glyph-name="five" unicode="5" horiz-adv-x="528" d="M57 73 Q40 92 55 107 L105 156 Q118 167 129 157 Q135 151 149 140.5 Q163 130 195.5 115.5 Q228 101 258 101 Q308 101 341 136 Q374 171 374 219 Q374 268 342 299.5 Q310 331 253 331 L99 331 Q85 331 76.5 342 Q68 353 68 366 L68 661 Q68 669 73.5 674.5 Q79 680 87 680 L403 680 Q411 680 416.5 674.5 Q422 669 422 661 L422 593 Q422 585 416.5 579.5 Q411 574 403 574 L181 574 L181 441 L267 441 Q372 441 434 379.5 Q496 318 496 219 Q496 124 426 57 Q356 -10 254 -10 Q183 -10 133 16 Q83 42 57 73 Z " />
<glyph glyph-name="six" unicode="6" horiz-adv-x="539" d="M43 266 Q43 349 70 420.5 Q97 492 135 537.5 Q173 583 222.5 620 Q272 657 307.5 674 Q343 691 376 702 Q398 708 404 688 L427 629 Q436 608 409 600 Q387 593 358 578.5 Q329 564 293.5 540.5 Q258 517 229 481.5 Q200 446 189 408 Q237 436 303 436 Q384 436 445.5 378 Q507 320 507 219 Q507 125 440 57.5 Q373 -10 281 -10 Q168 -10 105.5 69 Q43 148 43 266 Z M280 104 Q327 104 360.5 138.5 Q394 173 394 221 Q394 269 360.5 303.5 Q327 338 279 338 Q234 338 203.5 311 Q173 284 163 251 Q163 194 193.5 149 Q224 104 280 104 Z " />
<glyph glyph-name="seven" unicode="7" horiz-adv-x="484" d="M53 19 L53 30 L313 572 L49 572 Q42 572 36 578 Q30 584 30 591 L30 661 Q30 668 36 674 Q42 680 49 680 L465 680 Q472 680 478 674 Q484 668 484 661 L484 654 L186 27 Q174 0 152 0 L78 0 Q53 0 53 19 Z " />
<glyph glyph-name="eight" unicode="8" horiz-adv-x="567" d="M47 182 Q47 238 89.5 284.5 Q132 331 168 349 L168 352 Q129 373 97 413.5 Q65 454 65 507 Q65 589 127 639.5 Q189 690 282 690 Q377 690 440 639.5 Q503 589 503 507 Q503 456 471.5 416 Q440 376 400 353 L400 349 Q445 326 483 282.5 Q521 239 521 182 Q521 99 455.5 44.5 Q390 -10 282 -10 Q176 -10 111.5 44.5 Q47 99 47 182 Z M284 407 Q329 417 352 442.5 Q375 468 375 502 Q375 538 348 562.5 Q321 587 282 587 Q246 587 219.5 562.5 Q193 538 193 502 Q193 429 284 407 Z M180 184 Q180 144 211 118 Q242 92 284 92 Q327 92 357.5 118 Q388 144 388 184 Q388 219 360 249 Q332 279 284 290 Q236 279 208 249 Q180 219 180 184 Z " />
<glyph glyph-name="nine" unicode="9" horiz-adv-x="539" d="M112 57 Q103 78 130 86 Q152 93 181 107.5 Q210 122 245.5 145.5 Q281 169 310 204.5 Q339 240 350 278 Q302 250 236 250 Q155 250 93.5 308 Q32 366 32 467 Q32 561 99 628.5 Q166 696 258 696 Q371 696 433.5 617 Q496 538 496 420 Q496 337 469 265.5 Q442 194 404 148.5 Q366 103 316.5 66 Q267 29 231.5 12 Q196 -5 163 -16 Q141 -22 135 -2 L112 57 Z M260 348 Q305 348 335.5 375 Q366 402 376 435 Q376 492 345.5 537 Q315 582 259 582 Q212 582 178.5 547.5 Q145 513 145 465 Q145 417 178.5 382.5 Q212 348 260 348 Z " />
<glyph glyph-name="colon" unicode="&#x3a;" horiz-adv-x="268" d="M185 287 Q164 266 134 266 Q104 266 83 287 Q62 308 62 338 Q62 368 83 389 Q104 410 134 410 Q164 410 185 389 Q206 368 206 338 Q206 308 185 287 Z M83 11 Q62 32 62 62 Q62 92 83 113 Q104 134 134 134 Q164 134 185 113 Q206 92 206 62 Q206 32 185 11 Q164 -10 134 -10 Q104 -10 83 11 Z " />
<glyph glyph-name="semicolon" unicode="&#x3b;" horiz-adv-x="247" d="M170 287 Q149 266 119 266 Q89 266 68 287 Q47 308 47 338 Q47 368 68 389 Q89 410 119 410 Q149 410 170 389 Q191 368 191 338 Q191 308 170 287 Z M51 57 Q51 84 71.5 104 Q92 124 122 124 Q154 124 179.5 98 Q205 72 205 16 Q205 -85 115 -165 Q102 -174 92 -164 L78 -149 Q67 -138 80 -127 Q90 -120 103 -107.5 Q116 -95 132 -65.5 Q148 -36 148 -5 L144 -6 Q139 -8 132 -9 Q125 -10 118 -10 Q90 -10 70.5 9.5 Q51 29 51 57 Z " />
<glyph glyph-name="less" unicode="&#x3c;" horiz-adv-x="436" d="M29 210 Q19 216 19 227 L19 232 Q19 243 29 249 L376 461 Q386 467 395 462 Q404 457 404 445 L404 375 Q404 366 395 359 L180 231 L395 107 Q404 100 404 91 L404 21 Q404 9 395 4 Q386 -1 376 5 L29 210 Z " />
<glyph glyph-name="equal" unicode="&#x3d;" horiz-adv-x="488" d="M81 338 Q73 338 67.5 343.5 Q62 349 62 357 L62 413 Q62 421 67.5 426.5 Q73 432 81 432 L407 432 Q415 432 420.5 426.5 Q426 421 426 413 L426 357 Q426 349 420.5 343.5 Q415 338 407 338 L81 338 Z M81 127 Q73 127 67.5 132.5 Q62 138 62 146 L62 203 Q62 211 67.5 216.5 Q73 222 81 222 L407 222 Q415 222 420.5 216.5 Q426 211 426 203 L426 146 Q426 138 420.5 132.5 Q415 127 407 127 L81 127 Z " />
<glyph glyph-name="greater" unicode="&#x3e;" horiz-adv-x="436" d="M32 21 L32 91 Q32 102 41 107 L255 231 L41 359 Q32 364 32 375 L32 445 Q32 457 41 462 Q50 467 60 461 L407 249 Q417 243 417 232 L417 227 Q417 216 407 210 L60 5 Q50 -1 41 4 Q32 9 32 21 Z " />
<glyph glyph-name="question" unicode="&#x3f;" horiz-adv-x="449" d="M165 272 Q157 272 151.5 277.5 Q146 283 146 291 L146 333 Q146 365 167.5 394.5 Q189 424 215.5 443 Q242 462 263.5 486.5 Q285 511 285 534 Q285 562 263 581.5 Q241 601 205 601 Q178 601 157.5 592 Q137 583 117.5 566.5 Q98 550 97 549 Q85 541 75 550 L28 596 Q14 608 28 622 Q31 626 36 631.5 Q41 637 60 652.5 Q79 668 100 679.5 Q121 691 154.5 700.5 Q188 710 224 710 Q304 710 361 662 Q418 614 418 542 Q418 501 394 466 Q370 431 342 411 Q314 391 290 368 Q266 345 266 326 L266 293 Q266 272 246 272 L165 272 Z M147 14 Q123 38 123 72 Q123 106 147 130.5 Q171 155 205 155 Q239 155 263.5 130.5 Q288 106 288 72 Q288 38 263.5 14 Q239 -10 205 -10 Q171 -10 147 14 Z " />
<glyph glyph-name="at" unicode="&#x40;" horiz-adv-x="986" d="M32 223 Q32 437 164 573.5 Q296 710 508 710 Q711 710 827.5 592 Q944 474 944 288 Q944 235 931.5 185 Q919 135 894 90 Q869 45 823 17.5 Q777 -10 717 -10 Q628 -10 598 68 L590 68 Q573 34 539 12 Q505 -10 460 -10 Q382 -10 330.5 51.5 Q279 113 279 201 Q279 291 331 350.5 Q383 410 463 410 Q528 410 584 351 Q586 356 589 365.5 Q592 375 593.5 378.5 Q595 382 598 387.5 Q601 393 605 395 Q609 397 615.5 398.5 Q622 400 631 400 L648 400 Q656 400 661.5 394.5 Q667 389 667 381 L667 198 Q667 136 683.5 114 Q700 92 729 92 Q776 92 804 148 Q832 204 832 283 Q832 427 747 517 Q662 607 504 607 Q338 607 239.5 503.5 Q141 400 141 223 Q141 104 207 10 Q273 -84 382 -129 Q399 -137 393 -153 L369 -216 Q362 -233 347 -227 Q208 -176 120 -53.5 Q32 69 32 223 Z M383 208 Q380 161 406.5 129 Q433 97 470 97 Q551 97 555 206 L555 243 Q550 265 526 287 Q502 309 469 309 Q433 309 409 281 Q385 253 383 208 Z " />
<glyph glyph-name="A" unicode="A" horiz-adv-x="663" d="M17 0 Q6 0 0.5 8 Q-5 16 0 26 L311 699 Q316 710 328 710 L338 710 Q350 710 355 699 L663 26 Q668 16 662.5 8 Q657 0 646 0 L559 0 Q540 0 530 20 L481 128 L182 128 L133 20 Q125 0 104 0 L17 0 Z M231 239 L432 239 L332 459 L329 459 L231 239 Z " />
<glyph glyph-name="B" unicode="B" horiz-adv-x="617" d="M91 19 L91 681 Q91 689 96.5 694.5 Q102 700 110 700 L339 700 Q428 700 489 647 Q550 594 550 515 Q550 462 515.5 418.5 Q481 375 440 356 Q489 340 529.5 297.5 Q570 255 570 193 Q570 110 507 55 Q444 0 352 0 L110 0 Q102 0 96.5 5.5 Q91 11 91 19 Z M220 406 L327 406 Q365 406 389 432 Q413 458 413 496 Q413 534 389 557.5 Q365 581 327 581 L220 581 L220 406 Z M220 118 L341 118 Q379 118 405 144 Q431 170 431 209 Q431 246 400 271 Q369 296 329 296 L220 296 L220 118 Z " />
<glyph glyph-name="C" unicode="C" horiz-adv-x="684" d="M145.5 94.5 Q40 199 40 349 Q40 499 145.5 604.5 Q251 710 401 710 Q539 710 643 617 Q658 603 644 589 L583 526 Q571 513 558 526 Q491 585 404 585 Q309 585 245 516.5 Q181 448 181 352 Q181 257 245.5 189 Q310 121 405 121 Q488 121 558 178 Q571 190 583 178 L645 114 Q651 108 650.5 100.5 Q650 93 644 87 Q544 -10 401 -10 Q251 -10 145.5 94.5 Z " />
<glyph glyph-name="D" unicode="D" horiz-adv-x="738" d="M91 19 L91 681 Q91 689 96.5 694.5 Q102 700 109 700 L346 700 Q491 700 594 597.5 Q697 495 697 351 Q697 206 594 103 Q491 0 346 0 L109 0 Q102 0 96.5 5.5 Q91 11 91 19 Z M220 122 L334 122 Q431 122 495 187.5 Q559 253 559 351 Q559 449 495 514 Q431 579 334 579 L220 579 L220 122 Z " />
<glyph glyph-name="E" unicode="E" horiz-adv-x="588" d="M91 19 L91 681 Q91 689 96.5 694.5 Q102 700 110 700 L517 700 Q525 700 530.5 694.5 Q536 689 536 681 L536 599 Q536 591 530.5 585.5 Q525 580 517 580 L221 580 L221 416 L468 416 Q476 416 481.5 410 Q487 404 487 397 L487 314 Q487 306 481.5 300.5 Q476 295 468 295 L221 295 L221 120 L517 120 Q525 120 530.5 114.5 Q536 109 536 101 L536 19 Q536 11 530.5 5.5 Q525 0 517 0 L110 0 Q102 0 96.5 5.5 Q91 11 91 19 Z " />
<glyph glyph-name="F" unicode="F" horiz-adv-x="564" d="M91 19 L91 681 Q91 689 96.5 694.5 Q102 700 110 700 L517 700 Q525 700 530.5 694.5 Q536 689 536 681 L536 599 Q536 591 530.5 585.5 Q525 580 517 580 L221 580 L221 392 L468 392 Q476 392 481.5 386 Q487 380 487 373 L487 291 Q487 284 481.5 278 Q476 272 468 272 L221 272 L221 19 Q221 12 215.5 6 Q210 0 202 0 L110 0 Q102 0 96.5 5.5 Q91 11 91 19 Z " />
<glyph glyph-name="G" unicode="G" horiz-adv-x="712" d="M145.5 95 Q41 199 41 349 Q41 499 146 604.5 Q251 710 400 710 Q535 710 644 617 Q658 602 645 589 L583 524 Q571 512 557 524 Q491 582 406 582 Q313 582 247.5 513.5 Q182 445 182 350 Q182 256 247.5 188.5 Q313 121 407 121 Q464 121 526 146 L526 231 L446 231 Q438 231 432.5 236 Q427 241 427 249 L427 328 Q427 347 446 347 L638 347 Q645 347 650.5 341.5 Q656 336 656 328 L656 72 Q656 62 648 56 Q636 49 615 38 Q594 27 529 9 Q464 -9 400 -9 Q250 -9 145.5 95 Z " />
<glyph glyph-name="H" unicode="H" horiz-adv-x="769" d="M91 19 L91 681 Q91 688 96.5 694 Q102 700 110 700 L203 700 Q211 700 216.5 694.5 Q222 689 222 681 L222 416 L548 416 L548 681 Q548 689 553.5 694.5 Q559 700 567 700 L659 700 Q666 700 672 694 Q678 688 678 681 L678 19 Q678 12 672 6 Q666 0 659 0 L567 0 Q559 0 553.5 5.5 Q548 11 548 19 L548 295 L222 295 L222 19 Q222 11 216.5 5.5 Q211 0 203 0 L110 0 Q102 0 96.5 6 Q91 12 91 19 Z " />
<glyph glyph-name="I" unicode="I" horiz-adv-x="313" d="M91 19 L91 681 Q91 688 96.5 694 Q102 700 110 700 L203 700 Q210 700 216 694 Q222 688 222 681 L222 19 Q222 12 216 6 Q210 0 203 0 L110 0 Q102 0 96.5 6 Q91 12 91 19 Z " />
<glyph glyph-name="J" unicode="J" horiz-adv-x="418" d="M-16 63 Q-24 76 -14 88 L38 141 Q53 155 68 140 Q98 108 134 108 Q166 108 190 134.5 Q214 161 214 209 L214 681 Q214 689 219.5 694.5 Q225 700 233 700 L327 700 Q335 700 340.5 694.5 Q346 689 346 681 L346 209 Q346 108 286.5 49 Q227 -10 136 -10 Q43 -10 -16 63 Z " />
<glyph glyph-name="K" unicode="K" horiz-adv-x="655" d="M91 24 L91 676 Q91 686 98 693 Q105 700 115 700 L203 700 Q213 700 220 693 Q227 686 227 676 L227 406 L479 690 Q487 700 498 700 L598 700 Q612 700 618 687.5 Q624 675 614 664 L353 370 L633 35 Q641 25 635 12.5 Q629 0 615 0 L506 0 Q493 0 488 7 L227 329 L227 24 Q227 14 220 7 Q213 0 203 0 L115 0 Q105 0 98 7 Q91 14 91 24 Z " />
<glyph glyph-name="L" unicode="L" horiz-adv-x="505" d="M91 19 L91 681 Q91 689 96.5 694.5 Q102 700 110 700 L202 700 Q210 700 215.5 694 Q221 688 221 681 L221 120 L476 120 Q484 120 489.5 114.5 Q495 109 495 101 L495 19 Q495 11 489.5 5.5 Q484 0 476 0 L110 0 Q102 0 96.5 5.5 Q91 11 91 19 Z " />
<glyph glyph-name="M" unicode="M" horiz-adv-x="873" d="M45 23 L164 695 Q166 710 182 710 L198 710 Q210 710 215 700 L435 228 L438 228 L658 700 Q663 710 675 710 L691 710 Q707 710 709 695 L827 23 Q829 13 824 6.5 Q819 0 809 0 L718 0 Q703 0 699 15 L640 394 L637 394 L462 1 Q458 -10 445 -10 L427 -10 Q416 -10 410 1 L233 394 L230 394 L172 15 Q171 9 165.5 4.5 Q160 0 154 0 L64 0 Q42 0 45 23 Z " />
<glyph glyph-name="N" unicode="N" horiz-adv-x="773" d="M91 19 L91 692 Q91 699 96.5 704.5 Q102 710 110 710 L135 710 L551 268 L552 268 L552 681 Q552 689 557.5 694.5 Q563 700 571 700 L663 700 Q670 700 676 694 Q682 688 682 681 L682 8 Q682 1 676.5 -4.5 Q671 -10 663 -10 L639 -10 L221 449 L220 449 L220 19 Q220 11 214.5 5.5 Q209 0 201 0 L110 0 Q102 0 96.5 6 Q91 12 91 19 Z " />
<glyph glyph-name="O" unicode="O" horiz-adv-x="800" d="M145.5 94.5 Q41 199 41 349 Q41 499 145.5 604.5 Q250 710 400 710 Q550 710 655 604.5 Q760 499 760 349 Q760 199 655 94.5 Q550 -10 400 -10 Q250 -10 145.5 94.5 Z M238.5 512 Q171 444 171 349 Q171 254 238.5 187 Q306 120 400 120 Q495 120 562.5 187.5 Q630 255 630 349 Q630 444 562 512 Q494 580 400 580 Q306 580 238.5 512 Z " />
<glyph glyph-name="P" unicode="P" horiz-adv-x="592" d="M91 19 L91 681 Q91 689 96.5 694.5 Q102 700 110 700 L345 700 Q437 700 503 635 Q569 570 569 479 Q569 386 503.5 320 Q438 254 346 254 L221 254 L221 19 Q221 12 215.5 6 Q210 0 202 0 L110 0 Q102 0 96.5 5.5 Q91 11 91 19 Z M221 376 L337 376 Q379 376 409.5 406 Q440 436 440 480 Q440 521 409.5 549 Q379 577 337 577 L221 577 L221 376 Z " />
<glyph glyph-name="Q" unicode="Q" horiz-adv-x="801" d="M145.5 94.5 Q41 199 41 349 Q41 499 145.5 604.5 Q250 710 400 710 Q550 710 655 604.5 Q760 499 760 349 Q760 249 707 163.5 Q654 78 565 29 L690 -168 Q697 -178 691.5 -188 Q686 -198 674 -198 L568 -198 Q557 -198 552 -188 L445 -7 Q421 -10 400 -10 Q250 -10 145.5 94.5 Z M238.5 512 Q171 444 171 349 Q171 254 238.5 187 Q306 120 400 120 Q495 120 562.5 187.5 Q630 255 630 349 Q630 444 562 512 Q494 580 400 580 Q306 580 238.5 512 Z " />
<glyph glyph-name="R" unicode="R" horiz-adv-x="666" d="M91 19 L91 681 Q91 689 96.5 694.5 Q102 700 110 700 L396 700 Q486 700 550 637 Q614 574 614 485 Q614 417 573.5 363.5 Q533 310 466 283 L603 29 Q609 19 603.5 9.5 Q598 0 586 0 L481 0 Q470 0 465 9 L332 274 L221 274 L221 19 Q221 12 215.5 6 Q210 0 202 0 L110 0 Q102 0 96.5 5.5 Q91 11 91 19 Z M222 381 L385 381 Q425 381 454.5 411 Q484 441 484 483 Q484 523 454.5 551.5 Q425 580 385 580 L222 580 L222 381 Z " />
<glyph glyph-name="S" unicode="S" horiz-adv-x="542" d="M55 68 Q41 82 50 98 L86 160 Q92 170 103 171.5 Q114 173 120 167 L125 164 Q130 160 136.5 156 Q143 152 153 146 Q163 140 173 134.5 Q183 129 196 123.5 Q209 118 221 114 Q233 110 246 107.5 Q259 105 271 105 Q310 105 336 127.5 Q362 150 362 182 Q362 219 331 247.5 Q300 276 235 302 Q151 336 99 387 Q47 438 47 518 Q47 594 104.5 652 Q162 710 272 710 Q383 710 472 643 Q479 639 481 628 Q483 617 478 610 L440 553 Q424 529 405 541 Q317 596 266 596 Q226 596 202 574 Q178 552 178 526 Q178 491 206 465 Q234 439 296 414 Q339 397 370.5 379.5 Q402 362 435.5 335.5 Q469 309 487 271.5 Q505 234 505 188 Q505 107 441 48.5 Q377 -10 275 -10 Q218 -10 166.5 7 Q115 24 93 38.5 Q71 53 55 68 Z " />
<glyph glyph-name="T" unicode="T" horiz-adv-x="501" d="M185 19 L185 580 L32 580 Q24 580 18.5 585.5 Q13 591 13 599 L13 681 Q13 689 18.5 694.5 Q24 700 32 700 L469 700 Q477 700 482.5 694.5 Q488 689 488 681 L488 599 Q488 591 482.5 585.5 Q477 580 469 580 L316 580 L316 19 Q316 12 310 6 Q304 0 297 0 L204 0 Q196 0 190.5 6 Q185 12 185 19 Z " />
<glyph glyph-name="U" unicode="U" horiz-adv-x="719" d="M81 265 L81 681 Q81 688 86.5 694 Q92 700 100 700 L195 700 Q203 700 208.5 694.5 Q214 689 214 681 L214 272 Q214 207 254.5 163.5 Q295 120 359 120 Q423 120 464 163.5 Q505 207 505 271 L505 681 Q505 689 510.5 694.5 Q516 700 524 700 L619 700 Q626 700 632 694 Q638 688 638 681 L638 265 Q638 150 557.5 70 Q477 -10 359 -10 Q242 -10 161.5 70 Q81 150 81 265 Z " />
<glyph glyph-name="V" unicode="V" horiz-adv-x="663" d="M309 1 L0 674 Q-5 684 0.5 692 Q6 700 17 700 L119 700 Q132 700 136 689 L328 259 L335 259 L527 689 Q531 700 544 700 L646 700 Q657 700 662.5 692 Q668 684 663 674 L353 1 Q348 -10 336 -10 L326 -10 Q314 -10 309 1 Z " />
<glyph glyph-name="W" unicode="W" horiz-adv-x="899" d="M218 4 L29 676 Q26 686 31 693 Q36 700 47 700 L139 700 Q153 700 157 686 L261 287 L265 287 L424 699 Q428 710 441 710 L459 710 Q472 710 476 699 L636 287 L640 287 L742 686 Q746 700 760 700 L852 700 Q863 700 868 693 Q873 686 870 676 L681 4 Q678 -10 663 -10 L647 -10 Q634 -10 630 1 L451 454 L446 454 L269 1 Q264 -10 252 -10 L236 -10 Q222 -10 218 4 Z " />
<glyph glyph-name="X" unicode="X" horiz-adv-x="632" d="M30 28 L238 359 L38 672 Q32 682 37 691 Q42 700 55 700 L171 700 Q180 700 187 691 L315 479 L316 479 L446 691 Q450 700 462 700 L578 700 Q591 700 596 691 Q601 682 595 672 L394 359 L602 28 Q608 18 603 9 Q598 0 585 0 L477 0 Q464 0 460 9 L317 238 L314 238 L173 9 Q166 0 156 0 L48 0 Q35 0 29.5 9 Q24 18 30 28 Z " />
<glyph glyph-name="Y" unicode="Y" horiz-adv-x="583" d="M225 19 L225 337 L-3 671 Q-9 681 -4 690.5 Q1 700 13 700 L115 700 Q124 700 131 691 L291 461 L451 691 Q458 700 467 700 L570 700 Q582 700 587 690.5 Q592 681 586 671 L355 338 L355 19 Q355 12 349.5 6 Q344 0 336 0 L244 0 Q236 0 230.5 5.5 Q225 11 225 19 Z " />
<glyph glyph-name="Z" unicode="Z" horiz-adv-x="538" d="M25 19 L25 37 L323 575 L323 579 L73 579 Q66 579 60 584.5 Q54 590 54 598 L54 681 Q54 688 60 694 Q66 700 73 700 L491 700 Q498 700 504 694 Q510 688 510 681 L510 668 L216 123 L216 121 L471 121 Q479 121 484.5 115.5 Q490 110 490 102 L490 19 Q490 11 484.5 5.5 Q479 0 471 0 L44 0 Q36 0 30.5 6 Q25 12 25 19 Z " />
<glyph glyph-name="bracketleft" unicode="&#x5b;" horiz-adv-x="349" d="M181 -200 L311 -200 Q319 -200 324.5 -205.5 Q330 -211 330 -218 L330 -281 Q330 -288 324 -294 Q318 -300 311 -300 L85 -300 Q78 -300 72 -294 Q66 -288 66 -281 L66 681 Q66 688 72 694 Q78 700 85 700 L311 700 Q318 700 324 694 Q330 688 330 681 L330 619 Q330 611 324.5 605.5 Q319 600 311 600 L181 600 L181 -200 Z " />
<glyph glyph-name="backslash" unicode="&#x5c;" horiz-adv-x="357" d="M215 13 L20 675 Q17 685 22 692.5 Q27 700 38 700 L114 700 Q128 700 132 687 L328 25 Q331 15 325.5 7.5 Q320 0 310 0 L233 0 Q219 0 215 13 Z " />
<glyph glyph-name="bracketright" unicode="&#x5d;" horiz-adv-x="349" d="M38 -200 L168 -200 L168 600 L38 600 Q30 600 24.5 605.5 Q19 611 19 619 L19 681 Q19 688 24.5 694 Q30 700 38 700 L264 700 Q272 700 277.5 694 Q283 688 283 681 L283 -281 Q283 -288 277.5 -294 Q272 -300 264 -300 L38 -300 Q30 -300 24.5 -294 Q19 -288 19 -281 L19 -218 Q19 -211 24.5 -205.5 Q30 -200 38 -200 Z " />
<glyph glyph-name="asciicircum" unicode="&#x5e;" horiz-adv-x="524" d="M53 385 Q41 385 36 394 Q31 403 37 413 L245 704 Q251 714 262 714 L267 714 Q278 714 284 704 L487 413 Q493 403 488 394 Q483 385 471 385 L402 385 Q393 385 386 394 L263 563 L138 394 Q131 385 122 385 L53 385 Z " />
<glyph glyph-name="underscore" unicode="&#x5f;" horiz-adv-x="415" d="M19 -29 Q19 -10 38 -10 L377 -10 Q396 -10 396 -29 L396 -68 Q396 -76 390.5 -81 Q385 -86 377 -86 L38 -86 Q30 -86 24.5 -81 Q19 -76 19 -68 L19 -29 Z " />
<glyph glyph-name="grave" unicode="&#x60;" horiz-adv-x="302" d="M234 528 L59 605 Q43 613 53 632 L81 683 Q89 698 107 686 L271 589 Q283 583 277 570 L259 534 Q253 520 234 528 Z " />
<glyph glyph-name="a" unicode="a" horiz-adv-x="427" d="M31 127 Q31 182 74 217.5 Q117 253 191 253 Q209 253 227 250.5 Q245 248 254 245 L264 242 Q265 280 252.5 295.5 Q240 311 212 311 Q149 311 100 296 Q81 290 77 314 L68 366 Q64 385 82 391 Q88 393 106 397 Q124 401 156.5 405.5 Q189 410 218 410 Q307 410 339.5 367.5 Q372 325 372 236 L372 19 Q372 12 366 6 Q360 0 353 0 L317 0 Q306 0 300 14 L288 41 Q232 -10 166 -10 Q105 -10 68 27 Q31 64 31 127 Z M141 127 Q141 104 155.5 89.5 Q170 75 193 75 Q215 75 235.5 89 Q256 103 262 114 L262 169 Q235 181 206 181 Q177 181 159 166 Q141 151 141 127 Z " />
<glyph glyph-name="b" unicode="b" horiz-adv-x="500" d="M60 19 L60 681 Q60 688 66 694 Q72 700 79 700 L164 700 Q172 700 177.5 694 Q183 688 183 681 L183 392 Q229 410 272 410 Q360 410 415 349.5 Q470 289 470 200 Q470 113 414.5 51.5 Q359 -10 278 -10 Q241 -10 208 5 Q175 20 161 35 L147 50 L137 19 Q132 0 118 0 L79 0 Q72 0 66 6 Q60 12 60 19 Z M179 163 Q186 139 207 118.5 Q228 98 263 98 Q302 98 328 127.5 Q354 157 354 200 Q354 243 326.5 272.5 Q299 302 257 302 Q235 302 215.5 296 Q196 290 188 284 L179 279 L179 163 Z " />
<glyph glyph-name="c" unicode="c" horiz-adv-x="426" d="M29 200 Q29 287 93 348.5 Q157 410 242 410 Q331 410 390 339 Q402 323 385 311 L339 267 Q328 258 314 270 Q286 302 245 302 Q205 302 176 272 Q147 242 147 200 Q147 157 175 127.5 Q203 98 244 98 Q264 98 281 105 Q298 112 304 117 Q310 122 324 136 Q336 148 349 139 L392 102 Q409 88 399 74 Q345 -10 241 -10 Q155 -10 92 50.5 Q29 111 29 200 Z " />
<glyph glyph-name="d" unicode="d" horiz-adv-x="500" d="M30 200 Q30 289 85 349.5 Q140 410 228 410 Q271 410 317 392 L317 681 Q317 688 322.5 694 Q328 700 336 700 L421 700 Q428 700 434 694 Q440 688 440 681 L440 19 Q440 12 434 6 Q428 0 421 0 L382 0 Q368 0 363 19 L353 50 Q348 43 337.5 33 Q327 23 293 6.5 Q259 -10 222 -10 Q141 -10 85.5 51.5 Q30 113 30 200 Z M173.5 272.5 Q146 243 146 200 Q146 157 172 127.5 Q198 98 237 98 Q272 98 293 118.5 Q314 139 321 163 L321 279 Q293 302 243 302 Q201 302 173.5 272.5 Z " />
<glyph glyph-name="e" unicode="e" horiz-adv-x="445" d="M30 200 Q30 286 88 348 Q146 410 234 410 Q312 410 366.5 357 Q421 304 421 224 Q421 211 419 197 Q417 180 400 180 L144 180 Q146 146 172.5 119.5 Q199 93 240 93 Q283 93 318 118 Q335 128 344 118 L385 71 Q399 57 384 45 Q325 -10 235 -10 Q146 -10 88 51 Q30 112 30 200 Z M153 250 L304 250 Q302 278 280.5 298 Q259 318 231 318 Q201 318 179 298.5 Q157 279 153 250 Z " />
<glyph glyph-name="f" unicode="f" horiz-adv-x="344" d="M84 19 L84 295 L50 295 Q42 295 36.5 300.5 Q31 306 31 314 L31 381 Q31 400 50 400 L84 400 L84 508 Q84 604 136 657 Q188 710 271 710 Q307 710 340 697.5 Q373 685 389 671 Q401 661 393 648 L359 584 Q352 570 335 579 Q303 599 276 599 Q244 599 226.5 575.5 Q209 552 209 508 L209 400 L309 400 Q328 400 328 381 L328 314 Q328 306 322.5 300.5 Q317 295 309 295 L209 295 L209 19 Q209 12 203.5 6 Q198 0 190 0 L103 0 Q96 0 90 6 Q84 12 84 19 Z " />
<glyph glyph-name="g" unicode="g" horiz-adv-x="462" d="M18 30 Q18 52 25.5 71.5 Q33 91 44.5 103.5 Q56 116 67 125 Q78 134 86 138 L93 142 Q63 176 63 236 Q63 307 113.5 358.5 Q164 410 237 410 L419 410 Q438 410 438 391 L438 358 Q438 344 427 341 L371 323 Q375 320 382 312.5 Q389 305 400 279 Q411 253 411 221 Q411 159 363.5 111.5 Q316 64 240 64 Q218 64 191.5 68 Q165 72 160 72 Q148 72 135.5 61.5 Q123 51 123 34 Q123 19 134.5 9.5 Q146 0 163 0 L291 0 Q362 0 409 -38 Q456 -76 456 -140 Q456 -213 398.5 -261.5 Q341 -310 237 -310 Q135 -310 84 -269 Q33 -228 33 -173 Q33 -114 93 -78 L93 -75 Q80 -71 65.5 -62 Q51 -53 34.5 -28 Q18 -3 18 30 Z M190 282.5 Q170 262 170 231 Q170 200 190 179.5 Q210 159 240 159 Q271 159 290 179 Q309 199 309 231 Q309 263 290 283 Q271 303 240 303 Q210 303 190 282.5 Z M148 -151 Q148 -177 172 -193.5 Q196 -210 236 -210 Q278 -210 303.5 -192.5 Q329 -175 329 -147 Q329 -129 312 -113.5 Q295 -98 256 -98 Q219 -98 191 -102 Q148 -116 148 -151 Z " />
<glyph glyph-name="h" unicode="h" horiz-adv-x="520" d="M60 19 L60 681 Q60 688 66 694 Q72 700 79 700 L164 700 Q172 700 177.5 694 Q183 688 183 681 L183 377 Q227 410 289 410 Q378 410 423 352.5 Q468 295 468 211 L468 19 Q468 12 462 6 Q456 0 449 0 L368 0 Q360 0 354.5 5.5 Q349 11 349 19 L349 212 Q349 253 327.5 277.5 Q306 302 270 302 Q237 302 214 282.5 Q191 263 183 231 L183 19 Q183 0 162 0 L79 0 Q72 0 66 6 Q60 12 60 19 Z " />
<glyph glyph-name="i" unicode="i" horiz-adv-x="241" d="M119 542 Q91 542 71 562 Q51 582 51 611 Q51 640 71 660 Q91 680 119 680 Q148 680 168.5 660 Q189 640 189 611 Q189 582 168.5 562 Q148 542 119 542 Z M60 19 L60 381 Q60 389 65.5 394.5 Q71 400 79 400 L162 400 Q170 400 175.5 394.5 Q181 389 181 381 L181 19 Q181 12 175.5 6 Q170 0 162 0 L79 0 Q72 0 66 6 Q60 12 60 19 Z " />
<glyph glyph-name="j" unicode="j" horiz-adv-x="242" d="M120 542 Q92 542 72 562 Q52 582 52 611 Q52 640 72 660 Q92 680 120 680 Q149 680 169.5 660 Q190 640 190 611 Q190 582 169.5 562 Q149 542 120 542 Z M60 -108 L60 381 Q60 389 65.5 394.5 Q71 400 79 400 L163 400 Q171 400 176.5 394.5 Q182 389 182 381 L182 -108 Q182 -204 130 -257 Q78 -310 -4 -310 Q-40 -310 -73.5 -297.5 Q-107 -285 -122 -271 Q-134 -262 -126 -248 L-93 -184 Q-86 -170 -69 -179 Q-37 -199 -10 -199 Q24 -199 42 -175.5 Q60 -152 60 -108 Z " />
<glyph glyph-name="k" unicode="k" horiz-adv-x="489" d="M60 19 L60 681 Q60 688 66 694 Q72 700 79 700 L164 700 Q172 700 177.5 694 Q183 688 183 681 L183 248 L321 388 Q335 400 346 400 L437 400 Q449 400 453.5 389.5 Q458 379 450 371 L301 219 L479 28 Q487 20 482.5 10 Q478 0 466 0 L358 0 Q347 0 341 8 L183 188 L183 19 Q183 12 177.5 6 Q172 0 164 0 L79 0 Q72 0 66 6 Q60 12 60 19 Z " />
<glyph glyph-name="l" unicode="l" horiz-adv-x="242" d="M60 19 L60 681 Q60 688 66 694 Q72 700 79 700 L163 700 Q170 700 176 694 Q182 688 182 681 L182 19 Q182 12 176 6 Q170 0 163 0 L79 0 Q72 0 66 6 Q60 12 60 19 Z " />
<glyph glyph-name="m" unicode="m" horiz-adv-x="779" d="M60 19 L60 381 Q60 389 65.5 394.5 Q71 400 79 400 L116 400 Q129 400 133 389 L147 351 Q200 410 281 410 Q360 410 411 348 Q470 410 552 410 Q642 410 684.5 353.5 Q727 297 727 210 L727 19 Q727 11 721.5 5.5 Q716 0 708 0 L627 0 Q619 0 613.5 5.5 Q608 11 608 19 L608 217 Q608 257 589 279.5 Q570 302 533 302 Q507 302 486 291.5 Q465 281 457 270 L449 260 Q450 240 450 222 L450 19 Q450 12 444 6 Q438 0 431 0 L356 0 Q348 0 342.5 5.5 Q337 11 337 19 L337 217 Q337 302 263 302 Q202 302 179 239 L179 19 Q179 12 173.5 6 Q168 0 160 0 L79 0 Q72 0 66 6 Q60 12 60 19 Z " />
<glyph glyph-name="n" unicode="n" horiz-adv-x="519" d="M60 19 L60 381 Q60 389 65.5 394.5 Q71 400 79 400 L117 400 Q129 400 134 388 L148 351 Q203 410 289 410 Q379 410 423 353 Q467 296 467 211 L467 19 Q467 12 461.5 6 Q456 0 448 0 L366 0 Q358 0 352.5 5.5 Q347 11 347 19 L347 217 Q347 256 327.5 279 Q308 302 272 302 Q236 302 211.5 282.5 Q187 263 178 239 L178 19 Q178 0 153 0 L79 0 Q72 0 66 6 Q60 12 60 19 Z " />
<glyph glyph-name="o" unicode="o" horiz-adv-x="468" d="M29 201 Q29 286 89.5 348 Q150 410 234 410 Q318 410 378.5 348 Q439 286 439 201 Q439 115 379 52.5 Q319 -10 234 -10 Q149 -10 89 52.5 Q29 115 29 201 Z M138 201 Q138 158 166 128 Q194 98 234 98 Q274 98 302 128 Q330 158 330 201 Q330 243 302 272.5 Q274 302 234 302 Q194 302 166 272.5 Q138 243 138 201 Z " />
<glyph glyph-name="p" unicode="p" horiz-adv-x="500" d="M183 12 L183 -281 Q183 -300 159 -300 L79 -300 Q72 -300 66 -294 Q60 -288 60 -281 L60 381 Q60 389 65.5 394.5 Q71 400 79 400 L118 400 Q130 400 135 388 L148 355 Q162 374 197.5 392 Q233 410 277 410 Q359 410 414.5 348.5 Q470 287 470 200 Q470 112 412 51 Q354 -10 272 -10 Q222 -10 183 12 Z M178 121 Q206 98 256 98 Q298 98 325.5 127.5 Q353 157 353 200 Q353 243 327 272.5 Q301 302 260 302 Q226 302 205 282 Q184 262 178 241 L178 121 Z " />
<glyph glyph-name="q" unicode="q" horiz-adv-x="500" d="M30 200 Q30 287 85.5 348.5 Q141 410 223 410 Q267 410 302.5 392 Q338 374 352 355 L365 388 Q370 400 382 400 L421 400 Q429 400 434.5 394.5 Q440 389 440 381 L440 -281 Q440 -288 434 -294 Q428 -300 421 -300 L341 -300 Q317 -300 317 -281 L317 12 Q278 -10 228 -10 Q146 -10 88 51 Q30 112 30 200 Z M147 198 Q147 156 174.5 127 Q202 98 244 98 Q266 98 285.5 104 Q305 110 314 116 L322 121 L322 241 Q316 262 295 282 Q274 302 240 302 Q200 302 173.5 271.5 Q147 241 147 198 Z " />
<glyph glyph-name="r" unicode="r" horiz-adv-x="341" d="M60 19 L60 381 Q60 389 65.5 394.5 Q71 400 79 400 L117 400 Q130 400 135 387 L149 348 Q192 410 262 410 Q300 410 324 399 Q348 388 339 370 L302 305 Q293 289 279 296 Q261 302 250 302 Q223 302 204.5 288.5 Q186 275 179 261 L179 19 Q179 0 156 0 L79 0 Q72 0 66 6 Q60 12 60 19 Z " />
<glyph glyph-name="s" unicode="s" horiz-adv-x="364" d="M44 27 Q32 37 38 48 L65 102 Q71 118 88 109 Q133 85 179 85 Q213 85 213 110 Q213 124 199 134 Q185 144 146 160 Q33 204 33 292 Q33 342 70.5 376 Q108 410 180 410 Q256 410 303 379 Q320 368 312 352 L287 301 Q280 288 263 294 Q218 315 180 315 Q146 315 146 292 Q146 280 155.5 274 Q165 268 194 256 Q199 254 201 253 Q268 227 302 196.5 Q336 166 336 112 Q336 60 293 25 Q250 -10 177 -10 Q93 -10 44 27 Z " />
<glyph glyph-name="t" unicode="t" horiz-adv-x="345" d="M81 119 L81 295 L47 295 Q40 295 34.5 300.5 Q29 306 29 314 L29 381 Q29 389 34 394.5 Q39 400 47 400 L81 400 L81 511 Q81 518 86.5 524 Q92 530 100 530 L182 531 Q189 531 194.5 525.5 Q200 520 200 512 L200 400 L288 400 Q307 400 307 381 L307 314 Q307 306 301.5 300.5 Q296 295 288 295 L200 295 L200 135 Q200 103 231 103 Q250 103 280 114 Q297 120 302 103 L322 40 Q329 23 311 16 Q307 14 289.5 8 Q272 2 243 -4 Q214 -10 192 -10 Q81 -10 81 119 Z " />
<glyph glyph-name="u" unicode="u" horiz-adv-x="503" d="M53 187 L53 381 Q53 389 58.5 394.5 Q64 400 72 400 L154 400 Q162 400 167.5 394.5 Q173 389 173 381 L173 184 Q173 144 192.5 121 Q212 98 246 98 Q276 98 298.5 121 Q321 144 326 173 L326 381 Q326 392 331 396 Q336 400 348 400 L424 400 Q432 400 437.5 394.5 Q443 389 443 381 L443 19 Q443 12 437.5 6 Q432 0 424 0 L387 0 Q374 0 368 15 L356 48 Q355 47 348.5 41 Q342 35 338.5 32 Q335 29 326.5 23 Q318 17 311.5 13 Q305 9 294.5 4 Q284 -1 273.5 -3.5 Q263 -6 249.5 -8 Q236 -10 222 -10 Q135 -10 94 46 Q53 102 53 187 Z " />
<glyph glyph-name="v" unicode="v" horiz-adv-x="418" d="M189 0 L7 376 Q2 386 6 393 Q10 400 21 400 L108 400 Q120 400 126 389 L207 203 L209 203 L295 389 Q300 400 319 400 L397 400 Q408 400 412 393 Q416 386 411 376 L228 0 Q222 -10 211 -10 L206 -10 Q195 -10 189 0 Z " />
<glyph glyph-name="w" unicode="w" horiz-adv-x="616" d="M143 1 L18 377 Q14 387 19 393.5 Q24 400 35 400 L107 400 Q122 400 125 388 L185 209 L186 209 L288 401 Q292 410 304 410 L312 410 Q323 410 328 401 L429 209 L430 209 L490 388 Q494 400 513 400 L578 400 Q589 400 594.5 393.5 Q600 387 596 377 L471 1 Q467 -10 453 -10 L449 -10 Q438 -10 433 -1 L307 232 L306 232 L181 -1 Q176 -10 165 -10 L160 -10 Q147 -10 143 1 Z " />
<glyph glyph-name="x" unicode="x" horiz-adv-x="451" d="M36 0 Q24 0 20.5 9.5 Q17 19 24 29 L154 204 L28 371 Q20 381 25 390.5 Q30 400 43 400 L126 400 Q149 400 159 386 L224 292 L225 292 L291 386 Q301 400 321 400 L411 400 Q423 400 427 390.5 Q431 381 423 371 L297 205 L424 29 Q431 19 427.5 9.5 Q424 0 412 0 L324 0 Q307 0 296 16 L225 116 L224 116 L148 8 Q142 0 132 0 L36 0 Z " />
<glyph glyph-name="y" unicode="y" horiz-adv-x="463" d="M171 28 L8 374 Q3 384 8.5 392 Q14 400 25 400 L115 400 Q126 400 132 389 L233 163 L234 163 L334 389 Q340 400 358 400 L438 400 Q450 400 455 392 Q460 384 455 374 L149 -288 Q143 -300 132 -300 L46 -300 Q35 -300 29.5 -291.5 Q24 -283 29 -273 L171 28 Z " />
<glyph glyph-name="z" unicode="z" horiz-adv-x="366" d="M30 19 L30 29 L172 291 L172 293 L58 293 Q51 293 45.5 298.5 Q40 304 40 312 L40 381 Q40 389 45 394.5 Q50 400 58 400 L322 400 Q333 400 339 391.5 Q345 383 339 373 L194 109 L194 106 L302 106 Q321 106 321 87 L321 19 Q321 11 315.5 5.5 Q310 0 302 0 L49 0 Q42 0 36 6 Q30 12 30 19 Z " />
<glyph glyph-name="braceleft" unicode="&#x7b;" horiz-adv-x="394" d="M103 -36 L103 87 Q103 117 80.5 134 Q58 151 34 155 Q19 157 19 173 L19 222 Q19 235 33 239 Q41 241 55.5 248 Q70 255 86.5 272 Q103 289 103 308 L103 435 Q103 513 126.5 569.5 Q150 626 189.5 654.5 Q229 683 268 695.5 Q307 708 351 710 Q369 712 371 693 L375 630 Q376 614 361 612 Q300 599 263.5 554 Q227 509 227 435 L227 330 Q227 300 216 274.5 Q205 249 188.5 233.5 Q172 218 161.5 210.5 Q151 203 144 200 L144 196 Q227 162 227 71 L227 -36 Q227 -110 263.5 -154 Q300 -198 361 -211 Q376 -215 375 -230 L371 -293 Q370 -301 364 -306 Q358 -311 351 -310 Q307 -308 268 -295.5 Q229 -283 189.5 -254.5 Q150 -226 126.5 -170 Q103 -114 103 -36 Z " />
<glyph glyph-name="bar" unicode="&#x7c;" horiz-adv-x="180" d="M65 -282 L65 741 Q65 749 70.5 754.5 Q76 760 84 760 L97 760 Q105 760 110 754.5 Q115 749 115 741 L115 -282 Q115 -289 109.5 -294.5 Q104 -300 96 -300 L84 -300 Q76 -300 70.5 -294.5 Q65 -289 65 -282 Z " />
<glyph glyph-name="braceright" unicode="&#x7d;" horiz-adv-x="394" d="M167 -36 L167 71 Q167 162 250 196 L250 200 Q243 203 232.5 210.5 Q222 218 205.5 233.5 Q189 249 178 274.5 Q167 300 167 330 L167 435 Q167 509 130.5 554 Q94 599 33 612 Q18 614 19 630 L23 693 Q25 712 43 710 Q87 708 126 695.5 Q165 683 204.5 654.5 Q244 626 267.5 569.5 Q291 513 291 435 L291 308 Q291 281 317.5 262 Q344 243 361 239 Q375 235 375 222 L375 173 Q375 157 360 155 Q336 151 313.5 134 Q291 117 291 87 L291 -36 Q291 -114 267.5 -170 Q244 -226 204.5 -254.5 Q165 -283 126 -295.5 Q87 -308 43 -310 Q36 -311 30 -306 Q24 -301 23 -293 L19 -230 Q18 -215 33 -211 Q94 -198 130.5 -154 Q167 -110 167 -36 Z " />
<glyph glyph-name="asciitilde" unicode="&#x7e;" horiz-adv-x="533" d="M78 194 Q50 222 33 238 Q22 251 31 262 Q34 266 39.5 272.5 Q45 279 61.5 296.5 Q78 314 94.5 327 Q111 340 135 350.5 Q159 361 181 361 Q222 361 282 320 Q331 288 355 288 Q395 288 429 340 Q442 356 458 342 L500 298 Q513 287 502 274 Q499 270 494 263.5 Q489 257 472.5 240 Q456 223 439.5 210 Q423 197 400 186.5 Q377 176 355 176 Q347 176 340 176.5 Q333 177 325.5 179 Q318 181 312.5 182.5 Q307 184 299.5 187.5 Q292 191 288 192.5 Q284 194 276 199 Q268 204 266 205.5 Q264 207 255 212.5 Q246 218 245 219 Q204 247 180 247 Q139 247 106 196 Q101 188 92.5 187.5 Q84 187 78 194 Z " />
<glyph glyph-name="Euro" unicode="&#x20ac;" horiz-adv-x="718" d="M38 250 Q31 250 25.5 255.5 Q20 261 20 269 L20 282 Q20 290 25.5 295.5 Q31 301 38 301 L77 301 Q74 325 74 349 Q74 363 75 370 L38 370 Q31 370 25.5 375.5 Q20 381 20 389 L20 402 Q20 410 25.5 415.5 Q31 421 38 421 L81 421 Q106 546 205.5 628 Q305 710 435 710 Q573 710 677 617 Q692 603 678 589 L618 527 Q605 513 591 527 Q527 585 438 585 Q362 585 304 539 Q246 493 225 421 L458 421 Q466 421 471.5 415.5 Q477 410 477 402 L477 387 Q477 379 471.5 374 Q466 369 458 369 L215 369 L215 352 Q215 322 220 301 L418 301 Q426 301 431.5 295.5 Q437 290 437 282 L437 268 Q437 260 431.5 255 Q426 250 418 250 L238 250 Q265 192 318.5 156.5 Q372 121 439 121 Q522 121 592 178 Q605 190 617 178 L679 114 Q685 108 684.5 100.5 Q684 93 678 87 Q578 -10 435 -10 Q312 -10 216.5 63 Q121 136 88 250 L38 250 Z " />
<glyph glyph-name="quotesinglbase" unicode="&#x201a;" horiz-adv-x="228" d="M37 57 Q37 84 58 104 Q79 124 109 124 Q141 124 166.5 98 Q192 72 192 16 Q192 -85 102 -165 Q89 -175 79 -164 L64 -149 Q54 -138 67 -127 Q77 -120 89.5 -107.5 Q102 -95 118.5 -65.5 Q135 -36 135 -5 L133 -6 Q131 -6 128.5 -7 Q126 -8 122 -8.5 Q118 -9 113.5 -9.5 Q109 -10 104 -10 Q77 -10 57 9.5 Q37 29 37 57 Z " />
<glyph glyph-name="florin" unicode="&#x192;" horiz-adv-x="371" d="M111 -108 L111 296 L36 296 Q28 296 22.5 301.5 Q17 307 17 315 L17 381 Q17 400 36 400 L111 400 L111 509 Q111 604 164.5 657 Q218 710 304 710 Q368 710 415 671 Q427 659 419 647 L382 585 Q372 571 358 580 Q353 584 335.5 590.5 Q318 597 305 597 Q276 597 256 574.5 Q236 552 236 508 L236 400 L336 400 Q355 400 355 381 L355 315 Q355 307 349.5 301.5 Q344 296 336 296 L236 296 L236 -109 Q236 -204 182 -257 Q128 -310 42 -310 Q-22 -310 -69 -271 Q-80 -260 -73 -247 L-35 -185 Q-26 -171 -11 -180 Q-7 -184 10.5 -190.5 Q28 -197 41 -197 Q70 -197 90.5 -174.5 Q111 -152 111 -108 Z " />
<glyph glyph-name="quotedblbase" unicode="&#x201e;" horiz-adv-x="421" d="M230 57 Q230 84 251 104 Q272 124 302 124 Q334 124 359.5 98 Q385 72 385 16 Q385 -85 295 -165 Q282 -175 272 -164 L257 -149 Q247 -138 260 -127 Q270 -120 282.5 -107.5 Q295 -95 311.5 -65.5 Q328 -36 328 -5 L326 -6 Q324 -6 321.5 -7 Q319 -8 315 -8.5 Q311 -9 306.5 -9.5 Q302 -10 297 -10 Q270 -10 250 9.5 Q230 29 230 57 Z M38 57 Q38 84 58.5 104 Q79 124 109 124 Q141 124 166.5 98 Q192 72 192 16 Q192 -85 102 -165 Q89 -174 79 -164 L65 -149 Q54 -138 67 -127 Q77 -120 90 -107.5 Q103 -95 119 -65.5 Q135 -36 135 -5 L130 -6 Q126 -8 119 -9 Q112 -10 105 -10 Q77 -10 57.5 9.5 Q38 29 38 57 Z " />
<glyph glyph-name="ellipsis" unicode="&#x2026;" horiz-adv-x="668" d="M477 62 Q477 92 498 113 Q519 134 549 134 Q579 134 600 113 Q621 92 621 62 Q621 33 600 11.5 Q579 -10 549 -10 Q519 -10 498 11.5 Q477 33 477 62 Z M264 62 Q264 92 285 113 Q306 134 335 134 Q365 134 386.5 113 Q408 92 408 62 Q408 33 386.5 11.5 Q365 -10 335 -10 Q306 -10 285 11.5 Q264 33 264 62 Z M47 62 Q47 92 68 113 Q89 134 118 134 Q148 134 169.5 113 Q191 92 191 62 Q191 33 169.5 11.5 Q148 -10 118 -10 Q89 -10 68 11.5 Q47 33 47 62 Z " />
<glyph glyph-name="dagger" unicode="&#x2020;" horiz-adv-x="618" d="M69 286 Q62 286 56 292 Q50 298 50 305 L50 381 Q50 388 56 394 Q62 400 69 400 L239 400 L239 681 Q239 688 244.5 694 Q250 700 258 700 L354 700 Q362 700 367.5 694 Q373 688 373 681 L373 400 L550 400 Q557 400 562.5 394.5 Q568 389 568 381 L568 305 Q568 297 562.5 291.5 Q557 286 550 286 L366 286 L334 -284 Q334 -290 328 -295 Q322 -300 315 -300 L297 -300 Q290 -300 284 -295 Q278 -290 278 -284 L246 286 L69 286 Z " />
<glyph glyph-name="daggerdbl" unicode="&#x2021;" horiz-adv-x="618" d="M80 20 L80 95 Q80 102 86 108 Q92 114 99 114 L254 114 L239 398 L239 399 L69 399 Q62 399 56 404.5 Q50 410 50 418 L50 494 Q50 502 56 507.5 Q62 513 69 513 L239 513 L239 681 Q239 688 244.5 694 Q250 700 258 700 L354 700 Q362 700 367.5 694 Q373 688 373 681 L373 513 L550 513 Q557 513 562.5 507.5 Q568 502 568 494 L568 418 Q568 410 562.5 404.5 Q557 399 550 399 L373 399 L358 114 L520 114 Q527 114 532.5 108.5 Q538 103 538 95 L538 20 Q538 12 532.5 6.5 Q527 1 520 1 L350 1 L334 -284 Q334 -290 328 -295 Q322 -300 315 -300 L297 -300 Q290 -300 284 -295 Q278 -290 278 -284 L261 1 L99 1 Q92 1 86 6.5 Q80 12 80 20 Z " />
<glyph glyph-name="circumflex" unicode="&#x2c6;" horiz-adv-x="373" d="M63 529 L37 566 Q30 576 43 585 L173 686 Q183 694 194 686 L324 585 Q337 576 330 566 L304 529 Q295 518 281 526 L184 587 L86 526 Q72 518 63 529 Z " />
<glyph glyph-name="perthousand" unicode="&#x2030;" horiz-adv-x="986" d="M273.5 479.5 Q234 440 178 440 Q122 440 82.5 479.5 Q43 519 43 575 Q43 631 82.5 670.5 Q122 710 178 710 Q234 710 273.5 670.5 Q313 631 313 575 Q313 519 273.5 479.5 Z M125 27 L468 690 Q473 700 485 700 L535 700 Q546 700 551.5 691.5 Q557 683 552 673 L207 10 Q202 0 190 0 L142 0 Q131 0 125.5 8.5 Q120 17 125 27 Z M143.5 540.5 Q158 526 178 526 Q198 526 212 540.5 Q226 555 226 575 Q226 594 212 608.5 Q198 623 178 623 Q158 623 143.5 609 Q129 595 129 575 Q129 555 143.5 540.5 Z M714.5 29.5 Q675 69 675 125 Q675 181 714.5 220.5 Q754 260 810 260 Q866 260 906 220.5 Q946 181 946 125 Q946 69 906 29.5 Q866 -10 810 -10 Q754 -10 714.5 29.5 Z M411.5 29.5 Q372 69 372 125 Q372 181 411.5 220.5 Q451 260 507 260 Q563 260 603 220.5 Q643 181 643 125 Q643 69 603 29.5 Q563 -10 507 -10 Q451 -10 411.5 29.5 Z M762 125 Q762 105 776 90.5 Q790 76 810 76 Q830 76 844.5 90.5 Q859 105 859 125 Q859 145 844.5 159 Q830 173 810 173 Q790 173 776 158.5 Q762 144 762 125 Z M472.5 159 Q458 145 458 125 Q458 105 472.5 90.5 Q487 76 507 76 Q527 76 541.5 90.5 Q556 105 556 125 Q556 144 541.5 158.5 Q527 173 507 173 Q487 173 472.5 159 Z " />
<glyph glyph-name="Scaron" unicode="&#x160;" horiz-adv-x="542" d="M55 68 Q41 82 50 98 L86 160 Q92 170 103 171.5 Q114 173 120 167 L125 164 Q130 160 136.5 156 Q143 152 153 146 Q163 140 173 134.5 Q183 129 196 123.5 Q209 118 221 114 Q233 110 246 107.5 Q259 105 271 105 Q310 105 336 127.5 Q362 150 362 182 Q362 219 331 247.5 Q300 276 235 302 Q151 336 99 387 Q47 438 47 518 Q47 594 104.5 652 Q162 710 272 710 Q383 710 472 643 Q479 639 481 628 Q483 617 478 610 L440 553 Q424 529 405 541 Q317 596 266 596 Q226 596 202 574 Q178 552 178 526 Q178 491 206 465 Q234 439 296 414 Q339 397 370.5 379.5 Q402 362 435.5 335.5 Q469 309 487 271.5 Q505 234 505 188 Q505 107 441 48.5 Q377 -10 275 -10 Q218 -10 166.5 7 Q115 24 93 38.5 Q71 53 55 68 Z M261 764 L131 865 Q118 874 125 884 L151 921 Q160 932 174 924 L271 863 L369 924 Q383 932 392 921 L418 884 Q425 874 412 865 L282 764 Q272 756 261 764 Z " />
<glyph glyph-name="guilsinglleft" unicode="&#x2039;" horiz-adv-x="271" d="M130 39 L26 194 Q18 205 26 218 L135 366 Q142 378 153 378 L210 378 Q223 378 227 368.5 Q231 359 225 347 L157 208 L222 61 Q228 49 223.5 40 Q219 31 207 31 L145 31 Q136 31 130 39 Z " />
<glyph glyph-name="OE" unicode="&#x152;" horiz-adv-x="975" d="M145.5 94.5 Q41 199 41 349 Q41 499 145.5 604.5 Q250 710 400 710 Q424 710 448 707.5 Q472 705 484 702 L497 700 L904 700 Q912 700 917.5 694.5 Q923 689 923 681 L923 599 Q923 591 917.5 585.5 Q912 580 904 580 L608 580 L608 416 L855 416 Q862 416 868 410 Q874 404 874 397 L874 314 Q874 306 868.5 300.5 Q863 295 855 295 L608 295 L608 120 L904 120 Q912 120 917.5 114.5 Q923 109 923 101 L923 19 Q923 11 917.5 5.5 Q912 0 904 0 L497 0 Q441 -10 400 -10 Q250 -10 145.5 94.5 Z M238.5 513 Q171 444 171 349 Q171 254 238.5 186 Q306 118 400 118 Q446 118 478 131 L478 568 Q439 582 400 582 Q306 582 238.5 513 Z " />
<glyph glyph-name="Zcaron" unicode="&#x17d;" horiz-adv-x="538" d="M25 19 L25 37 L323 575 L323 579 L73 579 Q66 579 60 584.5 Q54 590 54 598 L54 681 Q54 688 60 694 Q66 700 73 700 L491 700 Q498 700 504 694 Q510 688 510 681 L510 668 L216 123 L216 121 L471 121 Q479 121 484.5 115.5 Q490 110 490 102 L490 19 Q490 11 484.5 5.5 Q479 0 471 0 L44 0 Q36 0 30.5 6 Q25 12 25 19 Z M269 764 L139 865 Q126 874 133 884 L159 921 Q168 932 182 924 L279 863 L377 924 Q391 932 400 921 L426 884 Q433 874 420 865 L290 764 Q280 756 269 764 Z " />
<glyph glyph-name="quoteleft" unicode="&#x2018;" horiz-adv-x="198" d="M106 414 Q74 414 49 440 Q24 466 24 522 Q24 623 114 703 Q127 713 136 702 L151 687 Q161 675 148 665 L143 660 Q138 656 135 653 Q132 650 126 644 Q120 638 115.5 632.5 Q111 627 105.5 619 Q100 611 96 603 Q92 595 88 585.5 Q84 576 82 565 Q80 554 80 543 L84 544 Q89 546 96.5 547 Q104 548 111 548 Q138 548 158 528.5 Q178 509 178 481 Q178 454 157 434 Q136 414 106 414 Z " />
<glyph glyph-name="quoteright" unicode="&#x2019;" horiz-adv-x="196" d="M62 423 L48 437 Q37 448 50 460 Q60 467 72.5 479 Q85 491 101.5 521 Q118 551 118 582 L116 582 Q114 581 111.5 580.5 Q109 580 105.5 579 Q102 578 97 577.5 Q92 577 88 577 Q60 577 40.5 596 Q21 615 21 643 Q21 671 41.5 690.5 Q62 710 92 710 Q125 710 150 684.5 Q175 659 175 603 Q175 502 85 422 Q72 413 62 423 Z " />
<glyph glyph-name="quotedblleft" unicode="&#x201c;" horiz-adv-x="392" d="M299 416 Q266 416 241 441.5 Q216 467 216 523 Q216 624 306 704 Q319 714 329 703 L344 689 Q354 677 341 666 Q274 611 273 544 L275 544 Q277 545 279.5 545.5 Q282 546 286 547 Q290 548 294.5 548.5 Q299 549 304 549 Q331 549 351 529.5 Q371 510 371 483 Q371 455 350.5 435.5 Q330 416 299 416 Z M106 416 Q74 416 49 441.5 Q24 467 24 523 Q24 624 114 704 Q127 714 136 703 L151 689 Q162 676 148 666 Q81 611 80 544 L84 545 Q89 546 96.5 547.5 Q104 549 111 549 Q138 549 158 529.5 Q178 510 178 483 Q178 455 157.5 435.5 Q137 416 106 416 Z " />
<glyph glyph-name="quotedblright" unicode="&#x201d;" horiz-adv-x="389" d="M255 423 L240 437 Q230 449 243 460 Q253 467 265.5 479 Q278 491 294.5 521 Q311 551 311 582 L309 582 Q307 581 304.5 580.5 Q302 580 298 579 Q294 578 289.5 577.5 Q285 577 280 577 Q253 577 233 596.5 Q213 616 213 643 Q213 671 233.5 690.5 Q254 710 285 710 Q318 710 343 684.5 Q368 659 368 603 Q368 502 278 422 Q265 412 255 423 Z M62 423 L48 437 Q37 448 50 460 Q60 467 72.5 479 Q85 491 101.5 521 Q118 551 118 582 L116 582 Q114 581 111.5 580.5 Q109 580 105.5 579 Q102 578 97 577.5 Q92 577 88 577 Q60 577 40.5 596 Q21 615 21 643 Q21 671 41.5 690.5 Q62 710 92 710 Q125 710 150 684.5 Q175 659 175 603 Q175 502 85 422 Q72 413 62 423 Z " />
<glyph glyph-name="bullet" unicode="&#x2022;" horiz-adv-x="389" d="M192 95 Q140 95 101.5 133.5 Q63 172 63 224 Q63 278 101.5 317.5 Q140 357 192 357 Q247 357 286 318 Q325 279 325 224 Q325 171 286 133 Q247 95 192 95 Z " />
<glyph glyph-name="endash" unicode="&#x2013;" horiz-adv-x="539" d="M72 210 Q64 210 58.5 215 Q53 220 53 228 L53 265 Q53 284 72 284 L467 284 Q486 284 486 265 L486 228 Q486 220 480.5 215 Q475 210 467 210 L72 210 Z " />
<glyph glyph-name="emdash" unicode="&#x2014;" horiz-adv-x="759" d="M72 210 Q64 210 58.5 215 Q53 220 53 228 L53 265 Q53 284 72 284 L687 284 Q706 284 706 265 L706 228 Q706 220 700.5 215 Q695 210 687 210 L72 210 Z " />
<glyph glyph-name="tilde" unicode="&#x2dc;" horiz-adv-x="380" d="M70 562 L41 583 Q29 592 35 606 Q43 621 47.5 628 Q52 635 66.5 653.5 Q81 672 99.5 681 Q118 690 139 690 Q167 690 198 662.5 Q229 635 246 635 Q258 635 267 644.5 Q276 654 280.5 663.5 Q285 673 293.5 678.5 Q302 684 311 676 L339 656 Q352 646 340 625 Q310 573 280 558 Q263 549 243 549 Q215 549 181.5 577 Q148 605 134 605 Q119 605 109 590 Q99 575 91 564.5 Q83 554 70 562 Z " />
<glyph glyph-name="trademark" unicode="&#x2122;" horiz-adv-x="721" d="M338 385 Q328 385 322.5 392 Q317 399 319 408 L371 690 Q373 705 390 705 L394 705 Q407 705 411 694 L498 509 L587 694 Q592 705 604 705 L608 705 Q625 705 627 690 L680 407 Q681 398 675.5 391.5 Q670 385 661 385 L622 385 Q607 385 603 402 L581 527 L517 391 Q513 382 501 382 L495 382 Q483 382 478 392 L417 527 L393 401 Q392 395 386 390 Q380 385 374 385 L338 385 Z M145 385 Q137 385 131.5 390.5 Q126 396 126 404 L126 626 L62 626 Q54 626 48.5 631.5 Q43 637 43 645 L43 681 Q43 688 48.5 694 Q54 700 62 700 L267 700 Q275 700 280.5 694.5 Q286 689 286 681 L286 645 Q286 626 267 626 L203 626 L203 404 Q203 396 197.5 390.5 Q192 385 184 385 L145 385 Z " />
<glyph glyph-name="scaron" unicode="&#x161;" horiz-adv-x="364" d="M44 27 Q32 37 38 48 L65 102 Q71 118 88 109 Q133 85 179 85 Q213 85 213 110 Q213 124 199 134 Q185 144 146 160 Q33 204 33 292 Q33 342 70.5 376 Q108 410 180 410 Q256 410 303 379 Q320 368 312 352 L287 301 Q280 288 263 294 Q218 315 180 315 Q146 315 146 292 Q146 280 155.5 274 Q165 268 194 256 Q199 254 201 253 Q268 227 302 196.5 Q336 166 336 112 Q336 60 293 25 Q250 -10 177 -10 Q93 -10 44 27 Z M175 524 L45 625 Q32 634 39 644 L65 681 Q74 692 88 684 L185 623 L283 684 Q297 692 306 681 L332 644 Q339 634 326 625 L196 524 Q186 516 175 524 Z " />
<glyph glyph-name="guilsinglright" unicode="&#x203a;" horiz-adv-x="271" d="M63 31 Q51 31 46.5 40 Q42 49 48 61 L113 208 L45 347 Q39 359 43 368.5 Q47 378 60 378 L117 378 Q128 378 135 366 L244 218 Q252 205 244 194 L140 39 Q134 31 125 31 L63 31 Z " />
<glyph glyph-name="oe" unicode="&#x153;" horiz-adv-x="732" d="M29 202 Q29 287 89.5 348.5 Q150 410 234 410 Q317 410 377 347 Q434 410 521 410 Q598 410 653 357.5 Q708 305 708 224 Q708 211 706 197 Q704 180 687 180 L432 180 Q436 146 462 119 Q488 92 527 92 Q568 92 606 118 Q623 129 632 118 L672 71 Q684 55 671 45 Q614 -10 522 -10 Q435 -10 377 53 Q319 -10 234 -10 Q150 -10 89.5 52.5 Q29 115 29 202 Z M441 250 L591 250 Q590 278 568.5 297.5 Q547 317 518 317 Q488 317 466.5 298 Q445 279 441 250 Z M138 202 Q138 159 166 128.5 Q194 98 234 98 Q274 98 302 128.5 Q330 159 330 202 Q330 244 302 273 Q274 302 234 302 Q194 302 166 273 Q138 244 138 202 Z " />
<glyph glyph-name="zcaron" unicode="&#x17e;" horiz-adv-x="366" d="M30 19 L30 29 L172 291 L172 293 L58 293 Q51 293 45.5 298.5 Q40 304 40 312 L40 381 Q40 389 45 394.5 Q50 400 58 400 L322 400 Q333 400 339 391.5 Q345 383 339 373 L194 109 L194 106 L302 106 Q321 106 321 87 L321 19 Q321 11 315.5 5.5 Q310 0 302 0 L49 0 Q42 0 36 6 Q30 12 30 19 Z M180 524 L50 625 Q37 634 44 644 L70 681 Q79 692 93 684 L190 623 L288 684 Q302 692 311 681 L337 644 Q344 634 331 625 L201 524 Q191 516 180 524 Z " />
<glyph glyph-name="Ydieresis" unicode="&#x178;" horiz-adv-x="583" d="M225 19 L225 337 L-3 671 Q-9 681 -4 690.5 Q1 700 13 700 L115 700 Q124 700 131 691 L291 461 L451 691 Q458 700 467 700 L570 700 Q582 700 587 690.5 Q592 681 586 671 L355 338 L355 19 Q355 12 349.5 6 Q344 0 336 0 L244 0 Q236 0 230.5 5.5 Q225 11 225 19 Z M459 794 Q440 775 414 775 Q388 775 369.5 794 Q351 813 351 839 Q351 865 369.5 883.5 Q388 902 414 902 Q440 902 459 883.5 Q478 865 478 839 Q478 813 459 794 Z M212 794 Q193 775 167 775 Q141 775 122.5 794 Q104 813 104 839 Q104 865 122.5 883.5 Q141 902 167 902 Q193 902 212 883.5 Q231 865 231 839 Q231 813 212 794 Z " />
<glyph glyph-name="uni00A0" unicode="&#xa0;" horiz-adv-x="221" d="" />
<glyph glyph-name="exclamdown" unicode="&#xa1;" horiz-adv-x="266" d="M134 245 Q100 245 75.5 269.5 Q51 294 51 328 Q51 362 75.5 386 Q100 410 134 410 Q167 410 191 386 Q215 362 215 328 Q215 294 191 269.5 Q167 245 134 245 Z M98 112 Q99 118 104.5 123 Q110 128 117 128 L149 128 Q156 128 161.5 123 Q167 118 168 112 L207 -167 L207 -281 Q207 -288 201.5 -294 Q196 -300 188 -300 L78 -300 Q70 -300 64.5 -294 Q59 -288 59 -281 L59 -169 L98 112 Z " />
<glyph glyph-name="cent" unicode="&#xa2;" horiz-adv-x="412" d="M154 4 Q94 27 56.5 80 Q19 133 19 200 Q19 287 83 348.5 Q147 410 232 410 Q243 410 263 408 L274 449 Q279 467 297 462 L309 459 Q327 455 322 436 L310 394 Q348 377 380 339 Q392 323 375 311 L329 267 Q318 258 304 270 Q296 279 282 288 L231 99 Q252 99 269.5 105.5 Q287 112 294 117.5 Q301 123 314 136 Q326 148 339 139 L382 102 Q399 88 389 74 Q335 -10 231 -10 Q220 -10 202 -8 L176 -104 Q175 -111 168 -115 Q161 -119 153 -117 L142 -114 Q124 -110 128 -92 L154 4 Z M183 113 L234 301 Q194 300 165.5 270.5 Q137 241 137 200 Q137 143 183 113 Z " />
<glyph glyph-name="sterling" unicode="&#xa3;" horiz-adv-x="485" d="M66 19 L66 37 Q128 154 103 291 L60 291 Q53 291 47.5 296.5 Q42 302 42 310 L42 323 Q42 331 47.5 336.5 Q53 342 60 342 L91 342 Q89 351 82 376 Q75 401 71.5 416.5 Q68 432 64.5 455 Q61 478 61 498 Q61 595 121.5 652.5 Q182 710 273 710 Q315 710 354 695 Q393 680 408 669 Q423 658 444 639 Q459 628 446 613 L397 554 Q386 539 370 551 Q318 597 274 597 Q238 597 212 571 Q186 545 186 503 Q186 474 203.5 415 Q221 356 224 342 L340 342 Q348 342 353.5 336.5 Q359 331 359 323 L359 309 Q359 301 353.5 296 Q348 291 340 291 L234 291 Q246 195 220 111 L416 111 Q424 111 429 105.5 Q434 100 434 92 L434 19 Q434 11 428.5 5.5 Q423 0 416 0 L85 0 Q78 0 72 6 Q66 12 66 19 Z " />
<glyph glyph-name="currency" unicode="&#xa4;" horiz-adv-x="456" d="M96 161 L57 201 Q44 214 57 228 L105 276 Q79 333 106 388 L58 436 Q53 441 53 449.5 Q53 458 58 463 L98 502 Q103 507 111.5 507 Q120 507 125 502 L172 455 Q228 482 284 455 L331 502 Q344 515 358 502 L397 462 Q410 448 398 436 L351 389 Q377 331 352 275 L399 228 Q412 215 399 201 L359 162 Q354 157 346 156.5 Q338 156 333 161 L285 209 Q228 182 171 209 L123 161 Q110 148 96 161 Z M190.5 295.5 Q205 281 227 281 Q249 281 264 295.5 Q279 310 279 332 Q279 354 264.5 369 Q250 384 227 384 Q205 384 190.5 369 Q176 354 176 332 Q176 310 190.5 295.5 Z " />
<glyph glyph-name="yen" unicode="&#xa5;" horiz-adv-x="633" d="M139 120 Q132 120 126.5 125.5 Q121 131 121 139 L121 152 Q121 160 126.5 165.5 Q132 171 139 171 L250 171 L250 240 L139 240 Q132 240 126.5 245.5 Q121 251 121 259 L121 272 Q121 280 126.5 285.5 Q132 291 139 291 L250 291 L250 337 L22 671 Q16 681 21 690.5 Q26 700 38 700 L141 700 Q150 700 157 691 L317 461 L477 691 Q484 700 493 700 L595 700 Q607 700 612 690.5 Q617 681 611 671 L380 338 L380 291 L489 291 Q497 291 502.5 285.5 Q508 280 508 272 L508 258 Q508 250 502.5 245 Q497 240 489 240 L380 240 L380 171 L489 171 Q497 171 502.5 165.5 Q508 160 508 152 L508 138 Q508 130 502.5 125 Q497 120 489 120 L380 120 L380 19 Q380 12 374 6 Q368 0 361 0 L269 0 Q261 0 255.5 5.5 Q250 11 250 19 L250 120 L139 120 Z " />
<glyph glyph-name="brokenbar" unicode="&#xa6;" horiz-adv-x="315" d="M151 392 Q143 392 137.5 397.5 Q132 403 132 410 L132 741 Q132 749 137.5 754.5 Q143 760 151 760 L164 760 Q172 760 177 754.5 Q182 749 182 741 L182 410 Q182 403 176.5 397.5 Q171 392 163 392 L151 392 Z M132 49 Q132 57 137.5 62.5 Q143 68 151 68 L164 68 Q172 68 177 62.5 Q182 57 182 49 L182 -282 Q182 -289 176.5 -294.5 Q171 -300 163 -300 L151 -300 Q143 -300 137.5 -294.5 Q132 -289 132 -282 L132 49 Z " />
<glyph glyph-name="section" unicode="&#xa7;" horiz-adv-x="512" d="M71 -88 Q85 -65 106 -80 L122 -90 Q138 -100 156.5 -110 Q175 -120 201.5 -129 Q228 -138 250 -138 Q284 -138 309.5 -120.5 Q335 -103 335 -70 Q335 -4 215 47 Q35 121 35 251 Q35 327 107 387 Q35 453 35 529 Q35 602 89.5 656 Q144 710 250 710 Q352 710 441 646 Q448 642 450.5 632.5 Q453 623 448 615 L407 556 Q395 537 374 551 Q302 601 245 601 Q205 601 182 581.5 Q159 562 159 537 Q159 505 186 480.5 Q213 456 272 432 Q315 415 345 399 Q375 383 407.5 358 Q440 333 457 298.5 Q474 264 474 222 Q474 148 401 83 Q474 16 474 -63 Q474 -139 413 -194 Q352 -249 254 -249 Q124 -249 45 -175 Q28 -158 40 -141 L71 -88 Z M155 260 Q155 234 172 214 Q189 194 214 180 Q239 166 281 147 Q295 141 302 138 Q306 141 313 146.5 Q320 152 331 173 Q342 194 342 218 Q342 288 191 335 Q155 299 155 260 Z " />
<glyph glyph-name="dieresis" unicode="&#xa8;" horiz-adv-x="414" d="M358 570 Q339 551 313 551 Q287 551 268.5 570 Q250 589 250 615 Q250 641 268.5 659.5 Q287 678 313 678 Q339 678 358 659.5 Q377 641 377 615 Q377 589 358 570 Z M157 570 Q138 551 112 551 Q86 551 67.5 570 Q49 589 49 615 Q49 641 67.5 659.5 Q86 678 112 678 Q138 678 157 659.5 Q176 641 176 615 Q176 589 157 570 Z " />
<glyph glyph-name="copyright" unicode="&#xa9;" horiz-adv-x="804" d="M42 350 Q42 499 147.5 604.5 Q253 710 401 710 Q550 710 655.5 604 Q761 498 761 350 Q761 202 655.5 96.5 Q550 -9 401 -9 Q252 -9 147 96.5 Q42 202 42 350 Z M120 350 Q120 234 202.5 151.5 Q285 69 401 69 Q518 69 600 151.5 Q682 234 682 350 Q682 467 600 549 Q518 631 401 631 Q285 631 202.5 549 Q120 467 120 350 Z M223 348 Q223 426 277.5 481 Q332 536 410 536 Q474 536 522 498 Q538 484 524 469 L490 431 Q481 419 465 429 Q442 445 411 445 Q372 445 345.5 417.5 Q319 390 319 351 Q319 311 345 284 Q371 257 411 257 Q439 257 464 273 Q478 284 489 271 L525 231 Q538 217 524 203 Q475 161 410 161 Q333 161 278 216 Q223 271 223 348 Z " />
<glyph glyph-name="ordfeminine" unicode="&#xaa;" horiz-adv-x="311" d="M121 398 Q77 398 49 426 Q21 454 21 500 Q21 541 52.5 567.5 Q84 594 139 594 Q153 594 166.5 592 Q180 590 186 588 L193 586 Q193 615 184.5 627.5 Q176 640 151 640 Q124 640 73 628 Q59 625 56 643 L50 676 Q47 690 59 695 Q66 699 97.5 704.5 Q129 710 160 710 Q224 710 249 679 Q274 648 274 581 L274 420 Q274 414 269.5 410 Q265 406 260 406 L233 406 Q224 406 219 416 Q218 420 215 427 Q212 434 211 437 Q170 398 121 398 Z M113.5 473 Q124 462 141 462 Q158 462 172.5 473 Q187 484 192 497 L192 530 Q179 541 147 541 Q128 541 115.5 529.5 Q103 518 103 501 Q103 484 113.5 473 Z " />
<glyph glyph-name="guillemotleft" unicode="&#xab;" horiz-adv-x="471" d="M226 194 Q218 205 226 218 L335 366 Q342 378 353 378 L410 378 Q423 378 427 368.5 Q431 359 425 347 L357 208 L422 61 Q428 49 423.5 40 Q419 31 407 31 L345 31 Q336 31 330 39 L226 194 Z M130 39 L26 194 Q18 205 26 218 L135 366 Q142 378 153 378 L210 378 Q223 378 227 368.5 Q231 359 225 347 L157 208 L222 61 Q228 49 223.5 40 Q219 31 207 31 L145 31 Q136 31 130 39 Z " />
<glyph glyph-name="logicalnot" unicode="&#xac;" horiz-adv-x="504" d="M42 300 Q34 300 28.5 306 Q23 312 23 319 L23 375 Q23 382 28.5 388 Q34 394 42 394 L435 394 Q443 394 448.5 388 Q454 382 454 375 L454 149 Q454 142 448.5 136.5 Q443 131 435 131 L379 131 Q371 131 365.5 136.5 Q360 142 360 149 L360 300 L42 300 Z " />
<glyph glyph-name="uni00AD" unicode="&#xad;" horiz-adv-x="347" d="M62 192 Q54 192 48.5 197 Q43 202 43 210 L43 277 Q43 296 62 296 L285 296 Q304 296 304 277 L304 210 Q304 202 298.5 197 Q293 192 285 192 L62 192 Z " />
<glyph glyph-name="registered" unicode="&#xae;" horiz-adv-x="804" d="M42 350 Q42 499 147.5 604.5 Q253 710 401 710 Q550 710 655.5 604 Q761 498 761 350 Q761 202 655.5 96.5 Q550 -9 401 -9 Q252 -9 147 96.5 Q42 202 42 350 Z M120 350 Q120 234 202.5 151.5 Q285 69 401 69 Q518 69 600 151.5 Q682 234 682 350 Q682 467 600 549 Q518 631 401 631 Q285 631 202.5 549 Q120 467 120 350 Z M267 187 L267 515 Q267 523 272.5 528.5 Q278 534 286 534 L441 534 Q490 534 527 500 Q564 466 564 410 Q564 333 493 299 L539 195 Q543 185 538 176.5 Q533 168 522 168 L468 168 Q456 168 450 182 L406 294 L354 294 L354 187 Q354 179 348.5 173.5 Q343 168 335 168 L286 168 Q278 168 272.5 173.5 Q267 179 267 187 Z M351 368 L430 368 Q448 368 459.5 380 Q471 392 471 409 Q471 427 459.5 438.5 Q448 450 430 450 L351 450 L351 368 Z " />
<glyph glyph-name="overscore" unicode="&#xaf;" horiz-adv-x="414" d="M79 570 Q71 570 65.5 575 Q60 580 60 588 L60 622 Q60 641 79 641 L335 641 Q354 641 354 622 L354 588 Q354 580 348.5 575 Q343 570 335 570 L79 570 Z " />
<glyph glyph-name="degree" unicode="&#xb0;" horiz-adv-x="310" d="M250.5 479.5 Q211 440 155 440 Q99 440 59.5 479.5 Q20 519 20 575 Q20 631 59.5 670.5 Q99 710 155 710 Q211 710 250.5 670.5 Q290 631 290 575 Q290 519 250.5 479.5 Z M155 524 Q174 524 189 539.5 Q204 555 204 575 Q204 594 189 609 Q174 624 155 624 Q135 624 119.5 609 Q104 594 104 575 Q104 555 119.5 539.5 Q135 524 155 524 Z " />
<glyph glyph-name="plusminus" unicode="&#xb1;" horiz-adv-x="560" d="M233 260 L233 363 L83 363 Q76 363 70 368.5 Q64 374 64 382 L64 438 Q64 446 70 451.5 Q76 457 83 457 L233 457 L233 605 Q233 612 238.5 617.5 Q244 623 252 623 L308 623 Q316 623 321.5 617.5 Q327 612 327 605 L327 457 L477 457 Q484 457 489.5 451.5 Q495 446 495 438 L495 382 Q495 374 489.5 368.5 Q484 363 477 363 L327 363 L327 260 Q327 253 321.5 247.5 Q316 242 308 242 L252 242 Q244 242 238.5 247.5 Q233 253 233 260 Z M64 66 L64 122 Q64 130 70 135.5 Q76 141 83 141 L477 141 Q484 141 489.5 135.5 Q495 130 495 122 L495 66 Q495 58 489.5 52.5 Q484 47 477 47 L83 47 Q76 47 70 52.5 Q64 58 64 66 Z " />
<glyph glyph-name="twosuperior" unicode="&#xb2;" horiz-adv-x="277" d="M37 504 Q27 504 27 513 L27 530 L137 656 Q162 684 162 706 Q162 721 151 731 Q140 741 122 741 Q96 741 78 721 Q69 715 62 724 L40 755 Q31 767 43 776 Q84 810 137 810 Q184 810 213.5 784.5 Q243 759 243 718 Q243 677 206 632 L152 568 L232 568 Q241 568 241 559 L241 513 Q241 504 232 504 L37 504 Z " />
<glyph glyph-name="threesuperior" unicode="&#xb3;" horiz-adv-x="265" d="M122 494 Q64 494 27 527 Q19 535 26 545 L48 574 Q54 583 65 576 L68 574 Q70 573 74.5 570.5 Q79 568 84.5 565.5 Q90 563 97.5 561.5 Q105 560 112 560 Q154 560 154 591 Q154 624 107 624 L78 624 Q63 624 63 638 L63 669 Q63 683 78 683 L107 683 Q126 683 137 691.5 Q148 700 148 714 Q148 727 137.5 735.5 Q127 744 110 744 Q89 744 71 728 Q62 723 56 731 L32 760 Q21 771 33 778 Q66 810 122 810 Q170 810 200 787.5 Q230 765 230 727 Q230 702 214.5 684 Q199 666 179 657 L179 656 Q239 633 239 580 Q239 540 205.5 517 Q172 494 122 494 Z " />
<glyph glyph-name="acute" unicode="&#xb4;" horiz-adv-x="302" d="M89 528 Q70 521 63 534 L46 570 Q40 581 52 589 L215 686 Q233 698 241 683 L270 632 Q279 612 264 605 L89 528 Z " />
<glyph glyph-name="mu" unicode="&#xb5;" horiz-adv-x="524" d="M181 -4 L181 -281 Q181 -288 175.5 -294 Q170 -300 162 -300 L80 -300 Q72 -300 66.5 -294 Q61 -288 61 -281 L61 381 Q61 389 66.5 394.5 Q72 400 80 400 L162 400 Q170 400 175.5 394.5 Q181 389 181 381 L181 182 Q183 145 202 124.5 Q221 104 254 104 Q284 104 306.5 127 Q329 150 334 179 L334 381 Q334 392 339 396 Q344 400 356 400 L432 400 Q440 400 445.5 394.5 Q451 389 451 381 L451 19 Q451 12 445.5 6 Q440 0 432 0 L395 0 Q382 0 376 15 L364 48 Q363 47 356.5 41 Q350 35 346.5 32 Q343 29 334.5 23 Q326 17 319.5 13 Q313 9 302.5 4 Q292 -1 281.5 -3.5 Q271 -6 257.5 -8 Q244 -10 230 -10 Q204 -10 181 -4 Z " />
<glyph glyph-name="paragraph" unicode="&#xb6;" horiz-adv-x="701" d="M227 281 Q142 281 80.5 342 Q19 403 19 491 Q19 577 75.5 638.5 Q132 700 213 700 L669 699 Q676 699 682 693.5 Q688 688 688 680 L688 634 Q688 626 682.5 620.5 Q677 615 669 615 L591 615 L591 -281 Q591 -289 585.5 -294.5 Q580 -300 572 -300 L518 -300 Q510 -300 504.5 -294 Q499 -288 499 -281 L499 615 L363 615 L363 -281 Q363 -288 357.5 -294 Q352 -300 344 -300 L290 -300 Q282 -300 276.5 -294 Q271 -288 271 -281 L271 281 L227 281 Z " />
<glyph glyph-name="middot" unicode="&#xb7;" horiz-adv-x="258" d="M128 167 Q92 167 65.5 193.5 Q39 220 39 256 Q39 294 65.5 321 Q92 348 128 348 Q166 348 193 321 Q220 294 220 256 Q220 220 193 193.5 Q166 167 128 167 Z " />
<glyph glyph-name="cedilla" unicode="&#xb8;" horiz-adv-x="247" d="M54 0 L120 0 L120 -52 Q166 -58 191.5 -85.5 Q217 -113 217 -155 Q217 -199 186 -229.5 Q155 -260 111 -260 Q65 -260 35 -225 Q22 -211 38 -197 L58 -180 Q69 -169 79 -181 Q90 -193 109 -193 Q124 -193 134 -182 Q144 -171 144 -156 Q144 -113 71 -107 Q54 -105 54 -89 L54 0 Z " />
<glyph glyph-name="onesuperior" unicode="&#xb9;" horiz-adv-x="196" d="M83 504 Q73 504 73 513 L73 706 L24 702 Q15 702 15 711 L13 742 Q13 747 20 753 L94 800 L145 800 Q154 800 154 791 L154 513 Q154 504 145 504 L83 504 Z " />
<glyph glyph-name="ordmasculine" unicode="&#xba;" horiz-adv-x="302" d="M245 435.5 Q213 394 152 394 Q91 394 58 436 Q25 478 25 552 Q25 627 57.5 668.5 Q90 710 152 710 Q213 710 245 668.5 Q277 627 277 552 Q277 477 245 435.5 Z M108 552 Q108 464 152 464 Q196 464 196 552 Q196 640 152 640 Q108 640 108 552 Z " />
<glyph glyph-name="guillemotright" unicode="&#xbb;" horiz-adv-x="471" d="M248 61 L313 208 L245 347 Q239 359 243 368.5 Q247 378 260 378 L317 378 Q328 378 335 366 L444 218 Q452 205 444 194 L340 39 Q334 31 325 31 L263 31 Q251 31 246.5 40 Q242 49 248 61 Z M63 31 Q51 31 46.5 40 Q42 49 48 61 L113 208 L45 347 Q39 359 43 368.5 Q47 378 60 378 L117 378 Q128 378 135 366 L244 218 Q252 205 244 194 L140 39 Q134 31 125 31 L63 31 Z " />
<glyph glyph-name="onequarter" unicode="&#xbc;" horiz-adv-x="664" d="M89 27 L432 690 Q437 700 449 700 L499 700 Q510 700 515.5 691.5 Q521 683 516 673 L171 10 Q166 0 154 0 L106 0 Q95 0 89.5 8.5 Q84 17 89 27 Z M91 404 Q81 404 81 413 L81 606 L32 602 Q23 602 23 611 L21 642 Q21 647 28 653 L102 700 L153 700 Q162 700 162 691 L162 413 Q162 404 153 404 L91 404 Z M351 65 L351 116 L514 293 Q517 296 522 296 L563 296 Q572 296 572 287 L572 117 L612 117 Q621 117 621 109 L621 66 Q621 57 612 57 L572 57 L572 9 Q572 0 563 0 L507 0 Q497 0 497 9 L497 57 L360 57 Q351 57 351 65 Z M424 116 L498 116 L498 199 L424 116 Z " />
<glyph glyph-name="onehalf" unicode="&#xbd;" horiz-adv-x="661" d="M89 27 L432 690 Q437 700 449 700 L499 700 Q510 700 515.5 691.5 Q521 683 516 673 L171 10 Q166 0 154 0 L106 0 Q95 0 89.5 8.5 Q84 17 89 27 Z M91 404 Q81 404 81 413 L81 606 L32 602 Q23 602 23 611 L21 642 Q21 647 28 653 L102 700 L153 700 Q162 700 162 691 L162 413 Q162 404 153 404 L91 404 Z M391 9 L391 26 L501 152 Q526 180 526 202 Q526 217 515 227 Q504 237 486 237 Q460 237 442 217 Q433 211 426 220 L404 251 Q395 263 407 272 Q448 306 501 306 Q548 306 577.5 280.5 Q607 255 607 214 Q607 173 570 128 L516 64 L596 64 Q605 64 605 55 L605 9 Q605 0 596 0 L401 0 Q391 0 391 9 Z " />
<glyph glyph-name="threequarters" unicode="&#xbe;" horiz-adv-x="701" d="M128 394 Q70 394 33 427 Q25 435 32 445 L54 474 Q60 483 71 476 L74 474 Q76 473 80.5 470.5 Q85 468 90.5 465.5 Q96 463 103.5 461.5 Q111 460 118 460 Q160 460 160 491 Q160 524 113 524 L84 524 Q69 524 69 538 L69 569 Q69 583 84 583 L113 583 Q132 583 143 591.5 Q154 600 154 614 Q154 627 143.5 635.5 Q133 644 116 644 Q95 644 77 628 Q68 623 62 631 L38 660 Q27 671 39 678 Q72 710 128 710 Q176 710 206 687.5 Q236 665 236 627 Q236 602 220.5 584 Q205 566 185 557 L185 556 Q245 533 245 480 Q245 440 211.5 417 Q178 394 128 394 Z M126 27 L469 690 Q474 700 486 700 L536 700 Q547 700 552.5 691.5 Q558 683 553 673 L208 10 Q203 0 191 0 L143 0 Q132 0 126.5 8.5 Q121 17 126 27 Z M388 65 L388 116 L551 293 Q554 296 559 296 L600 296 Q609 296 609 287 L609 117 L649 117 Q658 117 658 109 L658 66 Q658 57 649 57 L609 57 L609 9 Q609 0 600 0 L544 0 Q534 0 534 9 L534 57 L397 57 Q388 57 388 65 Z M461 116 L535 116 L535 199 L461 116 Z " />
<glyph glyph-name="questiondown" unicode="&#xbf;" horiz-adv-x="434" d="M290 269.5 Q266 245 232 245 Q198 245 173.5 269.5 Q149 294 149 328 Q149 362 173.5 386 Q198 410 232 410 Q266 410 290 386 Q314 362 314 328 Q314 294 290 269.5 Z M19 -142 Q19 -108 34.5 -79 Q50 -50 72.5 -30.5 Q95 -11 117.5 6 Q140 23 155.5 40.5 Q171 58 171 74 L171 107 Q171 128 191 128 L272 128 Q280 128 285.5 122.5 Q291 117 291 109 L291 67 Q291 35 269.5 5.5 Q248 -24 221.5 -43 Q195 -62 173.5 -86.5 Q152 -111 152 -134 Q152 -162 174 -181.5 Q196 -201 232 -201 Q259 -201 279.5 -192 Q300 -183 319.5 -166.5 Q339 -150 340 -149 Q352 -141 362 -150 L409 -196 Q423 -208 409 -222 Q406 -226 401 -231.5 Q396 -237 377 -252.5 Q358 -268 337 -279.5 Q316 -291 282.5 -300.5 Q249 -310 213 -310 Q133 -310 76 -262 Q19 -214 19 -142 Z " />
<glyph glyph-name="Agrave" unicode="&#xc0;" horiz-adv-x="663" d="M17 0 Q6 0 0.5 8 Q-5 16 0 26 L311 699 Q316 710 328 710 L338 710 Q350 710 355 699 L663 26 Q668 16 662.5 8 Q657 0 646 0 L559 0 Q540 0 530 20 L481 128 L182 128 L133 20 Q125 0 104 0 L17 0 Z M231 239 L432 239 L332 459 L329 459 L231 239 Z M402 768 L227 845 Q210 853 221 872 L249 924 Q257 938 275 927 L439 829 Q451 822 445 810 L427 775 Q420 760 402 768 Z " />
<glyph glyph-name="Aacute" unicode="&#xc1;" horiz-adv-x="663" d="M17 0 Q6 0 0.5 8 Q-5 16 0 26 L311 699 Q316 710 328 710 L338 710 Q350 710 355 699 L663 26 Q668 16 662.5 8 Q657 0 646 0 L559 0 Q540 0 530 20 L481 128 L182 128 L133 20 Q125 0 104 0 L17 0 Z M231 239 L432 239 L332 459 L329 459 L231 239 Z M261 768 Q243 760 236 775 L218 810 Q212 822 224 829 L388 927 Q406 938 414 924 L442 872 Q453 853 436 845 L261 768 Z " />
<glyph glyph-name="Acircumflex" unicode="&#xc2;" horiz-adv-x="663" d="M17 0 Q6 0 0.5 8 Q-5 16 0 26 L311 699 Q316 710 328 710 L338 710 Q350 710 355 699 L663 26 Q668 16 662.5 8 Q657 0 646 0 L559 0 Q540 0 530 20 L481 128 L182 128 L133 20 Q125 0 104 0 L17 0 Z M231 239 L432 239 L332 459 L329 459 L231 239 Z M234 766 Q220 758 211 769 L185 806 Q178 816 191 825 L321 926 Q331 934 342 926 L472 825 Q485 816 478 806 L452 769 Q443 758 429 766 L332 827 L234 766 Z " />
<glyph glyph-name="Atilde" unicode="&#xc3;" horiz-adv-x="663" d="M17 0 Q6 0 0.5 8 Q-5 16 0 26 L311 699 Q316 710 328 710 L338 710 Q350 710 355 699 L663 26 Q668 16 662.5 8 Q657 0 646 0 L559 0 Q540 0 530 20 L481 128 L182 128 L133 20 Q125 0 104 0 L17 0 Z M231 239 L432 239 L332 459 L329 459 L231 239 Z M211 789 L182 810 Q170 819 176 833 Q184 848 188.5 855 Q193 862 207.5 880.5 Q222 899 240.5 908 Q259 917 280 917 Q308 917 339 889.5 Q370 862 387 862 Q399 862 408 871.5 Q417 881 421.5 890.5 Q426 900 434.5 905.5 Q443 911 452 903 L480 883 Q493 873 481 852 Q451 800 421 785 Q404 776 384 776 Q356 776 322.5 804 Q289 832 275 832 Q260 832 250 817 Q240 802 232 791.5 Q224 781 211 789 Z " />
<glyph glyph-name="Adieresis" unicode="&#xc4;" horiz-adv-x="663" d="M17 0 Q6 0 0.5 8 Q-5 16 0 26 L311 699 Q316 710 328 710 L338 710 Q350 710 355 699 L663 26 Q668 16 662.5 8 Q657 0 646 0 L559 0 Q540 0 530 20 L481 128 L182 128 L133 20 Q125 0 104 0 L17 0 Z M231 239 L432 239 L332 459 L329 459 L231 239 Z M499 794 Q480 775 454 775 Q428 775 409.5 794 Q391 813 391 839 Q391 865 409.5 883.5 Q428 902 454 902 Q480 902 499 883.5 Q518 865 518 839 Q518 813 499 794 Z M252 794 Q233 775 207 775 Q181 775 162.5 794 Q144 813 144 839 Q144 865 162.5 883.5 Q181 902 207 902 Q233 902 252 883.5 Q271 865 271 839 Q271 813 252 794 Z " />
<glyph glyph-name="Aring" unicode="&#xc5;" horiz-adv-x="663" d="M17 0 Q6 0 0.5 8 Q-5 16 0 26 L311 699 Q316 710 328 710 L338 710 Q350 710 355 699 L663 26 Q668 16 662.5 8 Q657 0 646 0 L559 0 Q540 0 530 20 L481 128 L182 128 L133 20 Q125 0 104 0 L17 0 Z M231 239 L432 239 L332 459 L329 459 L231 239 Z M411 787 Q378 754 331 754 Q284 754 251 787 Q218 820 218 867 Q218 914 251 947 Q284 980 331 980 Q378 980 411 947 Q444 914 444 867 Q444 820 411 787 Z M296.5 832.5 Q312 817 331 817 Q350 817 364.5 832 Q379 847 379 867 Q379 886 364.5 900.5 Q350 915 331 915 Q311 915 296 900.5 Q281 886 281 867 Q281 848 296.5 832.5 Z " />
<glyph glyph-name="AE" unicode="&#xc6;" horiz-adv-x="900" d="M2 0 Q-9 0 -12.5 8 Q-16 16 -10 26 L391 669 Q406 693 416 697 Q423 700 435 700 L830 700 Q838 700 843.5 694.5 Q849 689 849 681 L849 599 Q849 591 843.5 585.5 Q838 580 830 580 L531 580 L531 416 L781 416 Q789 416 794.5 410 Q800 404 800 397 L800 314 Q800 306 794.5 300.5 Q789 295 781 295 L531 295 L531 120 L830 120 Q838 120 843.5 114.5 Q849 109 849 101 L849 19 Q849 11 843.5 5.5 Q838 0 830 0 L422 0 Q414 0 408.5 5.5 Q403 11 403 19 L403 128 L193 128 L122 15 Q112 0 97 0 L2 0 Z M263 239 L403 239 L403 465 L263 239 Z " />
<glyph glyph-name="Ccedilla" unicode="&#xc7;" horiz-adv-x="686" d="M338 -4 Q210 18 125.5 117.5 Q41 217 41 349 Q41 499 146.5 604.5 Q252 710 402 710 Q540 710 644 617 Q659 603 645 589 L584 526 Q572 513 559 526 Q492 585 405 585 Q310 585 246 516.5 Q182 448 182 352 Q182 257 246.5 189 Q311 121 406 121 Q489 121 559 178 Q572 190 584 178 L646 114 Q652 108 651.5 100.5 Q651 93 645 87 Q547 -8 404 -10 L404 -52 Q450 -58 475.5 -85.5 Q501 -113 501 -155 Q501 -199 470 -229.5 Q439 -260 395 -260 Q349 -260 319 -225 Q306 -211 322 -197 L342 -180 Q353 -169 363 -181 Q374 -193 393 -193 Q408 -193 418 -182 Q428 -171 428 -156 Q428 -113 355 -107 Q338 -105 338 -89 L338 -4 Z " />
<glyph glyph-name="Egrave" unicode="&#xc8;" horiz-adv-x="588" d="M91 19 L91 681 Q91 689 96.5 694.5 Q102 700 110 700 L517 700 Q525 700 530.5 694.5 Q536 689 536 681 L536 599 Q536 591 530.5 585.5 Q525 580 517 580 L221 580 L221 416 L468 416 Q476 416 481.5 410 Q487 404 487 397 L487 314 Q487 306 481.5 300.5 Q476 295 468 295 L221 295 L221 120 L517 120 Q525 120 530.5 114.5 Q536 109 536 101 L536 19 Q536 11 530.5 5.5 Q525 0 517 0 L110 0 Q102 0 96.5 5.5 Q91 11 91 19 Z M390 768 L215 845 Q198 853 209 872 L237 924 Q245 938 263 927 L427 829 Q439 822 433 810 L415 775 Q408 760 390 768 Z " />
<glyph glyph-name="Eacute" unicode="&#xc9;" horiz-adv-x="588" d="M91 19 L91 681 Q91 689 96.5 694.5 Q102 700 110 700 L517 700 Q525 700 530.5 694.5 Q536 689 536 681 L536 599 Q536 591 530.5 585.5 Q525 580 517 580 L221 580 L221 416 L468 416 Q476 416 481.5 410 Q487 404 487 397 L487 314 Q487 306 481.5 300.5 Q476 295 468 295 L221 295 L221 120 L517 120 Q525 120 530.5 114.5 Q536 109 536 101 L536 19 Q536 11 530.5 5.5 Q525 0 517 0 L110 0 Q102 0 96.5 5.5 Q91 11 91 19 Z M250 768 Q232 760 225 775 L207 810 Q201 822 213 829 L377 927 Q395 938 403 924 L431 872 Q442 853 425 845 L250 768 Z " />
<glyph glyph-name="Ecircumflex" unicode="&#xca;" horiz-adv-x="588" d="M91 19 L91 681 Q91 689 96.5 694.5 Q102 700 110 700 L517 700 Q525 700 530.5 694.5 Q536 689 536 681 L536 599 Q536 591 530.5 585.5 Q525 580 517 580 L221 580 L221 416 L468 416 Q476 416 481.5 410 Q487 404 487 397 L487 314 Q487 306 481.5 300.5 Q476 295 468 295 L221 295 L221 120 L517 120 Q525 120 530.5 114.5 Q536 109 536 101 L536 19 Q536 11 530.5 5.5 Q525 0 517 0 L110 0 Q102 0 96.5 5.5 Q91 11 91 19 Z M217 766 Q203 758 194 769 L168 806 Q161 816 174 825 L304 926 Q314 934 325 926 L455 825 Q468 816 461 806 L435 769 Q426 758 412 766 L315 827 L217 766 Z " />
<glyph glyph-name="Edieresis" unicode="&#xcb;" horiz-adv-x="588" d="M91 19 L91 681 Q91 689 96.5 694.5 Q102 700 110 700 L517 700 Q525 700 530.5 694.5 Q536 689 536 681 L536 599 Q536 591 530.5 585.5 Q525 580 517 580 L221 580 L221 416 L468 416 Q476 416 481.5 410 Q487 404 487 397 L487 314 Q487 306 481.5 300.5 Q476 295 468 295 L221 295 L221 120 L517 120 Q525 120 530.5 114.5 Q536 109 536 101 L536 19 Q536 11 530.5 5.5 Q525 0 517 0 L110 0 Q102 0 96.5 5.5 Q91 11 91 19 Z M487 794 Q468 775 442 775 Q416 775 397.5 794 Q379 813 379 839 Q379 865 397.5 883.5 Q416 902 442 902 Q468 902 487 883.5 Q506 865 506 839 Q506 813 487 794 Z M240 794 Q221 775 195 775 Q169 775 150.5 794 Q132 813 132 839 Q132 865 150.5 883.5 Q169 902 195 902 Q221 902 240 883.5 Q259 865 259 839 Q259 813 240 794 Z " />
<glyph glyph-name="Igrave" unicode="&#xcc;" horiz-adv-x="313" d="M91 19 L91 681 Q91 688 96.5 694 Q102 700 110 700 L203 700 Q210 700 216 694 Q222 688 222 681 L222 19 Q222 12 216 6 Q210 0 203 0 L110 0 Q102 0 96.5 6 Q91 12 91 19 Z M226 768 L51 845 Q34 853 45 872 L73 924 Q81 938 99 927 L263 829 Q275 822 269 810 L251 775 Q244 760 226 768 Z " />
<glyph glyph-name="Iacute" unicode="&#xcd;" horiz-adv-x="313" d="M91 19 L91 681 Q91 688 96.5 694 Q102 700 110 700 L203 700 Q210 700 216 694 Q222 688 222 681 L222 19 Q222 12 216 6 Q210 0 203 0 L110 0 Q102 0 96.5 6 Q91 12 91 19 Z M86 768 Q68 760 61 775 L43 810 Q37 822 49 829 L213 927 Q231 938 239 924 L267 872 Q278 853 261 845 L86 768 Z " />
<glyph glyph-name="Icircumflex" unicode="&#xce;" horiz-adv-x="313" d="M91 19 L91 681 Q91 688 96.5 694 Q102 700 110 700 L203 700 Q210 700 216 694 Q222 688 222 681 L222 19 Q222 12 216 6 Q210 0 203 0 L110 0 Q102 0 96.5 6 Q91 12 91 19 Z M57 766 Q43 758 34 769 L8 806 Q1 816 14 825 L144 926 Q154 934 165 926 L295 825 Q308 816 301 806 L275 769 Q266 758 252 766 L155 827 L57 766 Z " />
<glyph glyph-name="Idieresis" unicode="&#xcf;" horiz-adv-x="313" d="M91 19 L91 681 Q91 688 96.5 694 Q102 700 110 700 L203 700 Q210 700 216 694 Q222 688 222 681 L222 19 Q222 12 216 6 Q210 0 203 0 L110 0 Q102 0 96.5 6 Q91 12 91 19 Z M324 794 Q305 775 279 775 Q253 775 234.5 794 Q216 813 216 839 Q216 865 234.5 883.5 Q253 902 279 902 Q305 902 324 883.5 Q343 865 343 839 Q343 813 324 794 Z M77 794 Q58 775 32 775 Q6 775 -12.5 794 Q-31 813 -31 839 Q-31 865 -12.5 883.5 Q6 902 32 902 Q58 902 77 883.5 Q96 865 96 839 Q96 813 77 794 Z " />
<glyph glyph-name="Eth" unicode="&#xd0;" horiz-adv-x="743" d="M96 19 L96 321 L67 321 Q60 321 54.5 326.5 Q49 332 49 340 L49 353 Q49 361 54.5 366.5 Q60 372 67 372 L96 372 L96 681 Q96 689 101.5 694.5 Q107 700 114 700 L351 700 Q496 700 599 597.5 Q702 495 702 351 Q702 206 599 103 Q496 0 351 0 L114 0 Q107 0 101.5 5.5 Q96 11 96 19 Z M225 122 L339 122 Q436 122 500 187.5 Q564 253 564 351 Q564 449 500 514 Q436 579 339 579 L225 579 L225 372 L390 372 Q398 372 403.5 366.5 Q409 361 409 353 L409 339 Q409 331 403.5 326 Q398 321 390 321 L225 321 L225 122 Z " />
<glyph glyph-name="Ntilde" unicode="&#xd1;" horiz-adv-x="773" d="M91 19 L91 692 Q91 699 96.5 704.5 Q102 710 110 710 L135 710 L551 268 L552 268 L552 681 Q552 689 557.5 694.5 Q563 700 571 700 L663 700 Q670 700 676 694 Q682 688 682 681 L682 8 Q682 1 676.5 -4.5 Q671 -10 663 -10 L639 -10 L221 449 L220 449 L220 19 Q220 11 214.5 5.5 Q209 0 201 0 L110 0 Q102 0 96.5 6 Q91 12 91 19 Z M266 789 L237 810 Q225 819 231 833 Q239 848 243.5 855 Q248 862 262.5 880.5 Q277 899 295.5 908 Q314 917 335 917 Q363 917 394 889.5 Q425 862 442 862 Q454 862 463 871.5 Q472 881 476.5 890.5 Q481 900 489.5 905.5 Q498 911 507 903 L535 883 Q548 873 536 852 Q506 800 476 785 Q459 776 439 776 Q411 776 377.5 804 Q344 832 330 832 Q315 832 305 817 Q295 802 287 791.5 Q279 781 266 789 Z " />
<glyph glyph-name="Ograve" unicode="&#xd2;" horiz-adv-x="800" d="M145.5 94.5 Q41 199 41 349 Q41 499 145.5 604.5 Q250 710 400 710 Q550 710 655 604.5 Q760 499 760 349 Q760 199 655 94.5 Q550 -10 400 -10 Q250 -10 145.5 94.5 Z M238.5 512 Q171 444 171 349 Q171 254 238.5 187 Q306 120 400 120 Q495 120 562.5 187.5 Q630 255 630 349 Q630 444 562 512 Q494 580 400 580 Q306 580 238.5 512 Z M473 768 L298 845 Q281 853 292 872 L320 924 Q328 938 346 927 L510 829 Q522 822 516 810 L498 775 Q491 760 473 768 Z " />
<glyph glyph-name="Oacute" unicode="&#xd3;" horiz-adv-x="800" d="M145.5 94.5 Q41 199 41 349 Q41 499 145.5 604.5 Q250 710 400 710 Q550 710 655 604.5 Q760 499 760 349 Q760 199 655 94.5 Q550 -10 400 -10 Q250 -10 145.5 94.5 Z M238.5 512 Q171 444 171 349 Q171 254 238.5 187 Q306 120 400 120 Q495 120 562.5 187.5 Q630 255 630 349 Q630 444 562 512 Q494 580 400 580 Q306 580 238.5 512 Z M331 768 Q313 760 306 775 L288 810 Q282 822 294 829 L458 927 Q476 938 484 924 L512 872 Q523 853 506 845 L331 768 Z " />
<glyph glyph-name="Ocircumflex" unicode="&#xd4;" horiz-adv-x="800" d="M145.5 94.5 Q41 199 41 349 Q41 499 145.5 604.5 Q250 710 400 710 Q550 710 655 604.5 Q760 499 760 349 Q760 199 655 94.5 Q550 -10 400 -10 Q250 -10 145.5 94.5 Z M238.5 512 Q171 444 171 349 Q171 254 238.5 187 Q306 120 400 120 Q495 120 562.5 187.5 Q630 255 630 349 Q630 444 562 512 Q494 580 400 580 Q306 580 238.5 512 Z M302 766 Q288 758 279 769 L253 806 Q246 816 259 825 L389 926 Q399 934 410 926 L540 825 Q553 816 546 806 L520 769 Q511 758 497 766 L400 827 L302 766 Z " />
<glyph glyph-name="Otilde" unicode="&#xd5;" horiz-adv-x="800" d="M145.5 94.5 Q41 199 41 349 Q41 499 145.5 604.5 Q250 710 400 710 Q550 710 655 604.5 Q760 499 760 349 Q760 199 655 94.5 Q550 -10 400 -10 Q250 -10 145.5 94.5 Z M238.5 512 Q171 444 171 349 Q171 254 238.5 187 Q306 120 400 120 Q495 120 562.5 187.5 Q630 255 630 349 Q630 444 562 512 Q494 580 400 580 Q306 580 238.5 512 Z M281 789 L252 810 Q240 819 246 833 Q254 848 258.5 855 Q263 862 277.5 880.5 Q292 899 310.5 908 Q329 917 350 917 Q378 917 409 889.5 Q440 862 457 862 Q469 862 478 871.5 Q487 881 491.5 890.5 Q496 900 504.5 905.5 Q513 911 522 903 L550 883 Q563 873 551 852 Q521 800 491 785 Q474 776 454 776 Q426 776 392.5 804 Q359 832 345 832 Q330 832 320 817 Q310 802 302 791.5 Q294 781 281 789 Z " />
<glyph glyph-name="Odieresis" unicode="&#xd6;" horiz-adv-x="800" d="M145.5 94.5 Q41 199 41 349 Q41 499 145.5 604.5 Q250 710 400 710 Q550 710 655 604.5 Q760 499 760 349 Q760 199 655 94.5 Q550 -10 400 -10 Q250 -10 145.5 94.5 Z M238.5 512 Q171 444 171 349 Q171 254 238.5 187 Q306 120 400 120 Q495 120 562.5 187.5 Q630 255 630 349 Q630 444 562 512 Q494 580 400 580 Q306 580 238.5 512 Z M568 794 Q549 775 523 775 Q497 775 478.5 794 Q460 813 460 839 Q460 865 478.5 883.5 Q497 902 523 902 Q549 902 568 883.5 Q587 865 587 839 Q587 813 568 794 Z M321 794 Q302 775 276 775 Q250 775 231.5 794 Q213 813 213 839 Q213 865 231.5 883.5 Q250 902 276 902 Q302 902 321 883.5 Q340 865 340 839 Q340 813 321 794 Z " />
<glyph glyph-name="multiply" unicode="&#xd7;" horiz-adv-x="464" d="M100 175 L60 215 Q47 228 60 241 L166 347 L60 453 Q55 458 55 466.5 Q55 475 60 480 L99 520 Q104 525 112.5 525 Q121 525 126 520 L232 414 L338 521 Q350 534 364 520 L404 480 Q418 466 405 454 L299 347 L405 241 Q417 227 404 214 L364 175 Q350 162 338 174 L232 281 L126 175 Q113 162 100 175 Z " />
<glyph glyph-name="Oslash" unicode="&#xd8;" horiz-adv-x="799" d="M63 23 Q50 36 62 49 L127 113 Q41 213 41 349 Q41 499 145.5 604.5 Q250 710 400 710 Q533 710 636 622 L704 689 Q717 702 730 689 L740 679 Q752 667 740 653 L672 585 Q760 482 760 350 Q760 200 655 95 Q550 -10 400 -10 Q262 -10 164 77 L99 12 Q86 0 73 13 L63 23 Z M221 207 L544 529 Q478 580 400 580 Q306 580 238.5 512 Q171 444 171 349 Q171 270 221 207 Z M257 170 Q320 120 400 120 Q494 120 562 188 Q630 256 630 350 Q630 431 579 492 L257 170 Z " />
<glyph glyph-name="Ugrave" unicode="&#xd9;" horiz-adv-x="721" d="M82 265 L82 681 Q82 688 88 694 Q94 700 101 700 L196 700 Q204 700 209.5 694.5 Q215 689 215 681 L215 272 Q215 207 255.5 163.5 Q296 120 360 120 Q424 120 465 163.5 Q506 207 506 271 L506 681 Q506 689 511.5 694.5 Q517 700 525 700 L620 700 Q628 700 633.5 694 Q639 688 639 681 L639 265 Q639 150 558.5 70 Q478 -10 360 -10 Q243 -10 162.5 70 Q82 150 82 265 Z M430 768 L255 845 Q238 853 249 872 L277 924 Q285 938 303 927 L467 829 Q479 822 473 810 L455 775 Q448 760 430 768 Z " />
<glyph glyph-name="Uacute" unicode="&#xda;" horiz-adv-x="721" d="M82 265 L82 681 Q82 688 88 694 Q94 700 101 700 L196 700 Q204 700 209.5 694.5 Q215 689 215 681 L215 272 Q215 207 255.5 163.5 Q296 120 360 120 Q424 120 465 163.5 Q506 207 506 271 L506 681 Q506 689 511.5 694.5 Q517 700 525 700 L620 700 Q628 700 633.5 694 Q639 688 639 681 L639 265 Q639 150 558.5 70 Q478 -10 360 -10 Q243 -10 162.5 70 Q82 150 82 265 Z M292 768 Q274 760 267 775 L249 810 Q243 822 255 829 L419 927 Q437 938 445 924 L473 872 Q484 853 467 845 L292 768 Z " />
<glyph glyph-name="Ucircumflex" unicode="&#xdb;" horiz-adv-x="721" d="M82 265 L82 681 Q82 688 88 694 Q94 700 101 700 L196 700 Q204 700 209.5 694.5 Q215 689 215 681 L215 272 Q215 207 255.5 163.5 Q296 120 360 120 Q424 120 465 163.5 Q506 207 506 271 L506 681 Q506 689 511.5 694.5 Q517 700 525 700 L620 700 Q628 700 633.5 694 Q639 688 639 681 L639 265 Q639 150 558.5 70 Q478 -10 360 -10 Q243 -10 162.5 70 Q82 150 82 265 Z M263 766 Q249 758 240 769 L214 806 Q207 816 220 825 L350 926 Q360 934 371 926 L501 825 Q514 816 507 806 L481 769 Q472 758 458 766 L361 827 L263 766 Z " />
<glyph glyph-name="Udieresis" unicode="&#xdc;" horiz-adv-x="721" d="M82 265 L82 681 Q82 688 88 694 Q94 700 101 700 L196 700 Q204 700 209.5 694.5 Q215 689 215 681 L215 272 Q215 207 255.5 163.5 Q296 120 360 120 Q424 120 465 163.5 Q506 207 506 271 L506 681 Q506 689 511.5 694.5 Q517 700 525 700 L620 700 Q628 700 633.5 694 Q639 688 639 681 L639 265 Q639 150 558.5 70 Q478 -10 360 -10 Q243 -10 162.5 70 Q82 150 82 265 Z M528 794 Q509 775 483 775 Q457 775 438.5 794 Q420 813 420 839 Q420 865 438.5 883.5 Q457 902 483 902 Q509 902 528 883.5 Q547 865 547 839 Q547 813 528 794 Z M281 794 Q262 775 236 775 Q210 775 191.5 794 Q173 813 173 839 Q173 865 191.5 883.5 Q210 902 236 902 Q262 902 281 883.5 Q300 865 300 839 Q300 813 281 794 Z " />
<glyph glyph-name="Yacute" unicode="&#xdd;" horiz-adv-x="583" d="M225 19 L225 337 L-3 671 Q-9 681 -4 690.5 Q1 700 13 700 L115 700 Q124 700 131 691 L291 461 L451 691 Q458 700 467 700 L570 700 Q582 700 587 690.5 Q592 681 586 671 L355 338 L355 19 Q355 12 349.5 6 Q344 0 336 0 L244 0 Q236 0 230.5 5.5 Q225 11 225 19 Z M221 768 Q203 760 196 775 L178 810 Q172 822 184 829 L348 927 Q366 938 374 924 L402 872 Q413 853 396 845 L221 768 Z " />
<glyph glyph-name="Thorn" unicode="&#xde;" horiz-adv-x="591" d="M91 19 L91 681 Q91 689 96.5 694.5 Q102 700 110 700 L202 700 Q210 700 215.5 694 Q221 688 221 681 L221 573 L345 573 Q437 574 503 508.5 Q569 443 569 352 Q569 259 503.5 193 Q438 127 346 127 L221 127 L221 19 Q221 12 215.5 6 Q210 0 202 0 L110 0 Q102 0 96.5 5.5 Q91 11 91 19 Z M221 249 L337 249 Q379 249 409.5 279 Q440 309 440 353 Q440 394 409.5 422 Q379 450 337 450 L221 450 L221 249 Z " />
<glyph glyph-name="germandbls" unicode="&#xdf;" horiz-adv-x="517" d="M60 19 L60 412 Q60 558 123.5 634 Q187 710 297 710 Q365 710 415 669.5 Q465 629 465 553 Q465 514 445.5 474.5 Q426 435 406 402.5 Q386 370 386 350 Q386 336 402 314.5 Q418 293 437 271.5 Q456 250 472 215 Q488 180 488 144 Q488 67 439.5 28.5 Q391 -10 324 -10 Q283 -10 280 10 L271 77 Q270 84 275 90.5 Q280 97 288 96 Q318 94 340.5 107.5 Q363 121 363 147 Q363 173 337 203.5 Q311 234 285 267 Q259 300 259 332 Q259 366 299.5 439.5 Q340 513 340 548 Q340 572 324.5 587 Q309 602 285 602 Q243 602 213 556.5 Q183 511 183 410 L183 19 Q183 12 177.5 6 Q172 0 164 0 L79 0 Q72 0 66 6 Q60 12 60 19 Z " />
<glyph glyph-name="agrave" unicode="&#xe0;" horiz-adv-x="426" d="M31 127 Q31 182 74 217.5 Q117 253 191 253 Q209 253 227 250.5 Q245 248 254 245 L264 242 Q265 280 252.5 295.5 Q240 311 212 311 Q149 311 100 296 Q81 290 77 314 L68 366 Q64 385 82 391 Q88 393 106 397 Q124 401 156.5 405.5 Q189 410 218 410 Q307 410 339.5 367.5 Q372 325 372 236 L372 19 Q372 12 366 6 Q360 0 353 0 L317 0 Q306 0 300 14 L288 41 Q232 -10 166 -10 Q105 -10 68 27 Q31 64 31 127 Z M141 127 Q141 104 155.5 89.5 Q170 75 193 75 Q215 75 235.5 89 Q256 103 262 114 L262 169 Q235 181 206 181 Q177 181 159 166 Q141 151 141 127 Z M297 528 L122 605 Q106 613 116 632 L144 683 Q152 698 170 686 L334 589 Q346 583 340 570 L322 534 Q316 520 297 528 Z " />
<glyph glyph-name="aacute" unicode="&#xe1;" horiz-adv-x="426" d="M31 127 Q31 182 74 217.5 Q117 253 191 253 Q209 253 227 250.5 Q245 248 254 245 L264 242 Q265 280 252.5 295.5 Q240 311 212 311 Q149 311 100 296 Q81 290 77 314 L68 366 Q64 385 82 391 Q88 393 106 397 Q124 401 156.5 405.5 Q189 410 218 410 Q307 410 339.5 367.5 Q372 325 372 236 L372 19 Q372 12 366 6 Q360 0 353 0 L317 0 Q306 0 300 14 L288 41 Q232 -10 166 -10 Q105 -10 68 27 Q31 64 31 127 Z M141 127 Q141 104 155.5 89.5 Q170 75 193 75 Q215 75 235.5 89 Q256 103 262 114 L262 169 Q235 181 206 181 Q177 181 159 166 Q141 151 141 127 Z M156 528 Q137 521 130 534 L113 570 Q107 581 119 589 L282 686 Q300 698 308 683 L337 632 Q346 612 331 605 L156 528 Z " />
<glyph glyph-name="acircumflex" unicode="&#xe2;" horiz-adv-x="426" d="M31 127 Q31 182 74 217.5 Q117 253 191 253 Q209 253 227 250.5 Q245 248 254 245 L264 242 Q265 280 252.5 295.5 Q240 311 212 311 Q149 311 100 296 Q81 290 77 314 L68 366 Q64 385 82 391 Q88 393 106 397 Q124 401 156.5 405.5 Q189 410 218 410 Q307 410 339.5 367.5 Q372 325 372 236 L372 19 Q372 12 366 6 Q360 0 353 0 L317 0 Q306 0 300 14 L288 41 Q232 -10 166 -10 Q105 -10 68 27 Q31 64 31 127 Z M141 127 Q141 104 155.5 89.5 Q170 75 193 75 Q215 75 235.5 89 Q256 103 262 114 L262 169 Q235 181 206 181 Q177 181 159 166 Q141 151 141 127 Z M94 529 L68 566 Q61 576 74 585 L204 686 Q214 694 225 686 L355 585 Q368 576 361 566 L335 529 Q326 518 312 526 L215 587 L117 526 Q103 518 94 529 Z " />
<glyph glyph-name="atilde" unicode="&#xe3;" horiz-adv-x="426" d="M31 127 Q31 182 74 217.5 Q117 253 191 253 Q209 253 227 250.5 Q245 248 254 245 L264 242 Q265 280 252.5 295.5 Q240 311 212 311 Q149 311 100 296 Q81 290 77 314 L68 366 Q64 385 82 391 Q88 393 106 397 Q124 401 156.5 405.5 Q189 410 218 410 Q307 410 339.5 367.5 Q372 325 372 236 L372 19 Q372 12 366 6 Q360 0 353 0 L317 0 Q306 0 300 14 L288 41 Q232 -10 166 -10 Q105 -10 68 27 Q31 64 31 127 Z M141 127 Q141 104 155.5 89.5 Q170 75 193 75 Q215 75 235.5 89 Q256 103 262 114 L262 169 Q235 181 206 181 Q177 181 159 166 Q141 151 141 127 Z M97 562 L68 583 Q56 592 62 606 Q70 621 74.5 628 Q79 635 93.5 653.5 Q108 672 126.5 681 Q145 690 166 690 Q194 690 225 662.5 Q256 635 273 635 Q285 635 294 644.5 Q303 654 307.5 663.5 Q312 673 320.5 678.5 Q329 684 338 676 L366 656 Q379 646 367 625 Q337 573 307 558 Q290 549 270 549 Q242 549 208.5 577 Q175 605 161 605 Q146 605 136 590 Q126 575 118 564.5 Q110 554 97 562 Z " />
<glyph glyph-name="adieresis" unicode="&#xe4;" horiz-adv-x="426" d="M31 127 Q31 182 74 217.5 Q117 253 191 253 Q209 253 227 250.5 Q245 248 254 245 L264 242 Q265 280 252.5 295.5 Q240 311 212 311 Q149 311 100 296 Q81 290 77 314 L68 366 Q64 385 82 391 Q88 393 106 397 Q124 401 156.5 405.5 Q189 410 218 410 Q307 410 339.5 367.5 Q372 325 372 236 L372 19 Q372 12 366 6 Q360 0 353 0 L317 0 Q306 0 300 14 L288 41 Q232 -10 166 -10 Q105 -10 68 27 Q31 64 31 127 Z M141 127 Q141 104 155.5 89.5 Q170 75 193 75 Q215 75 235.5 89 Q256 103 262 114 L262 169 Q235 181 206 181 Q177 181 159 166 Q141 151 141 127 Z M364 570 Q345 551 319 551 Q293 551 274.5 570 Q256 589 256 615 Q256 641 274.5 659.5 Q293 678 319 678 Q345 678 364 659.5 Q383 641 383 615 Q383 589 364 570 Z M163 570 Q144 551 118 551 Q92 551 73.5 570 Q55 589 55 615 Q55 641 73.5 659.5 Q92 678 118 678 Q144 678 163 659.5 Q182 641 182 615 Q182 589 163 570 Z " />
<glyph glyph-name="aring" unicode="&#xe5;" horiz-adv-x="426" d="M31 127 Q31 182 74 217.5 Q117 253 191 253 Q209 253 227 250.5 Q245 248 254 245 L264 242 Q265 280 252.5 295.5 Q240 311 212 311 Q149 311 100 296 Q81 290 77 314 L68 366 Q64 385 82 391 Q88 393 106 397 Q124 401 156.5 405.5 Q189 410 218 410 Q307 410 339.5 367.5 Q372 325 372 236 L372 19 Q372 12 366 6 Q360 0 353 0 L317 0 Q306 0 300 14 L288 41 Q232 -10 166 -10 Q105 -10 68 27 Q31 64 31 127 Z M141 127 Q141 104 155.5 89.5 Q170 75 193 75 Q215 75 235.5 89 Q256 103 262 114 L262 169 Q235 181 206 181 Q177 181 159 166 Q141 151 141 127 Z M300 517 Q267 484 220 484 Q173 484 140 517 Q107 550 107 597 Q107 644 140 677 Q173 710 220 710 Q267 710 300 677 Q333 644 333 597 Q333 550 300 517 Z M220 547 Q239 547 253.5 562 Q268 577 268 597 Q268 616 254 630.5 Q240 645 220 645 Q200 645 185 630.5 Q170 616 170 597 Q170 578 185 562.5 Q200 547 220 547 Z " />
<glyph glyph-name="ae" unicode="&#xe6;" horiz-adv-x="670" d="M30 127 Q30 182 72 217.5 Q114 253 186 253 Q204 253 223 251 Q242 249 252 247 L262 245 Q260 286 249.5 302 Q239 318 207 318 Q159 318 98 302 Q79 300 75 318 L66 372 Q64 388 82 392 Q156 410 218 410 Q307 410 339 369 Q391 410 459 410 Q537 410 591.5 357.5 Q646 305 646 224 Q646 180 625 180 L370 180 Q374 146 400 119 Q426 92 465 92 Q506 92 544 118 Q561 129 570 118 L610 71 Q622 55 609 45 Q550 -10 460 -10 Q364 -10 310 55 Q292 32 254.5 11 Q217 -10 168 -10 Q106 -10 68 27 Q30 64 30 127 Z M379 251 L529 251 Q528 279 506.5 298.5 Q485 318 456 318 Q426 318 404.5 299 Q383 280 379 251 Z M140 130 Q140 106 156.5 91 Q173 76 196 76 Q216 76 232.5 86.5 Q249 97 256 108 L262 118 L262 170 Q235 183 200 183 Q175 183 157.5 168 Q140 153 140 130 Z " />
<glyph glyph-name="ccedilla" unicode="&#xe7;" horiz-adv-x="428" d="M180 0 Q115 19 72.5 73.5 Q30 128 30 200 Q30 287 94 348.5 Q158 410 243 410 Q332 410 391 339 Q403 323 386 311 L340 267 Q329 258 315 270 Q287 302 246 302 Q206 302 177 272 Q148 242 148 200 Q148 157 176 127.5 Q204 98 245 98 Q265 98 282 105 Q299 112 305 117 Q311 122 325 136 Q337 148 350 139 L393 102 Q410 88 400 74 Q346 -9 246 -10 L246 -51 Q292 -57 317.5 -84.5 Q343 -112 343 -154 Q343 -198 312 -228.5 Q281 -259 237 -259 Q191 -259 161 -224 Q148 -210 164 -196 L184 -179 Q195 -168 205 -180 Q216 -192 235 -192 Q250 -192 260 -181 Q270 -170 270 -155 Q270 -112 197 -106 Q180 -104 180 -88 L180 0 Z " />
<glyph glyph-name="egrave" unicode="&#xe8;" horiz-adv-x="445" d="M30 200 Q30 286 88 348 Q146 410 234 410 Q312 410 366.5 357 Q421 304 421 224 Q421 211 419 197 Q417 180 400 180 L144 180 Q146 146 172.5 119.5 Q199 93 240 93 Q283 93 318 118 Q335 128 344 118 L385 71 Q399 57 384 45 Q325 -10 235 -10 Q146 -10 88 51 Q30 112 30 200 Z M153 250 L304 250 Q302 278 280.5 298 Q259 318 231 318 Q201 318 179 298.5 Q157 279 153 250 Z M302 528 L127 605 Q111 613 121 632 L149 683 Q157 698 175 686 L339 589 Q351 583 345 570 L327 534 Q321 520 302 528 Z " />
<glyph glyph-name="eacute" unicode="&#xe9;" horiz-adv-x="445" d="M30 200 Q30 286 88 348 Q146 410 234 410 Q312 410 366.5 357 Q421 304 421 224 Q421 211 419 197 Q417 180 400 180 L144 180 Q146 146 172.5 119.5 Q199 93 240 93 Q283 93 318 118 Q335 128 344 118 L385 71 Q399 57 384 45 Q325 -10 235 -10 Q146 -10 88 51 Q30 112 30 200 Z M153 250 L304 250 Q302 278 280.5 298 Q259 318 231 318 Q201 318 179 298.5 Q157 279 153 250 Z M160 528 Q141 521 134 534 L117 570 Q111 581 123 589 L286 686 Q304 698 312 683 L341 632 Q350 612 335 605 L160 528 Z " />
<glyph glyph-name="ecircumflex" unicode="&#xea;" horiz-adv-x="445" d="M30 200 Q30 286 88 348 Q146 410 234 410 Q312 410 366.5 357 Q421 304 421 224 Q421 211 419 197 Q417 180 400 180 L144 180 Q146 146 172.5 119.5 Q199 93 240 93 Q283 93 318 118 Q335 128 344 118 L385 71 Q399 57 384 45 Q325 -10 235 -10 Q146 -10 88 51 Q30 112 30 200 Z M153 250 L304 250 Q302 278 280.5 298 Q259 318 231 318 Q201 318 179 298.5 Q157 279 153 250 Z M111 529 L85 566 Q78 576 91 585 L221 686 Q231 694 242 686 L372 585 Q385 576 378 566 L352 529 Q343 518 329 526 L232 587 L134 526 Q120 518 111 529 Z " />
<glyph glyph-name="edieresis" unicode="&#xeb;" horiz-adv-x="445" d="M30 200 Q30 286 88 348 Q146 410 234 410 Q312 410 366.5 357 Q421 304 421 224 Q421 211 419 197 Q417 180 400 180 L144 180 Q146 146 172.5 119.5 Q199 93 240 93 Q283 93 318 118 Q335 128 344 118 L385 71 Q399 57 384 45 Q325 -10 235 -10 Q146 -10 88 51 Q30 112 30 200 Z M153 250 L304 250 Q302 278 280.5 298 Q259 318 231 318 Q201 318 179 298.5 Q157 279 153 250 Z M377 570 Q358 551 332 551 Q306 551 287.5 570 Q269 589 269 615 Q269 641 287.5 659.5 Q306 678 332 678 Q358 678 377 659.5 Q396 641 396 615 Q396 589 377 570 Z M176 570 Q157 551 131 551 Q105 551 86.5 570 Q68 589 68 615 Q68 641 86.5 659.5 Q105 678 131 678 Q157 678 176 659.5 Q195 641 195 615 Q195 589 176 570 Z " />
<glyph glyph-name="igrave" unicode="&#xec;" horiz-adv-x="241" d="M189 528 L14 605 Q-2 613 8 632 L36 683 Q44 698 62 686 L226 589 Q238 583 232 570 L214 534 Q208 520 189 528 Z M60 19 L60 381 Q60 389 65.5 394.5 Q71 400 79 400 L162 400 Q170 400 175.5 394.5 Q181 389 181 381 L181 19 Q181 12 175.5 6 Q170 0 162 0 L79 0 Q72 0 66 6 Q60 12 60 19 Z " />
<glyph glyph-name="iacute" unicode="&#xed;" horiz-adv-x="241" d="M48 528 Q29 521 22 534 L5 570 Q-1 581 11 589 L174 686 Q192 698 200 683 L229 632 Q238 612 223 605 L48 528 Z M60 19 L60 381 Q60 389 65.5 394.5 Q71 400 79 400 L162 400 Q170 400 175.5 394.5 Q181 389 181 381 L181 19 Q181 12 175.5 6 Q170 0 162 0 L79 0 Q72 0 66 6 Q60 12 60 19 Z " />
<glyph glyph-name="icircumflex" unicode="&#xee;" horiz-adv-x="241" d="M60 19 L60 381 Q60 389 65.5 394.5 Q71 400 79 400 L162 400 Q170 400 175.5 394.5 Q181 389 181 381 L181 19 Q181 12 175.5 6 Q170 0 162 0 L79 0 Q72 0 66 6 Q60 12 60 19 Z M-2 529 L-28 566 Q-35 576 -22 585 L108 686 Q118 694 129 686 L259 585 Q272 576 265 566 L239 529 Q230 518 216 526 L119 587 L21 526 Q7 518 -2 529 Z " />
<glyph glyph-name="idieresis" unicode="&#xef;" horiz-adv-x="241" d="M265 570 Q246 551 220 551 Q194 551 175.5 570 Q157 589 157 615 Q157 641 175.5 659.5 Q194 678 220 678 Q246 678 265 659.5 Q284 641 284 615 Q284 589 265 570 Z M64 570 Q45 551 19 551 Q-7 551 -25.5 570 Q-44 589 -44 615 Q-44 641 -25.5 659.5 Q-7 678 19 678 Q45 678 64 659.5 Q83 641 83 615 Q83 589 64 570 Z M60 19 L60 381 Q60 389 65.5 394.5 Q71 400 79 400 L162 400 Q170 400 175.5 394.5 Q181 389 181 381 L181 19 Q181 12 175.5 6 Q170 0 162 0 L79 0 Q72 0 66 6 Q60 12 60 19 Z " />
<glyph glyph-name="eth" unicode="&#xf0;" horiz-adv-x="528" d="M29 219 Q29 320 90.5 378 Q152 436 233 436 Q299 436 347 408 Q326 480 242 540 L161 493 Q145 484 136 499 L129 512 Q119 528 135 537 L193 570 Q161 588 127 600 Q100 608 109 629 L132 688 Q138 708 160 702 Q238 671 297 631 L366 671 Q383 679 392 663 L399 652 Q409 635 393 626 L341 596 Q493 467 493 266 Q493 148 430.5 69 Q368 -10 255 -10 Q163 -10 96 57.5 Q29 125 29 219 Z M175.5 303.5 Q142 269 142 221 Q142 173 175.5 138.5 Q209 104 256 104 Q312 104 342.5 149 Q373 194 373 251 Q363 284 332.5 311 Q302 338 257 338 Q209 338 175.5 303.5 Z " />
<glyph glyph-name="ntilde" unicode="&#xf1;" horiz-adv-x="519" d="M60 19 L60 381 Q60 389 65.5 394.5 Q71 400 79 400 L117 400 Q129 400 134 388 L148 351 Q203 410 289 410 Q379 410 423 353 Q467 296 467 211 L467 19 Q467 12 461.5 6 Q456 0 448 0 L366 0 Q358 0 352.5 5.5 Q347 11 347 19 L347 217 Q347 256 327.5 279 Q308 302 272 302 Q236 302 211.5 282.5 Q187 263 178 239 L178 19 Q178 0 153 0 L79 0 Q72 0 66 6 Q60 12 60 19 Z M148 562 L119 583 Q107 592 113 606 Q121 621 125.5 628 Q130 635 144.5 653.5 Q159 672 177.5 681 Q196 690 217 690 Q245 690 276 662.5 Q307 635 324 635 Q336 635 345 644.5 Q354 654 358.5 663.5 Q363 673 371.5 678.5 Q380 684 389 676 L417 656 Q430 646 418 625 Q388 573 358 558 Q341 549 321 549 Q293 549 259.5 577 Q226 605 212 605 Q197 605 187 590 Q177 575 169 564.5 Q161 554 148 562 Z " />
<glyph glyph-name="ograve" unicode="&#xf2;" horiz-adv-x="468" d="M29 201 Q29 286 89.5 348 Q150 410 234 410 Q318 410 378.5 348 Q439 286 439 201 Q439 115 379 52.5 Q319 -10 234 -10 Q149 -10 89 52.5 Q29 115 29 201 Z M138 201 Q138 158 166 128 Q194 98 234 98 Q274 98 302 128 Q330 158 330 201 Q330 243 302 272.5 Q274 302 234 302 Q194 302 166 272.5 Q138 243 138 201 Z M306 528 L131 605 Q115 613 125 632 L153 683 Q161 698 179 686 L343 589 Q355 583 349 570 L331 534 Q325 520 306 528 Z " />
<glyph glyph-name="oacute" unicode="&#xf3;" horiz-adv-x="468" d="M29 201 Q29 286 89.5 348 Q150 410 234 410 Q318 410 378.5 348 Q439 286 439 201 Q439 115 379 52.5 Q319 -10 234 -10 Q149 -10 89 52.5 Q29 115 29 201 Z M138 201 Q138 158 166 128 Q194 98 234 98 Q274 98 302 128 Q330 158 330 201 Q330 243 302 272.5 Q274 302 234 302 Q194 302 166 272.5 Q138 243 138 201 Z M163 528 Q144 521 137 534 L120 570 Q114 581 126 589 L289 686 Q307 698 315 683 L344 632 Q353 612 338 605 L163 528 Z " />
<glyph glyph-name="ocircumflex" unicode="&#xf4;" horiz-adv-x="468" d="M29 201 Q29 286 89.5 348 Q150 410 234 410 Q318 410 378.5 348 Q439 286 439 201 Q439 115 379 52.5 Q319 -10 234 -10 Q149 -10 89 52.5 Q29 115 29 201 Z M138 201 Q138 158 166 128 Q194 98 234 98 Q274 98 302 128 Q330 158 330 201 Q330 243 302 272.5 Q274 302 234 302 Q194 302 166 272.5 Q138 243 138 201 Z M112 529 L86 566 Q79 576 92 585 L222 686 Q232 694 243 686 L373 585 Q386 576 379 566 L353 529 Q344 518 330 526 L233 587 L135 526 Q121 518 112 529 Z " />
<glyph glyph-name="otilde" unicode="&#xf5;" horiz-adv-x="468" d="M29 201 Q29 286 89.5 348 Q150 410 234 410 Q318 410 378.5 348 Q439 286 439 201 Q439 115 379 52.5 Q319 -10 234 -10 Q149 -10 89 52.5 Q29 115 29 201 Z M138 201 Q138 158 166 128 Q194 98 234 98 Q274 98 302 128 Q330 158 330 201 Q330 243 302 272.5 Q274 302 234 302 Q194 302 166 272.5 Q138 243 138 201 Z M113 562 L84 583 Q72 592 78 606 Q86 621 90.5 628 Q95 635 109.5 653.5 Q124 672 142.5 681 Q161 690 182 690 Q210 690 241 662.5 Q272 635 289 635 Q301 635 310 644.5 Q319 654 323.5 663.5 Q328 673 336.5 678.5 Q345 684 354 676 L382 656 Q395 646 383 625 Q353 573 323 558 Q306 549 286 549 Q258 549 224.5 577 Q191 605 177 605 Q162 605 152 590 Q142 575 134 564.5 Q126 554 113 562 Z " />
<glyph glyph-name="odieresis" unicode="&#xf6;" horiz-adv-x="468" d="M29 201 Q29 286 89.5 348 Q150 410 234 410 Q318 410 378.5 348 Q439 286 439 201 Q439 115 379 52.5 Q319 -10 234 -10 Q149 -10 89 52.5 Q29 115 29 201 Z M138 201 Q138 158 166 128 Q194 98 234 98 Q274 98 302 128 Q330 158 330 201 Q330 243 302 272.5 Q274 302 234 302 Q194 302 166 272.5 Q138 243 138 201 Z M378 570 Q359 551 333 551 Q307 551 288.5 570 Q270 589 270 615 Q270 641 288.5 659.5 Q307 678 333 678 Q359 678 378 659.5 Q397 641 397 615 Q397 589 378 570 Z M177 570 Q158 551 132 551 Q106 551 87.5 570 Q69 589 69 615 Q69 641 87.5 659.5 Q106 678 132 678 Q158 678 177 659.5 Q196 641 196 615 Q196 589 177 570 Z " />
<glyph glyph-name="divide" unicode="&#xf7;" horiz-adv-x="505" d="M298.5 491.5 Q278 471 250 471 Q222 471 201.5 491.5 Q181 512 181 540 Q181 568 201.5 588.5 Q222 609 250 609 Q278 609 298.5 588.5 Q319 568 319 540 Q319 512 298.5 491.5 Z M56 299 Q48 299 42.5 304.5 Q37 310 37 318 L37 374 Q37 382 42.5 387.5 Q48 393 56 393 L450 393 Q457 393 462.5 387.5 Q468 382 468 374 L468 318 Q468 310 462.5 304.5 Q457 299 450 299 L56 299 Z M181 160 Q181 188 200.5 208 Q220 228 249 228 Q278 228 298 208 Q318 188 318 160 Q318 132 298 111.5 Q278 91 249 91 Q221 91 201 111 Q181 131 181 160 Z " />
<glyph glyph-name="oslash" unicode="&#xf8;" horiz-adv-x="468" d="M51 24 Q38 38 50 50 L72 72 Q30 129 30 202 Q30 287 90.5 348.5 Q151 410 235 410 Q305 410 361 364 L387 390 Q399 404 413 390 L423 380 Q437 368 423 354 L397 328 Q439 271 439 202 Q439 115 379 52.5 Q319 -10 235 -10 Q164 -10 108 35 L87 13 Q82 8 73.5 8 Q65 8 60 14 L51 24 Z M150 152 L284 287 Q263 302 235 302 Q195 302 167 273 Q139 244 139 202 Q139 174 150 152 Z M185 112 Q207 98 235 98 Q275 98 302.5 128.5 Q330 159 330 202 Q330 227 319 249 L185 112 Z " />
<glyph glyph-name="ugrave" unicode="&#xf9;" horiz-adv-x="503" d="M53 187 L53 381 Q53 389 58.5 394.5 Q64 400 72 400 L154 400 Q162 400 167.5 394.5 Q173 389 173 381 L173 184 Q173 144 192.5 121 Q212 98 246 98 Q276 98 298.5 121 Q321 144 326 173 L326 381 Q326 392 331 396 Q336 400 348 400 L424 400 Q432 400 437.5 394.5 Q443 389 443 381 L443 19 Q443 12 437.5 6 Q432 0 424 0 L387 0 Q374 0 368 15 L356 48 Q355 47 348.5 41 Q342 35 338.5 32 Q335 29 326.5 23 Q318 17 311.5 13 Q305 9 294.5 4 Q284 -1 273.5 -3.5 Q263 -6 249.5 -8 Q236 -10 222 -10 Q135 -10 94 46 Q53 102 53 187 Z M324 528 L149 605 Q133 613 143 632 L171 683 Q179 698 197 686 L361 589 Q373 583 367 570 L349 534 Q343 520 324 528 Z " />
<glyph glyph-name="uacute" unicode="&#xfa;" horiz-adv-x="503" d="M53 187 L53 381 Q53 389 58.5 394.5 Q64 400 72 400 L154 400 Q162 400 167.5 394.5 Q173 389 173 381 L173 184 Q173 144 192.5 121 Q212 98 246 98 Q276 98 298.5 121 Q321 144 326 173 L326 381 Q326 392 331 396 Q336 400 348 400 L424 400 Q432 400 437.5 394.5 Q443 389 443 381 L443 19 Q443 12 437.5 6 Q432 0 424 0 L387 0 Q374 0 368 15 L356 48 Q355 47 348.5 41 Q342 35 338.5 32 Q335 29 326.5 23 Q318 17 311.5 13 Q305 9 294.5 4 Q284 -1 273.5 -3.5 Q263 -6 249.5 -8 Q236 -10 222 -10 Q135 -10 94 46 Q53 102 53 187 Z M182 528 Q163 521 156 534 L139 570 Q133 581 145 589 L308 686 Q326 698 334 683 L363 632 Q372 612 357 605 L182 528 Z " />
<glyph glyph-name="ucircumflex" unicode="&#xfb;" horiz-adv-x="503" d="M53 187 L53 381 Q53 389 58.5 394.5 Q64 400 72 400 L154 400 Q162 400 167.5 394.5 Q173 389 173 381 L173 184 Q173 144 192.5 121 Q212 98 246 98 Q276 98 298.5 121 Q321 144 326 173 L326 381 Q326 392 331 396 Q336 400 348 400 L424 400 Q432 400 437.5 394.5 Q443 389 443 381 L443 19 Q443 12 437.5 6 Q432 0 424 0 L387 0 Q374 0 368 15 L356 48 Q355 47 348.5 41 Q342 35 338.5 32 Q335 29 326.5 23 Q318 17 311.5 13 Q305 9 294.5 4 Q284 -1 273.5 -3.5 Q263 -6 249.5 -8 Q236 -10 222 -10 Q135 -10 94 46 Q53 102 53 187 Z M129 529 L103 566 Q96 576 109 585 L239 686 Q249 694 260 686 L390 585 Q403 576 396 566 L370 529 Q361 518 347 526 L250 587 L152 526 Q138 518 129 529 Z " />
<glyph glyph-name="udieresis" unicode="&#xfc;" horiz-adv-x="503" d="M53 187 L53 381 Q53 389 58.5 394.5 Q64 400 72 400 L154 400 Q162 400 167.5 394.5 Q173 389 173 381 L173 184 Q173 144 192.5 121 Q212 98 246 98 Q276 98 298.5 121 Q321 144 326 173 L326 381 Q326 392 331 396 Q336 400 348 400 L424 400 Q432 400 437.5 394.5 Q443 389 443 381 L443 19 Q443 12 437.5 6 Q432 0 424 0 L387 0 Q374 0 368 15 L356 48 Q355 47 348.5 41 Q342 35 338.5 32 Q335 29 326.5 23 Q318 17 311.5 13 Q305 9 294.5 4 Q284 -1 273.5 -3.5 Q263 -6 249.5 -8 Q236 -10 222 -10 Q135 -10 94 46 Q53 102 53 187 Z M402 570 Q383 551 357 551 Q331 551 312.5 570 Q294 589 294 615 Q294 641 312.5 659.5 Q331 678 357 678 Q383 678 402 659.5 Q421 641 421 615 Q421 589 402 570 Z M201 570 Q182 551 156 551 Q130 551 111.5 570 Q93 589 93 615 Q93 641 111.5 659.5 Q130 678 156 678 Q182 678 201 659.5 Q220 641 220 615 Q220 589 201 570 Z " />
<glyph glyph-name="yacute" unicode="&#xfd;" horiz-adv-x="463" d="M171 28 L8 374 Q3 384 8.5 392 Q14 400 25 400 L115 400 Q126 400 132 389 L233 163 L234 163 L334 389 Q340 400 358 400 L438 400 Q450 400 455 392 Q460 384 455 374 L149 -288 Q143 -300 132 -300 L46 -300 Q35 -300 29.5 -291.5 Q24 -283 29 -273 L171 28 Z M164 528 Q145 521 138 534 L121 570 Q115 581 127 589 L290 686 Q308 698 316 683 L345 632 Q354 612 339 605 L164 528 Z " />
<glyph glyph-name="thorn" unicode="&#xfe;" horiz-adv-x="500" d="M183 12 L183 -282 Q183 -290 177.5 -295.5 Q172 -301 164 -301 L79 -301 Q72 -301 66 -295.5 Q60 -290 60 -282 L60 681 Q60 688 66 694 Q72 700 79 700 L164 700 Q172 700 177.5 694 Q183 688 183 681 L183 381 Q228 409 277 409 Q359 409 414.5 347.5 Q470 286 470 200 Q470 111 411 50.5 Q352 -10 267 -10 Q227 -10 183 12 Z M183 126 Q206 99 257 99 Q299 99 326.5 128 Q354 157 354 200 Q354 242 327.5 272 Q301 302 259 302 Q228 302 207.5 289 Q187 276 183 264 L183 126 Z " />
<glyph glyph-name="ydieresis" unicode="&#xff;" horiz-adv-x="463" d="M171 28 L8 374 Q3 384 8.5 392 Q14 400 25 400 L115 400 Q126 400 132 389 L233 163 L234 163 L334 389 Q340 400 358 400 L438 400 Q450 400 455 392 Q460 384 455 374 L149 -288 Q143 -300 132 -300 L46 -300 Q35 -300 29.5 -291.5 Q24 -283 29 -273 L171 28 Z M378 570 Q359 551 333 551 Q307 551 288.5 570 Q270 589 270 615 Q270 641 288.5 659.5 Q307 678 333 678 Q359 678 378 659.5 Q397 641 397 615 Q397 589 378 570 Z M177 570 Q158 551 132 551 Q106 551 87.5 570 Q69 589 69 615 Q69 641 87.5 659.5 Q106 678 132 678 Q158 678 177 659.5 Q196 641 196 615 Q196 589 177 570 Z " />
<glyph glyph-name="Amacron" unicode="&#x100;" horiz-adv-x="663" d="M17 0 Q6 0 0.5 8 Q-5 16 0 26 L311 699 Q316 710 328 710 L338 710 Q350 710 355 699 L663 26 Q668 16 662.5 8 Q657 0 646 0 L559 0 Q540 0 530 20 L481 128 L182 128 L133 20 Q125 0 104 0 L17 0 Z M231 239 L432 239 L332 459 L329 459 L231 239 Z M203 808 Q195 808 189.5 813 Q184 818 184 826 L184 860 Q184 879 203 879 L459 879 Q478 879 478 860 L478 826 Q478 818 472.5 813 Q467 808 459 808 L203 808 Z " />
<glyph glyph-name="Abreve" unicode="&#x102;" horiz-adv-x="663" d="M17 0 Q6 0 0.5 8 Q-5 16 0 26 L311 699 Q316 710 328 710 L338 710 Q350 710 355 699 L663 26 Q668 16 662.5 8 Q657 0 646 0 L559 0 Q540 0 530 20 L481 128 L182 128 L133 20 Q125 0 104 0 L17 0 Z M231 239 L432 239 L332 459 L329 459 L231 239 Z M332 766 Q278 766 239 799.5 Q200 833 192 884 Q190 893 195.5 899 Q201 905 210 905 L247 905 Q260 905 264 891 Q272 868 290 853 Q308 838 332 838 Q353 838 371.5 853.5 Q390 869 398 891 Q401 905 415 905 L454 905 Q463 905 468 899 Q473 893 472 884 Q464 833 424.5 799.5 Q385 766 332 766 Z " />
<glyph glyph-name="Aringacute" unicode="&#x1fa;" horiz-adv-x="663" d="M240 886 L222 921 Q216 933 228 940 L392 1038 Q410 1049 418 1035 L446 983 Q457 964 440 956 L265 879 Q247 871 240 886 Z M17 0 Q6 0 0.5 8 Q-5 16 0 26 L293 660 Q261 672 241.5 700.5 Q222 729 222 765 Q222 812 255 845 Q288 878 335 878 Q382 878 415 845 Q448 812 448 765 Q448 729 427 699.5 Q406 670 373 658 L663 26 Q668 16 662.5 8 Q657 0 646 0 L559 0 Q540 0 530 20 L481 128 L182 128 L133 20 Q125 0 104 0 L17 0 Z M300.5 730.5 Q316 715 335 715 Q354 715 368.5 730 Q383 745 383 765 Q383 784 368.5 798.5 Q354 813 335 813 Q315 813 300 798.5 Q285 784 285 765 Q285 746 300.5 730.5 Z M231 239 L432 239 L332 459 L329 459 L231 239 Z " />
<glyph glyph-name="Aogonek" unicode="&#x104;" horiz-adv-x="663" d="M17 0 Q6 0 0.5 8 Q-5 16 0 26 L311 699 Q316 710 328 710 L338 710 Q350 710 355 699 L663 26 Q668 16 662.5 8 Q657 0 646 0 L585 0 Q540 -45 540 -96 Q540 -123 557.5 -141.5 Q575 -160 606 -160 Q616 -160 652 -151 Q660 -149 666 -154 Q672 -159 672 -168 L672 -198 Q672 -211 658 -217 Q618 -227 592 -227 Q537 -227 501 -199 Q465 -171 465 -117 Q465 -41 533 12 L481 128 L182 128 L133 20 Q125 0 104 0 L17 0 Z M231 239 L432 239 L332 459 L329 459 L231 239 Z " />
<glyph glyph-name="AEacute" unicode="&#x1fc;" horiz-adv-x="900" d="M2 0 Q-9 0 -12.5 8 Q-16 16 -10 26 L391 669 Q406 693 416 697 Q423 700 435 700 L830 700 Q838 700 843.5 694.5 Q849 689 849 681 L849 599 Q849 591 843.5 585.5 Q838 580 830 580 L531 580 L531 416 L781 416 Q789 416 794.5 410 Q800 404 800 397 L800 314 Q800 306 794.5 300.5 Q789 295 781 295 L531 295 L531 120 L830 120 Q838 120 843.5 114.5 Q849 109 849 101 L849 19 Q849 11 843.5 5.5 Q838 0 830 0 L422 0 Q414 0 408.5 5.5 Q403 11 403 19 L403 128 L193 128 L122 15 Q112 0 97 0 L2 0 Z M263 239 L403 239 L403 465 L263 239 Z M552 769 Q534 761 527 776 L509 811 Q503 823 515 830 L679 928 Q697 939 705 925 L733 873 Q744 854 727 846 L552 769 Z " />
<glyph glyph-name="Cacute" unicode="&#x106;" horiz-adv-x="684" d="M145.5 94.5 Q40 199 40 349 Q40 499 145.5 604.5 Q251 710 401 710 Q539 710 643 617 Q658 603 644 589 L583 526 Q571 513 558 526 Q491 585 404 585 Q309 585 245 516.5 Q181 448 181 352 Q181 257 245.5 189 Q310 121 405 121 Q488 121 558 178 Q571 190 583 178 L645 114 Q651 108 650.5 100.5 Q650 93 644 87 Q544 -10 401 -10 Q251 -10 145.5 94.5 Z M335 768 Q317 760 310 775 L292 810 Q286 822 298 829 L462 927 Q480 938 488 924 L516 872 Q527 853 510 845 L335 768 Z " />
<glyph glyph-name="Ccircumflex" unicode="&#x108;" horiz-adv-x="684" d="M145.5 94.5 Q40 199 40 349 Q40 499 145.5 604.5 Q251 710 401 710 Q539 710 643 617 Q658 603 644 589 L583 526 Q571 513 558 526 Q491 585 404 585 Q309 585 245 516.5 Q181 448 181 352 Q181 257 245.5 189 Q310 121 405 121 Q488 121 558 178 Q571 190 583 178 L645 114 Q651 108 650.5 100.5 Q650 93 644 87 Q544 -10 401 -10 Q251 -10 145.5 94.5 Z M303 766 Q289 758 280 769 L254 806 Q247 816 260 825 L390 926 Q400 934 411 926 L541 825 Q554 816 547 806 L521 769 Q512 758 498 766 L401 827 L303 766 Z " />
<glyph glyph-name="Ccaron" unicode="&#x10c;" horiz-adv-x="684" d="M145.5 94.5 Q40 199 40 349 Q40 499 145.5 604.5 Q251 710 401 710 Q539 710 643 617 Q658 603 644 589 L583 526 Q571 513 558 526 Q491 585 404 585 Q309 585 245 516.5 Q181 448 181 352 Q181 257 245.5 189 Q310 121 405 121 Q488 121 558 178 Q571 190 583 178 L645 114 Q651 108 650.5 100.5 Q650 93 644 87 Q544 -10 401 -10 Q251 -10 145.5 94.5 Z M390 764 L260 865 Q247 874 254 884 L280 921 Q289 932 303 924 L400 863 L498 924 Q512 932 521 921 L547 884 Q554 874 541 865 L411 764 Q401 756 390 764 Z " />
<glyph glyph-name="Cdotaccent" unicode="&#x10a;" horiz-adv-x="684" d="M145.5 94.5 Q40 199 40 349 Q40 499 145.5 604.5 Q251 710 401 710 Q539 710 643 617 Q658 603 644 589 L583 526 Q571 513 558 526 Q491 585 404 585 Q309 585 245 516.5 Q181 448 181 352 Q181 257 245.5 189 Q310 121 405 121 Q488 121 558 178 Q571 190 583 178 L645 114 Q651 108 650.5 100.5 Q650 93 644 87 Q544 -10 401 -10 Q251 -10 145.5 94.5 Z M453 802 Q432 781 402 781 Q372 781 351 802 Q330 823 330 853 Q330 883 351 904 Q372 925 402 925 Q432 925 453 904 Q474 883 474 853 Q474 823 453 802 Z " />
<glyph glyph-name="Dcaron" unicode="&#x10e;" horiz-adv-x="738" d="M91 19 L91 681 Q91 689 96.5 694.5 Q102 700 109 700 L346 700 Q491 700 594 597.5 Q697 495 697 351 Q697 206 594 103 Q491 0 346 0 L109 0 Q102 0 96.5 5.5 Q91 11 91 19 Z M220 122 L334 122 Q431 122 495 187.5 Q559 253 559 351 Q559 449 495 514 Q431 579 334 579 L220 579 L220 122 Z M339 764 L209 865 Q196 874 203 884 L229 921 Q238 932 252 924 L349 863 L447 924 Q461 932 470 921 L496 884 Q503 874 490 865 L360 764 Q350 756 339 764 Z " />
<glyph glyph-name="Dcroat" unicode="&#x110;" horiz-adv-x="743" d="M96 19 L96 321 L67 321 Q60 321 54.5 326.5 Q49 332 49 340 L49 353 Q49 361 54.5 366.5 Q60 372 67 372 L96 372 L96 681 Q96 689 101.5 694.5 Q107 700 114 700 L351 700 Q496 700 599 597.5 Q702 495 702 351 Q702 206 599 103 Q496 0 351 0 L114 0 Q107 0 101.5 5.5 Q96 11 96 19 Z M225 122 L339 122 Q436 122 500 187.5 Q564 253 564 351 Q564 449 500 514 Q436 579 339 579 L225 579 L225 372 L390 372 Q398 372 403.5 366.5 Q409 361 409 353 L409 339 Q409 331 403.5 326 Q398 321 390 321 L225 321 L225 122 Z " />
<glyph glyph-name="Ecaron" unicode="&#x11a;" horiz-adv-x="588" d="M91 19 L91 681 Q91 689 96.5 694.5 Q102 700 110 700 L517 700 Q525 700 530.5 694.5 Q536 689 536 681 L536 599 Q536 591 530.5 585.5 Q525 580 517 580 L221 580 L221 416 L468 416 Q476 416 481.5 410 Q487 404 487 397 L487 314 Q487 306 481.5 300.5 Q476 295 468 295 L221 295 L221 120 L517 120 Q525 120 530.5 114.5 Q536 109 536 101 L536 19 Q536 11 530.5 5.5 Q525 0 517 0 L110 0 Q102 0 96.5 5.5 Q91 11 91 19 Z M305 764 L175 865 Q162 874 169 884 L195 921 Q204 932 218 924 L315 863 L413 924 Q427 932 436 921 L462 884 Q469 874 456 865 L326 764 Q316 756 305 764 Z " />
<glyph glyph-name="Emacron" unicode="&#x112;" horiz-adv-x="588" d="M91 19 L91 681 Q91 689 96.5 694.5 Q102 700 110 700 L517 700 Q525 700 530.5 694.5 Q536 689 536 681 L536 599 Q536 591 530.5 585.5 Q525 580 517 580 L221 580 L221 416 L468 416 Q476 416 481.5 410 Q487 404 487 397 L487 314 Q487 306 481.5 300.5 Q476 295 468 295 L221 295 L221 120 L517 120 Q525 120 530.5 114.5 Q536 109 536 101 L536 19 Q536 11 530.5 5.5 Q525 0 517 0 L110 0 Q102 0 96.5 5.5 Q91 11 91 19 Z M189 808 Q181 808 175.5 813 Q170 818 170 826 L170 860 Q170 879 189 879 L445 879 Q464 879 464 860 L464 826 Q464 818 458.5 813 Q453 808 445 808 L189 808 Z " />
<glyph glyph-name="Ebreve" unicode="&#x114;" horiz-adv-x="588" d="M91 19 L91 681 Q91 689 96.5 694.5 Q102 700 110 700 L517 700 Q525 700 530.5 694.5 Q536 689 536 681 L536 599 Q536 591 530.5 585.5 Q525 580 517 580 L221 580 L221 416 L468 416 Q476 416 481.5 410 Q487 404 487 397 L487 314 Q487 306 481.5 300.5 Q476 295 468 295 L221 295 L221 120 L517 120 Q525 120 530.5 114.5 Q536 109 536 101 L536 19 Q536 11 530.5 5.5 Q525 0 517 0 L110 0 Q102 0 96.5 5.5 Q91 11 91 19 Z M322 766 Q268 766 229 799.5 Q190 833 182 884 Q180 893 185.5 899 Q191 905 200 905 L237 905 Q250 905 254 891 Q262 868 280 853 Q298 838 322 838 Q343 838 361.5 853.5 Q380 869 388 891 Q391 905 405 905 L444 905 Q453 905 458 899 Q463 893 462 884 Q454 833 414.5 799.5 Q375 766 322 766 Z " />
<glyph glyph-name="Edotaccent" unicode="&#x116;" horiz-adv-x="588" d="M91 19 L91 681 Q91 689 96.5 694.5 Q102 700 110 700 L517 700 Q525 700 530.5 694.5 Q536 689 536 681 L536 599 Q536 591 530.5 585.5 Q525 580 517 580 L221 580 L221 416 L468 416 Q476 416 481.5 410 Q487 404 487 397 L487 314 Q487 306 481.5 300.5 Q476 295 468 295 L221 295 L221 120 L517 120 Q525 120 530.5 114.5 Q536 109 536 101 L536 19 Q536 11 530.5 5.5 Q525 0 517 0 L110 0 Q102 0 96.5 5.5 Q91 11 91 19 Z M373 802 Q352 781 322 781 Q292 781 271 802 Q250 823 250 853 Q250 883 271 904 Q292 925 322 925 Q352 925 373 904 Q394 883 394 853 Q394 823 373 802 Z " />
<glyph glyph-name="Eogonek" unicode="&#x118;" horiz-adv-x="588" d="M91 19 L91 681 Q91 689 96.5 694.5 Q102 700 110 700 L517 700 Q525 700 530.5 694.5 Q536 689 536 681 L536 599 Q536 591 530.5 585.5 Q525 580 517 580 L221 580 L221 416 L468 416 Q476 416 481.5 410 Q487 404 487 397 L487 314 Q487 306 481.5 300.5 Q476 295 468 295 L221 295 L221 120 L517 120 Q525 120 530.5 114.5 Q536 109 536 101 L536 32 Q536 12 520 0 Q474 -46 474 -96 Q474 -123 491.5 -141.5 Q509 -160 540 -160 Q550 -160 586 -151 Q594 -149 600 -154 Q606 -159 606 -168 L606 -198 Q606 -211 592 -217 Q552 -227 526 -227 Q471 -227 435 -199 Q399 -171 399 -117 Q399 -50 454 0 L110 0 Q102 0 96.5 5.5 Q91 11 91 19 Z " />
<glyph glyph-name="Gcircumflex" unicode="&#x11c;" horiz-adv-x="712" d="M145.5 95 Q41 199 41 349 Q41 499 146 604.5 Q251 710 400 710 Q535 710 644 617 Q658 602 645 589 L583 524 Q571 512 557 524 Q491 582 406 582 Q313 582 247.5 513.5 Q182 445 182 350 Q182 256 247.5 188.5 Q313 121 407 121 Q464 121 526 146 L526 231 L446 231 Q438 231 432.5 236 Q427 241 427 249 L427 328 Q427 347 446 347 L638 347 Q645 347 650.5 341.5 Q656 336 656 328 L656 72 Q656 62 648 56 Q636 49 615 38 Q594 27 529 9 Q464 -9 400 -9 Q250 -9 145.5 95 Z M301 766 Q287 758 278 769 L252 806 Q245 816 258 825 L388 926 Q398 934 409 926 L539 825 Q552 816 545 806 L519 769 Q510 758 496 766 L399 827 L301 766 Z " />
<glyph glyph-name="Gbreve" unicode="&#x11e;" horiz-adv-x="712" d="M145.5 95 Q41 199 41 349 Q41 499 146 604.5 Q251 710 400 710 Q535 710 644 617 Q658 602 645 589 L583 524 Q571 512 557 524 Q491 582 406 582 Q313 582 247.5 513.5 Q182 445 182 350 Q182 256 247.5 188.5 Q313 121 407 121 Q464 121 526 146 L526 231 L446 231 Q438 231 432.5 236 Q427 241 427 249 L427 328 Q427 347 446 347 L638 347 Q645 347 650.5 341.5 Q656 336 656 328 L656 72 Q656 62 648 56 Q636 49 615 38 Q594 27 529 9 Q464 -9 400 -9 Q250 -9 145.5 95 Z M401 766 Q347 766 308 799.5 Q269 833 261 884 Q259 893 264.5 899 Q270 905 279 905 L316 905 Q329 905 333 891 Q341 868 359 853 Q377 838 401 838 Q422 838 440.5 853.5 Q459 869 467 891 Q470 905 484 905 L523 905 Q532 905 537 899 Q542 893 541 884 Q533 833 493.5 799.5 Q454 766 401 766 Z " />
<glyph glyph-name="Gdotaccent" unicode="&#x120;" horiz-adv-x="712" d="M145.5 95 Q41 199 41 349 Q41 499 146 604.5 Q251 710 400 710 Q535 710 644 617 Q658 602 645 589 L583 524 Q571 512 557 524 Q491 582 406 582 Q313 582 247.5 513.5 Q182 445 182 350 Q182 256 247.5 188.5 Q313 121 407 121 Q464 121 526 146 L526 231 L446 231 Q438 231 432.5 236 Q427 241 427 249 L427 328 Q427 347 446 347 L638 347 Q645 347 650.5 341.5 Q656 336 656 328 L656 72 Q656 62 648 56 Q636 49 615 38 Q594 27 529 9 Q464 -9 400 -9 Q250 -9 145.5 95 Z M452 802 Q431 781 401 781 Q371 781 350 802 Q329 823 329 853 Q329 883 350 904 Q371 925 401 925 Q431 925 452 904 Q473 883 473 853 Q473 823 452 802 Z " />
<glyph glyph-name="Gcommaaccent" unicode="&#x122;" horiz-adv-x="712" d="M145.5 95 Q41 199 41 349 Q41 499 146 604.5 Q251 710 400 710 Q535 710 644 617 Q658 602 645 589 L583 524 Q571 512 557 524 Q491 582 406 582 Q313 582 247.5 513.5 Q182 445 182 350 Q182 256 247.5 188.5 Q313 121 407 121 Q464 121 526 146 L526 231 L446 231 Q438 231 432.5 236 Q427 241 427 249 L427 328 Q427 347 446 347 L638 347 Q645 347 650.5 341.5 Q656 336 656 328 L656 72 Q656 62 648 56 Q636 49 615 38 Q594 27 529 9 Q464 -9 400 -9 Q250 -9 145.5 95 Z M396 -91 Q429 -91 454 -116.5 Q479 -142 479 -198 Q479 -299 389 -379 Q376 -389 366 -378 L351 -364 Q341 -352 354 -341 Q364 -334 376.5 -322 Q389 -310 405.5 -280 Q422 -250 422 -219 L420 -220 Q418 -220 415.5 -221 Q413 -222 409 -222.5 Q405 -223 400.5 -223.5 Q396 -224 391 -224 Q364 -224 344 -204.5 Q324 -185 324 -158 Q324 -130 344.5 -110.5 Q365 -91 396 -91 Z " />
<glyph glyph-name="Hcircumflex" unicode="&#x124;" horiz-adv-x="769" d="M91 19 L91 681 Q91 688 96.5 694 Q102 700 110 700 L203 700 Q211 700 216.5 694.5 Q222 689 222 681 L222 416 L548 416 L548 681 Q548 689 553.5 694.5 Q559 700 567 700 L659 700 Q666 700 672 694 Q678 688 678 681 L678 19 Q678 12 672 6 Q666 0 659 0 L567 0 Q559 0 553.5 5.5 Q548 11 548 19 L548 295 L222 295 L222 19 Q222 11 216.5 5.5 Q211 0 203 0 L110 0 Q102 0 96.5 6 Q91 12 91 19 Z M291 766 Q277 758 268 769 L242 806 Q235 816 248 825 L378 926 Q388 934 399 926 L529 825 Q542 816 535 806 L509 769 Q500 758 486 766 L389 827 L291 766 Z " />
<glyph glyph-name="Hbar" unicode="&#x126;" horiz-adv-x="769" d="M91 19 L91 533 L65 533 Q58 533 52.5 538.5 Q47 544 47 552 L47 565 Q47 573 52.5 578.5 Q58 584 65 584 L91 584 L91 681 Q91 688 96.5 694 Q102 700 110 700 L203 700 Q211 700 216.5 694.5 Q222 689 222 681 L222 584 L548 584 L548 681 Q548 689 553.5 694.5 Q559 700 567 700 L659 700 Q666 700 672 694 Q678 688 678 681 L678 584 L704 584 Q712 584 717.5 578.5 Q723 573 723 565 L723 551 Q723 543 717.5 538 Q712 533 704 533 L678 533 L678 19 Q678 12 672 6 Q666 0 659 0 L567 0 Q559 0 553.5 5.5 Q548 11 548 19 L548 295 L222 295 L222 19 Q222 11 216.5 5.5 Q211 0 203 0 L110 0 Q102 0 96.5 6 Q91 12 91 19 Z M222 416 L548 416 L548 533 L222 533 L222 416 Z " />
<glyph glyph-name="Ibreve" unicode="&#x12c;" horiz-adv-x="313" d="M91 19 L91 681 Q91 688 96.5 694 Q102 700 110 700 L203 700 Q210 700 216 694 Q222 688 222 681 L222 19 Q222 12 216 6 Q210 0 203 0 L110 0 Q102 0 96.5 6 Q91 12 91 19 Z M157 766 Q103 766 64 799.5 Q25 833 17 884 Q15 893 20.5 899 Q26 905 35 905 L72 905 Q85 905 89 891 Q97 868 115 853 Q133 838 157 838 Q178 838 196.5 853.5 Q215 869 223 891 Q226 905 240 905 L279 905 Q288 905 293 899 Q298 893 297 884 Q289 833 249.5 799.5 Q210 766 157 766 Z " />
<glyph glyph-name="Itilde" unicode="&#x128;" horiz-adv-x="313" d="M91 19 L91 681 Q91 688 96.5 694 Q102 700 110 700 L203 700 Q210 700 216 694 Q222 688 222 681 L222 19 Q222 12 216 6 Q210 0 203 0 L110 0 Q102 0 96.5 6 Q91 12 91 19 Z M37 789 L8 810 Q-4 819 2 833 Q10 848 14.5 855 Q19 862 33.5 880.5 Q48 899 66.5 908 Q85 917 106 917 Q134 917 165 889.5 Q196 862 213 862 Q225 862 234 871.5 Q243 881 247.5 890.5 Q252 900 260.5 905.5 Q269 911 278 903 L306 883 Q319 873 307 852 Q277 800 247 785 Q230 776 210 776 Q182 776 148.5 804 Q115 832 101 832 Q86 832 76 817 Q66 802 58 791.5 Q50 781 37 789 Z " />
<glyph glyph-name="Imacron" unicode="&#x12a;" horiz-adv-x="313" d="M91 19 L91 681 Q91 688 96.5 694 Q102 700 110 700 L203 700 Q210 700 216 694 Q222 688 222 681 L222 19 Q222 12 216 6 Q210 0 203 0 L110 0 Q102 0 96.5 6 Q91 12 91 19 Z M29 808 Q21 808 15.5 813 Q10 818 10 826 L10 860 Q10 879 29 879 L285 879 Q304 879 304 860 L304 826 Q304 818 298.5 813 Q293 808 285 808 L29 808 Z " />
<glyph glyph-name="Idot" unicode="&#x130;" horiz-adv-x="313" d="M91 19 L91 681 Q91 688 96.5 694 Q102 700 110 700 L203 700 Q210 700 216 694 Q222 688 222 681 L222 19 Q222 12 216 6 Q210 0 203 0 L110 0 Q102 0 96.5 6 Q91 12 91 19 Z M208 802 Q187 781 157 781 Q127 781 106 802 Q85 823 85 853 Q85 883 106 904 Q127 925 157 925 Q187 925 208 904 Q229 883 229 853 Q229 823 208 802 Z " />
<glyph glyph-name="Iogonek" unicode="&#x12e;" horiz-adv-x="313" d="M91 19 L91 681 Q91 688 96.5 694 Q102 700 110 700 L203 700 Q210 700 216 694 Q222 688 222 681 L222 19 Q222 12 216 6 Q210 0 203 0 L185 0 Q140 -45 140 -96 Q140 -123 157.5 -141.5 Q175 -160 206 -160 Q216 -160 252 -151 Q260 -149 266 -154 Q272 -159 272 -168 L272 -198 Q272 -211 258 -217 Q218 -227 192 -227 Q137 -227 101 -199 Q65 -171 65 -117 Q65 -50 120 0 L110 0 Q102 0 96.5 6 Q91 12 91 19 Z " />
<glyph glyph-name="Jcircumflex" unicode="&#x134;" horiz-adv-x="418" d="M-16 63 Q-24 76 -14 88 L38 141 Q53 155 68 140 Q98 108 134 108 Q166 108 190 134.5 Q214 161 214 209 L214 681 Q214 689 219.5 694.5 Q225 700 233 700 L327 700 Q335 700 340.5 694.5 Q346 689 346 681 L346 209 Q346 108 286.5 49 Q227 -10 136 -10 Q43 -10 -16 63 Z M184 766 Q170 758 161 769 L135 806 Q128 816 141 825 L271 926 Q281 934 292 926 L422 825 Q435 816 428 806 L402 769 Q393 758 379 766 L282 827 L184 766 Z " />
<glyph glyph-name="Kcommaaccent" unicode="&#x136;" horiz-adv-x="655" d="M91 24 L91 676 Q91 686 98 693 Q105 700 115 700 L203 700 Q213 700 220 693 Q227 686 227 676 L227 406 L479 690 Q487 700 498 700 L598 700 Q612 700 618 687.5 Q624 675 614 664 L353 370 L633 35 Q641 25 635 12.5 Q629 0 615 0 L506 0 Q493 0 488 7 L227 329 L227 24 Q227 14 220 7 Q213 0 203 0 L115 0 Q105 0 98 7 Q91 14 91 24 Z M349 -91 Q382 -91 407 -116.5 Q432 -142 432 -198 Q432 -299 342 -379 Q329 -389 319 -378 L304 -364 Q294 -352 307 -341 Q317 -334 329.5 -322 Q342 -310 358.5 -280 Q375 -250 375 -219 L373 -220 Q371 -220 368.5 -221 Q366 -222 362 -222.5 Q358 -223 353.5 -223.5 Q349 -224 344 -224 Q317 -224 297 -204.5 Q277 -185 277 -158 Q277 -130 297.5 -110.5 Q318 -91 349 -91 Z " />
<glyph glyph-name="Lacute" unicode="&#x139;" horiz-adv-x="505" d="M91 19 L91 681 Q91 689 96.5 694.5 Q102 700 110 700 L202 700 Q210 700 215.5 694 Q221 688 221 681 L221 120 L476 120 Q484 120 489.5 114.5 Q495 109 495 101 L495 19 Q495 11 489.5 5.5 Q484 0 476 0 L110 0 Q102 0 96.5 5.5 Q91 11 91 19 Z M85 768 Q67 760 60 775 L42 810 Q36 822 48 829 L212 927 Q230 938 238 924 L266 872 Q277 853 260 845 L85 768 Z " />
<glyph glyph-name="Lcaron" unicode="&#x13d;" horiz-adv-x="505" d="M91 19 L91 681 Q91 689 96.5 694.5 Q102 700 110 700 L202 700 Q210 700 215.5 694 Q221 688 221 681 L221 120 L476 120 Q484 120 489.5 114.5 Q495 109 495 101 L495 19 Q495 11 489.5 5.5 Q484 0 476 0 L110 0 Q102 0 96.5 5.5 Q91 11 91 19 Z M397 710 Q430 710 455 684.5 Q480 659 480 603 Q480 502 390 422 Q377 412 367 423 L352 437 Q342 449 355 460 Q365 467 377.5 479 Q390 491 406.5 521 Q423 551 423 582 L421 582 Q419 581 416.5 580.5 Q414 580 410 579 Q406 578 401.5 577.5 Q397 577 392 577 Q365 577 345 596.5 Q325 616 325 643 Q325 671 345.5 690.5 Q366 710 397 710 Z " />
<glyph glyph-name="Lcommaaccent" unicode="&#x13b;" horiz-adv-x="506" d="M91 19 L91 681 Q91 689 96.5 694.5 Q102 700 110 700 L202 700 Q210 700 215.5 694 Q221 688 221 681 L221 120 L476 120 Q484 120 489.5 114.5 Q495 109 495 101 L495 19 Q495 11 489.5 5.5 Q484 0 476 0 L110 0 Q102 0 96.5 5.5 Q91 11 91 19 Z M292 -91 Q325 -91 350 -116.5 Q375 -142 375 -198 Q375 -299 285 -379 Q272 -389 262 -378 L247 -364 Q237 -352 250 -341 Q260 -334 272.5 -322 Q285 -310 301.5 -280 Q318 -250 318 -219 L316 -220 Q314 -220 311.5 -221 Q309 -222 305 -222.5 Q301 -223 296.5 -223.5 Q292 -224 287 -224 Q260 -224 240 -204.5 Q220 -185 220 -158 Q220 -130 240.5 -110.5 Q261 -91 292 -91 Z " />
<glyph glyph-name="Lslash" unicode="&#x141;" horiz-adv-x="518" d="M104 19 L104 306 L81 294 Q75 290 67.5 292 Q60 294 56 301 L49 313 Q39 329 55 338 L104 365 L104 681 Q104 689 109.5 694.5 Q115 700 123 700 L215 700 Q222 700 228 694 Q234 688 234 681 L234 441 L321 492 Q337 500 347 485 L354 472 Q363 458 347 447 L234 381 L234 120 L489 120 Q497 120 502.5 114.5 Q508 109 508 101 L508 19 Q508 11 502.5 5.5 Q497 0 489 0 L123 0 Q115 0 109.5 5.5 Q104 11 104 19 Z " />
<glyph glyph-name="Ldot" unicode="&#x13f;" horiz-adv-x="577" d="M91 19 L91 681 Q91 689 96.5 694.5 Q102 700 110 700 L202 700 Q210 700 215.5 694 Q221 688 221 681 L221 120 L476 120 Q484 120 489.5 114.5 Q495 109 495 101 L495 19 Q495 11 489.5 5.5 Q484 0 476 0 L110 0 Q102 0 96.5 5.5 Q91 11 91 19 Z M532 305 Q511 284 481 284 Q451 284 430 305 Q409 326 409 356 Q409 386 430 407 Q451 428 481 428 Q511 428 532 407 Q553 386 553 356 Q553 326 532 305 Z " />
<glyph glyph-name="Nacute" unicode="&#x143;" horiz-adv-x="773" d="M91 19 L91 692 Q91 699 96.5 704.5 Q102 710 110 710 L135 710 L551 268 L552 268 L552 681 Q552 689 557.5 694.5 Q563 700 571 700 L663 700 Q670 700 676 694 Q682 688 682 681 L682 8 Q682 1 676.5 -4.5 Q671 -10 663 -10 L639 -10 L221 449 L220 449 L220 19 Q220 11 214.5 5.5 Q209 0 201 0 L110 0 Q102 0 96.5 6 Q91 12 91 19 Z M319 768 Q301 760 294 775 L276 810 Q270 822 282 829 L446 927 Q464 938 472 924 L500 872 Q511 853 494 845 L319 768 Z " />
<glyph glyph-name="Ncaron" unicode="&#x147;" horiz-adv-x="773" d="M91 19 L91 692 Q91 699 96.5 704.5 Q102 710 110 710 L135 710 L551 268 L552 268 L552 681 Q552 689 557.5 694.5 Q563 700 571 700 L663 700 Q670 700 676 694 Q682 688 682 681 L682 8 Q682 1 676.5 -4.5 Q671 -10 663 -10 L639 -10 L221 449 L220 449 L220 19 Q220 11 214.5 5.5 Q209 0 201 0 L110 0 Q102 0 96.5 6 Q91 12 91 19 Z M374 764 L244 865 Q231 874 238 884 L264 921 Q273 932 287 924 L384 863 L482 924 Q496 932 505 921 L531 884 Q538 874 525 865 L395 764 Q385 756 374 764 Z " />
<glyph glyph-name="Ncommaaccent" unicode="&#x145;" horiz-adv-x="773" d="M91 19 L91 692 Q91 699 96.5 704.5 Q102 710 110 710 L135 710 L551 268 L552 268 L552 681 Q552 689 557.5 694.5 Q563 700 571 700 L663 700 Q670 700 676 694 Q682 688 682 681 L682 8 Q682 1 676.5 -4.5 Q671 -10 663 -10 L639 -10 L221 449 L220 449 L220 19 Q220 11 214.5 5.5 Q209 0 201 0 L110 0 Q102 0 96.5 6 Q91 12 91 19 Z M399 -91 Q432 -91 457 -116.5 Q482 -142 482 -198 Q482 -299 392 -379 Q379 -389 369 -378 L354 -364 Q344 -352 357 -341 Q367 -334 379.5 -322 Q392 -310 408.5 -280 Q425 -250 425 -219 L423 -220 Q421 -220 418.5 -221 Q416 -222 412 -222.5 Q408 -223 403.5 -223.5 Q399 -224 394 -224 Q367 -224 347 -204.5 Q327 -185 327 -158 Q327 -130 347.5 -110.5 Q368 -91 399 -91 Z " />
<glyph glyph-name="Omacron" unicode="&#x14c;" horiz-adv-x="800" d="M145.5 94.5 Q41 199 41 349 Q41 499 145.5 604.5 Q250 710 400 710 Q550 710 655 604.5 Q760 499 760 349 Q760 199 655 94.5 Q550 -10 400 -10 Q250 -10 145.5 94.5 Z M238.5 512 Q171 444 171 349 Q171 254 238.5 187 Q306 120 400 120 Q495 120 562.5 187.5 Q630 255 630 349 Q630 444 562 512 Q494 580 400 580 Q306 580 238.5 512 Z M272 808 Q264 808 258.5 813 Q253 818 253 826 L253 860 Q253 879 272 879 L528 879 Q547 879 547 860 L547 826 Q547 818 541.5 813 Q536 808 528 808 L272 808 Z " />
<glyph glyph-name="Obreve" unicode="&#x14e;" horiz-adv-x="800" d="M145.5 94.5 Q41 199 41 349 Q41 499 145.5 604.5 Q250 710 400 710 Q550 710 655 604.5 Q760 499 760 349 Q760 199 655 94.5 Q550 -10 400 -10 Q250 -10 145.5 94.5 Z M238.5 512 Q171 444 171 349 Q171 254 238.5 187 Q306 120 400 120 Q495 120 562.5 187.5 Q630 255 630 349 Q630 444 562 512 Q494 580 400 580 Q306 580 238.5 512 Z M400 766 Q346 766 307 799.5 Q268 833 260 884 Q258 893 263.5 899 Q269 905 278 905 L315 905 Q328 905 332 891 Q340 868 358 853 Q376 838 400 838 Q421 838 439.5 853.5 Q458 869 466 891 Q469 905 483 905 L522 905 Q531 905 536 899 Q541 893 540 884 Q532 833 492.5 799.5 Q453 766 400 766 Z " />
<glyph glyph-name="Ohungarumlaut" unicode="&#x150;" horiz-adv-x="800" d="M145.5 94.5 Q41 199 41 349 Q41 499 145.5 604.5 Q250 710 400 710 Q550 710 655 604.5 Q760 499 760 349 Q760 199 655 94.5 Q550 -10 400 -10 Q250 -10 145.5 94.5 Z M238.5 512 Q171 444 171 349 Q171 254 238.5 187 Q306 120 400 120 Q495 120 562.5 187.5 Q630 255 630 349 Q630 444 562 512 Q494 580 400 580 Q306 580 238.5 512 Z M479 768 Q468 768 463 773.5 Q458 779 460 787 L497 928 Q503 947 516 947 L592 947 Q606 947 611 939 Q616 931 610 922 L532 783 Q524 768 514 768 L479 768 Z M313 768 Q302 768 297 773.5 Q292 779 294 787 L331 928 Q337 947 350 947 L426 947 Q440 947 445 939.5 Q450 932 444 922 L366 783 Q358 768 348 768 L313 768 Z " />
<glyph glyph-name="Oslashacute" unicode="&#x1fe;" horiz-adv-x="799" d="M63 23 Q50 36 62 49 L127 113 Q41 213 41 349 Q41 499 145.5 604.5 Q250 710 400 710 Q533 710 636 622 L704 689 Q717 702 730 689 L740 679 Q752 667 740 653 L672 585 Q760 482 760 350 Q760 200 655 95 Q550 -10 400 -10 Q262 -10 164 77 L99 12 Q86 0 73 13 L63 23 Z M221 207 L544 529 Q478 580 400 580 Q306 580 238.5 512 Q171 444 171 349 Q171 270 221 207 Z M257 170 Q320 120 400 120 Q494 120 562 188 Q630 256 630 350 Q630 431 579 492 L257 170 Z M330 768 Q312 760 305 775 L287 810 Q281 822 293 829 L457 927 Q475 938 483 924 L511 872 Q522 853 505 845 L330 768 Z " />
<glyph glyph-name="Racute" unicode="&#x154;" horiz-adv-x="666" d="M91 19 L91 681 Q91 689 96.5 694.5 Q102 700 110 700 L396 700 Q486 700 550 637 Q614 574 614 485 Q614 417 573.5 363.5 Q533 310 466 283 L603 29 Q609 19 603.5 9.5 Q598 0 586 0 L481 0 Q470 0 465 9 L332 274 L221 274 L221 19 Q221 12 215.5 6 Q210 0 202 0 L110 0 Q102 0 96.5 5.5 Q91 11 91 19 Z M222 381 L385 381 Q425 381 454.5 411 Q484 441 484 483 Q484 523 454.5 551.5 Q425 580 385 580 L222 580 L222 381 Z M258 768 Q240 760 233 775 L215 810 Q209 822 221 829 L385 927 Q403 938 411 924 L439 872 Q450 853 433 845 L258 768 Z " />
<glyph glyph-name="Rcaron" unicode="&#x158;" horiz-adv-x="666" d="M91 19 L91 681 Q91 689 96.5 694.5 Q102 700 110 700 L396 700 Q486 700 550 637 Q614 574 614 485 Q614 417 573.5 363.5 Q533 310 466 283 L603 29 Q609 19 603.5 9.5 Q598 0 586 0 L481 0 Q470 0 465 9 L332 274 L221 274 L221 19 Q221 12 215.5 6 Q210 0 202 0 L110 0 Q102 0 96.5 5.5 Q91 11 91 19 Z M222 381 L385 381 Q425 381 454.5 411 Q484 441 484 483 Q484 523 454.5 551.5 Q425 580 385 580 L222 580 L222 381 Z M313 764 L183 865 Q170 874 177 884 L203 921 Q212 932 226 924 L323 863 L421 924 Q435 932 444 921 L470 884 Q477 874 464 865 L334 764 Q324 756 313 764 Z " />
<glyph glyph-name="Rcommaaccent" unicode="&#x156;" horiz-adv-x="666" d="M91 19 L91 681 Q91 689 96.5 694.5 Q102 700 110 700 L396 700 Q486 700 550 637 Q614 574 614 485 Q614 417 573.5 363.5 Q533 310 466 283 L603 29 Q609 19 603.5 9.5 Q598 0 586 0 L481 0 Q470 0 465 9 L332 274 L221 274 L221 19 Q221 12 215.5 6 Q210 0 202 0 L110 0 Q102 0 96.5 5.5 Q91 11 91 19 Z M222 381 L385 381 Q425 381 454.5 411 Q484 441 484 483 Q484 523 454.5 551.5 Q425 580 385 580 L222 580 L222 381 Z M338 -91 Q371 -91 396 -116.5 Q421 -142 421 -198 Q421 -299 331 -379 Q318 -389 308 -378 L293 -364 Q283 -352 296 -341 Q306 -334 318.5 -322 Q331 -310 347.5 -280 Q364 -250 364 -219 L362 -220 Q360 -220 357.5 -221 Q355 -222 351 -222.5 Q347 -223 342.5 -223.5 Q338 -224 333 -224 Q306 -224 286 -204.5 Q266 -185 266 -158 Q266 -130 286.5 -110.5 Q307 -91 338 -91 Z " />
<glyph glyph-name="Sacute" unicode="&#x15a;" horiz-adv-x="542" d="M55 68 Q41 82 50 98 L86 160 Q92 170 103 171.5 Q114 173 120 167 L125 164 Q130 160 136.5 156 Q143 152 153 146 Q163 140 173 134.5 Q183 129 196 123.5 Q209 118 221 114 Q233 110 246 107.5 Q259 105 271 105 Q310 105 336 127.5 Q362 150 362 182 Q362 219 331 247.5 Q300 276 235 302 Q151 336 99 387 Q47 438 47 518 Q47 594 104.5 652 Q162 710 272 710 Q383 710 472 643 Q479 639 481 628 Q483 617 478 610 L440 553 Q424 529 405 541 Q317 596 266 596 Q226 596 202 574 Q178 552 178 526 Q178 491 206 465 Q234 439 296 414 Q339 397 370.5 379.5 Q402 362 435.5 335.5 Q469 309 487 271.5 Q505 234 505 188 Q505 107 441 48.5 Q377 -10 275 -10 Q218 -10 166.5 7 Q115 24 93 38.5 Q71 53 55 68 Z M203 768 Q185 760 178 775 L160 810 Q154 822 166 829 L330 927 Q348 938 356 924 L384 872 Q395 853 378 845 L203 768 Z " />
<glyph glyph-name="Scircumflex" unicode="&#x15c;" horiz-adv-x="542" d="M55 68 Q41 82 50 98 L86 160 Q92 170 103 171.5 Q114 173 120 167 L125 164 Q130 160 136.5 156 Q143 152 153 146 Q163 140 173 134.5 Q183 129 196 123.5 Q209 118 221 114 Q233 110 246 107.5 Q259 105 271 105 Q310 105 336 127.5 Q362 150 362 182 Q362 219 331 247.5 Q300 276 235 302 Q151 336 99 387 Q47 438 47 518 Q47 594 104.5 652 Q162 710 272 710 Q383 710 472 643 Q479 639 481 628 Q483 617 478 610 L440 553 Q424 529 405 541 Q317 596 266 596 Q226 596 202 574 Q178 552 178 526 Q178 491 206 465 Q234 439 296 414 Q339 397 370.5 379.5 Q402 362 435.5 335.5 Q469 309 487 271.5 Q505 234 505 188 Q505 107 441 48.5 Q377 -10 275 -10 Q218 -10 166.5 7 Q115 24 93 38.5 Q71 53 55 68 Z M173 766 Q159 758 150 769 L124 806 Q117 816 130 825 L260 926 Q270 934 281 926 L411 825 Q424 816 417 806 L391 769 Q382 758 368 766 L271 827 L173 766 Z " />
<glyph glyph-name="Scedilla" unicode="&#x15e;" horiz-adv-x="543" d="M55 68 Q41 82 50 98 L86 160 Q92 170 103 171.5 Q114 173 120 167 L125 164 Q130 160 136.5 156 Q143 152 153 146 Q163 140 173 134.5 Q183 129 196 123.5 Q209 118 221 114 Q233 110 246 107.5 Q259 105 271 105 Q310 105 336 127.5 Q362 150 362 182 Q362 219 331 247.5 Q300 276 235 302 Q151 336 99 387 Q47 438 47 518 Q47 594 104.5 652 Q162 710 272 710 Q383 710 472 643 Q479 639 481 628 Q483 617 478 610 L440 553 Q424 529 405 541 Q317 596 266 596 Q226 596 202 574 Q178 552 178 526 Q178 491 206 465 Q234 439 296 414 Q339 397 370.5 379.5 Q402 362 435.5 335.5 Q469 309 487 271.5 Q505 234 505 188 Q505 108 442.5 49.5 Q380 -9 280 -10 L280 -52 Q326 -58 351.5 -85.5 Q377 -113 377 -155 Q377 -199 346 -229.5 Q315 -260 271 -260 Q225 -260 195 -225 Q182 -211 198 -197 L218 -180 Q229 -169 239 -181 Q250 -193 269 -193 Q284 -193 294 -182 Q304 -171 304 -156 Q304 -113 231 -107 Q214 -105 214 -89 L214 -5 Q112 11 55 68 Z " />
<glyph glyph-name="Scommaaccent" unicode="&#x218;" horiz-adv-x="542" d="M55 68 Q41 82 50 98 L86 160 Q92 170 103 171.5 Q114 173 120 167 L125 164 Q130 160 136.5 156 Q143 152 153 146 Q163 140 173 134.5 Q183 129 196 123.5 Q209 118 221 114 Q233 110 246 107.5 Q259 105 271 105 Q310 105 336 127.5 Q362 150 362 182 Q362 219 331 247.5 Q300 276 235 302 Q151 336 99 387 Q47 438 47 518 Q47 594 104.5 652 Q162 710 272 710 Q383 710 472 643 Q479 639 481 628 Q483 617 478 610 L440 553 Q424 529 405 541 Q317 596 266 596 Q226 596 202 574 Q178 552 178 526 Q178 491 206 465 Q234 439 296 414 Q339 397 370.5 379.5 Q402 362 435.5 335.5 Q469 309 487 271.5 Q505 234 505 188 Q505 107 441 48.5 Q377 -10 275 -10 Q218 -10 166.5 7 Q115 24 93 38.5 Q71 53 55 68 Z M275 -91 Q308 -91 333 -116.5 Q358 -142 358 -198 Q358 -299 268 -379 Q255 -389 245 -378 L230 -364 Q220 -352 233 -341 Q243 -334 255.5 -322 Q268 -310 284.5 -280 Q301 -250 301 -219 L299 -220 Q297 -220 294.5 -221 Q292 -222 288 -222.5 Q284 -223 279.5 -223.5 Q275 -224 270 -224 Q243 -224 223 -204.5 Q203 -185 203 -158 Q203 -130 223.5 -110.5 Q244 -91 275 -91 Z " />
<glyph glyph-name="Tcaron" unicode="&#x164;" horiz-adv-x="501" d="M185 19 L185 580 L32 580 Q24 580 18.5 585.5 Q13 591 13 599 L13 681 Q13 689 18.5 694.5 Q24 700 32 700 L469 700 Q477 700 482.5 694.5 Q488 689 488 681 L488 599 Q488 591 482.5 585.5 Q477 580 469 580 L316 580 L316 19 Q316 12 310 6 Q304 0 297 0 L204 0 Q196 0 190.5 6 Q185 12 185 19 Z M239 764 L109 865 Q96 874 103 884 L129 921 Q138 932 152 924 L249 863 L347 924 Q361 932 370 921 L396 884 Q403 874 390 865 L260 764 Q250 756 239 764 Z " />
<glyph glyph-name="Tcommaaccent" unicode="&#x162;" horiz-adv-x="501" d="M185 19 L185 580 L32 580 Q24 580 18.5 585.5 Q13 591 13 599 L13 681 Q13 689 18.5 694.5 Q24 700 32 700 L469 700 Q477 700 482.5 694.5 Q488 689 488 681 L488 599 Q488 591 482.5 585.5 Q477 580 469 580 L316 580 L316 19 Q316 12 310 6 Q304 0 297 0 L204 0 Q196 0 190.5 6 Q185 12 185 19 Z M245 -91 Q278 -91 303 -116.5 Q328 -142 328 -198 Q328 -299 238 -379 Q225 -389 215 -378 L200 -364 Q190 -352 203 -341 Q213 -334 225.5 -322 Q238 -310 254.5 -280 Q271 -250 271 -219 L269 -220 Q267 -220 264.5 -221 Q262 -222 258 -222.5 Q254 -223 249.5 -223.5 Q245 -224 240 -224 Q213 -224 193 -204.5 Q173 -185 173 -158 Q173 -130 193.5 -110.5 Q214 -91 245 -91 Z " />
<glyph glyph-name="uni021A" unicode="&#x21a;" horiz-adv-x="501" d="M185 19 L185 580 L32 580 Q24 580 18.5 585.5 Q13 591 13 599 L13 681 Q13 689 18.5 694.5 Q24 700 32 700 L469 700 Q477 700 482.5 694.5 Q488 689 488 681 L488 599 Q488 591 482.5 585.5 Q477 580 469 580 L316 580 L316 19 Q316 12 310 6 Q304 0 297 0 L204 0 Q196 0 190.5 6 Q185 12 185 19 Z M246 -91 Q279 -91 304 -116.5 Q329 -142 329 -198 Q329 -299 239 -379 Q226 -389 216 -378 L201 -364 Q191 -352 204 -341 Q214 -334 226.5 -322 Q239 -310 255.5 -280 Q272 -250 272 -219 L270 -220 Q268 -220 265.5 -221 Q263 -222 259 -222.5 Q255 -223 250.5 -223.5 Q246 -224 241 -224 Q214 -224 194 -204.5 Q174 -185 174 -158 Q174 -130 194.5 -110.5 Q215 -91 246 -91 Z " />
<glyph glyph-name="Tbar" unicode="&#x166;" horiz-adv-x="501" d="M185 19 L185 291 L91 291 Q84 291 78.5 296.5 Q73 302 73 310 L73 323 Q73 331 78.5 336.5 Q84 342 91 342 L185 342 L185 580 L32 580 Q24 580 18.5 585.5 Q13 591 13 599 L13 681 Q13 689 18.5 694.5 Q24 700 32 700 L469 700 Q477 700 482.5 694.5 Q488 689 488 681 L488 599 Q488 591 482.5 585.5 Q477 580 469 580 L316 580 L316 342 L414 342 Q422 342 427.5 336.5 Q433 331 433 323 L433 309 Q433 301 427.5 296 Q422 291 414 291 L316 291 L316 19 Q316 12 310 6 Q304 0 297 0 L204 0 Q196 0 190.5 6 Q185 12 185 19 Z " />
<glyph glyph-name="Utilde" unicode="&#x168;" horiz-adv-x="721" d="M82 265 L82 681 Q82 688 88 694 Q94 700 101 700 L196 700 Q204 700 209.5 694.5 Q215 689 215 681 L215 272 Q215 207 255.5 163.5 Q296 120 360 120 Q424 120 465 163.5 Q506 207 506 271 L506 681 Q506 689 511.5 694.5 Q517 700 525 700 L620 700 Q628 700 633.5 694 Q639 688 639 681 L639 265 Q639 150 558.5 70 Q478 -10 360 -10 Q243 -10 162.5 70 Q82 150 82 265 Z M241 789 L212 810 Q200 819 206 833 Q214 848 218.5 855 Q223 862 237.5 880.5 Q252 899 270.5 908 Q289 917 310 917 Q338 917 369 889.5 Q400 862 417 862 Q429 862 438 871.5 Q447 881 451.5 890.5 Q456 900 464.5 905.5 Q473 911 482 903 L510 883 Q523 873 511 852 Q481 800 451 785 Q434 776 414 776 Q386 776 352.5 804 Q319 832 305 832 Q290 832 280 817 Q270 802 262 791.5 Q254 781 241 789 Z " />
<glyph glyph-name="Umacron" unicode="&#x16a;" horiz-adv-x="721" d="M82 265 L82 681 Q82 688 88 694 Q94 700 101 700 L196 700 Q204 700 209.5 694.5 Q215 689 215 681 L215 272 Q215 207 255.5 163.5 Q296 120 360 120 Q424 120 465 163.5 Q506 207 506 271 L506 681 Q506 689 511.5 694.5 Q517 700 525 700 L620 700 Q628 700 633.5 694 Q639 688 639 681 L639 265 Q639 150 558.5 70 Q478 -10 360 -10 Q243 -10 162.5 70 Q82 150 82 265 Z M233 808 Q225 808 219.5 813 Q214 818 214 826 L214 860 Q214 879 233 879 L489 879 Q508 879 508 860 L508 826 Q508 818 502.5 813 Q497 808 489 808 L233 808 Z " />
<glyph glyph-name="Ubreve" unicode="&#x16c;" horiz-adv-x="721" d="M82 265 L82 681 Q82 688 88 694 Q94 700 101 700 L196 700 Q204 700 209.5 694.5 Q215 689 215 681 L215 272 Q215 207 255.5 163.5 Q296 120 360 120 Q424 120 465 163.5 Q506 207 506 271 L506 681 Q506 689 511.5 694.5 Q517 700 525 700 L620 700 Q628 700 633.5 694 Q639 688 639 681 L639 265 Q639 150 558.5 70 Q478 -10 360 -10 Q243 -10 162.5 70 Q82 150 82 265 Z M362 766 Q308 766 269 799.5 Q230 833 222 884 Q220 893 225.5 899 Q231 905 240 905 L277 905 Q290 905 294 891 Q302 868 320 853 Q338 838 362 838 Q383 838 401.5 853.5 Q420 869 428 891 Q431 905 445 905 L484 905 Q493 905 498 899 Q503 893 502 884 Q494 833 454.5 799.5 Q415 766 362 766 Z " />
<glyph glyph-name="Uring" unicode="&#x16e;" horiz-adv-x="721" d="M82 265 L82 681 Q82 688 88 694 Q94 700 101 700 L196 700 Q204 700 209.5 694.5 Q215 689 215 681 L215 272 Q215 207 255.5 163.5 Q296 120 360 120 Q424 120 465 163.5 Q506 207 506 271 L506 681 Q506 689 511.5 694.5 Q517 700 525 700 L620 700 Q628 700 633.5 694 Q639 688 639 681 L639 265 Q639 150 558.5 70 Q478 -10 360 -10 Q243 -10 162.5 70 Q82 150 82 265 Z M442 787 Q409 754 362 754 Q315 754 282 787 Q249 820 249 867 Q249 914 282 947 Q315 980 362 980 Q409 980 442 947 Q475 914 475 867 Q475 820 442 787 Z M362 817 Q381 817 395.5 832 Q410 847 410 867 Q410 886 396 900.5 Q382 915 362 915 Q342 915 327 900.5 Q312 886 312 867 Q312 848 327 832.5 Q342 817 362 817 Z " />
<glyph glyph-name="Uhungarumlaut" unicode="&#x170;" horiz-adv-x="721" d="M82 265 L82 681 Q82 688 88 694 Q94 700 101 700 L196 700 Q204 700 209.5 694.5 Q215 689 215 681 L215 272 Q215 207 255.5 163.5 Q296 120 360 120 Q424 120 465 163.5 Q506 207 506 271 L506 681 Q506 689 511.5 694.5 Q517 700 525 700 L620 700 Q628 700 633.5 694 Q639 688 639 681 L639 265 Q639 150 558.5 70 Q478 -10 360 -10 Q243 -10 162.5 70 Q82 150 82 265 Z M432 768 Q421 768 416 773.5 Q411 779 413 787 L450 928 Q456 947 469 947 L545 947 Q559 947 564 939 Q569 931 563 922 L485 783 Q478 768 467 768 L432 768 Z M266 768 Q255 768 250 773.5 Q245 779 247 787 L284 928 Q290 947 303 947 L379 947 Q393 947 398 939.5 Q403 932 397 922 L319 783 Q312 768 301 768 L266 768 Z " />
<glyph glyph-name="Uogonek" unicode="&#x172;" horiz-adv-x="725" d="M84 265 L84 681 Q84 688 90 694 Q96 700 103 700 L198 700 Q206 700 211.5 694.5 Q217 689 217 681 L217 272 Q217 207 257.5 163.5 Q298 120 362 120 Q426 120 467 163.5 Q508 207 508 271 L508 681 Q508 689 513.5 694.5 Q519 700 527 700 L622 700 Q630 700 635.5 694 Q641 688 641 681 L641 265 Q641 156 568 77.5 Q495 -1 385 -9 Q348 -53 348 -96 Q348 -123 365.5 -141.5 Q383 -160 414 -160 Q424 -160 460 -151 Q468 -149 474 -154 Q480 -159 480 -168 L480 -198 Q480 -211 466 -217 Q426 -227 400 -227 Q345 -227 309 -199 Q273 -171 273 -117 Q273 -57 321 -7 Q218 7 151 84 Q84 161 84 265 Z " />
<glyph glyph-name="Wacute" unicode="&#x1e82;" horiz-adv-x="899" d="M218 4 L29 676 Q26 686 31 693 Q36 700 47 700 L139 700 Q153 700 157 686 L261 287 L265 287 L424 699 Q428 710 441 710 L459 710 Q472 710 476 699 L636 287 L640 287 L742 686 Q746 700 760 700 L852 700 Q863 700 868 693 Q873 686 870 676 L681 4 Q678 -10 663 -10 L647 -10 Q634 -10 630 1 L451 454 L446 454 L269 1 Q264 -10 252 -10 L236 -10 Q222 -10 218 4 Z M379 768 Q361 760 354 775 L336 810 Q330 822 342 829 L506 927 Q524 938 532 924 L560 872 Q571 853 554 845 L379 768 Z " />
<glyph glyph-name="Wcircumflex" unicode="&#x174;" horiz-adv-x="899" d="M218 4 L29 676 Q26 686 31 693 Q36 700 47 700 L139 700 Q153 700 157 686 L261 287 L265 287 L424 699 Q428 710 441 710 L459 710 Q472 710 476 699 L636 287 L640 287 L742 686 Q746 700 760 700 L852 700 Q863 700 868 693 Q873 686 870 676 L681 4 Q678 -10 663 -10 L647 -10 Q634 -10 630 1 L451 454 L446 454 L269 1 Q264 -10 252 -10 L236 -10 Q222 -10 218 4 Z M352 766 Q338 758 329 769 L303 806 Q296 816 309 825 L439 926 Q449 934 460 926 L590 825 Q603 816 596 806 L570 769 Q561 758 547 766 L450 827 L352 766 Z " />
<glyph glyph-name="Wdieresis" unicode="&#x1e84;" horiz-adv-x="899" d="M218 4 L29 676 Q26 686 31 693 Q36 700 47 700 L139 700 Q153 700 157 686 L261 287 L265 287 L424 699 Q428 710 441 710 L459 710 Q472 710 476 699 L636 287 L640 287 L742 686 Q746 700 760 700 L852 700 Q863 700 868 693 Q873 686 870 676 L681 4 Q678 -10 663 -10 L647 -10 Q634 -10 630 1 L451 454 L446 454 L269 1 Q264 -10 252 -10 L236 -10 Q222 -10 218 4 Z M617 794 Q598 775 572 775 Q546 775 527.5 794 Q509 813 509 839 Q509 865 527.5 883.5 Q546 902 572 902 Q598 902 617 883.5 Q636 865 636 839 Q636 813 617 794 Z M370 794 Q351 775 325 775 Q299 775 280.5 794 Q262 813 262 839 Q262 865 280.5 883.5 Q299 902 325 902 Q351 902 370 883.5 Q389 865 389 839 Q389 813 370 794 Z " />
<glyph glyph-name="Wgrave" unicode="&#x1e80;" horiz-adv-x="899" d="M218 4 L29 676 Q26 686 31 693 Q36 700 47 700 L139 700 Q153 700 157 686 L261 287 L265 287 L424 699 Q428 710 441 710 L459 710 Q472 710 476 699 L636 287 L640 287 L742 686 Q746 700 760 700 L852 700 Q863 700 868 693 Q873 686 870 676 L681 4 Q678 -10 663 -10 L647 -10 Q634 -10 630 1 L451 454 L446 454 L269 1 Q264 -10 252 -10 L236 -10 Q222 -10 218 4 Z M520 768 L345 845 Q328 853 339 872 L367 924 Q375 938 393 927 L557 829 Q569 822 563 810 L545 775 Q538 760 520 768 Z " />
<glyph glyph-name="Ycircumflex" unicode="&#x176;" horiz-adv-x="583" d="M225 19 L225 337 L-3 671 Q-9 681 -4 690.5 Q1 700 13 700 L115 700 Q124 700 131 691 L291 461 L451 691 Q458 700 467 700 L570 700 Q582 700 587 690.5 Q592 681 586 671 L355 338 L355 19 Q355 12 349.5 6 Q344 0 336 0 L244 0 Q236 0 230.5 5.5 Q225 11 225 19 Z M194 766 Q180 758 171 769 L145 806 Q138 816 151 825 L281 926 Q291 934 302 926 L432 825 Q445 816 438 806 L412 769 Q403 758 389 766 L292 827 L194 766 Z " />
<glyph glyph-name="Ygrave" unicode="&#x1ef2;" horiz-adv-x="583" d="M225 19 L225 337 L-3 671 Q-9 681 -4 690.5 Q1 700 13 700 L115 700 Q124 700 131 691 L291 461 L451 691 Q458 700 467 700 L570 700 Q582 700 587 690.5 Q592 681 586 671 L355 338 L355 19 Q355 12 349.5 6 Q344 0 336 0 L244 0 Q236 0 230.5 5.5 Q225 11 225 19 Z M362 768 L187 845 Q170 853 181 872 L209 924 Q217 938 235 927 L399 829 Q411 822 405 810 L387 775 Q380 760 362 768 Z " />
<glyph glyph-name="Zacute" unicode="&#x179;" horiz-adv-x="538" d="M25 19 L25 37 L323 575 L323 579 L73 579 Q66 579 60 584.5 Q54 590 54 598 L54 681 Q54 688 60 694 Q66 700 73 700 L491 700 Q498 700 504 694 Q510 688 510 681 L510 668 L216 123 L216 121 L471 121 Q479 121 484.5 115.5 Q490 110 490 102 L490 19 Q490 11 484.5 5.5 Q479 0 471 0 L44 0 Q36 0 30.5 6 Q25 12 25 19 Z M214 768 Q196 760 189 775 L171 810 Q165 822 177 829 L341 927 Q359 938 367 924 L395 872 Q406 853 389 845 L214 768 Z " />
<glyph glyph-name="Zdotaccent" unicode="&#x17b;" horiz-adv-x="538" d="M25 19 L25 37 L323 575 L323 579 L73 579 Q66 579 60 584.5 Q54 590 54 598 L54 681 Q54 688 60 694 Q66 700 73 700 L491 700 Q498 700 504 694 Q510 688 510 681 L510 668 L216 123 L216 121 L471 121 Q479 121 484.5 115.5 Q490 110 490 102 L490 19 Q490 11 484.5 5.5 Q479 0 471 0 L44 0 Q36 0 30.5 6 Q25 12 25 19 Z M332 802 Q311 781 281 781 Q251 781 230 802 Q209 823 209 853 Q209 883 230 904 Q251 925 281 925 Q311 925 332 904 Q353 883 353 853 Q353 823 332 802 Z " />
<glyph glyph-name="amacron" unicode="&#x101;" horiz-adv-x="426" d="M31 127 Q31 182 74 217.5 Q117 253 191 253 Q209 253 227 250.5 Q245 248 254 245 L264 242 Q265 280 252.5 295.5 Q240 311 212 311 Q149 311 100 296 Q81 290 77 314 L68 366 Q64 385 82 391 Q88 393 106 397 Q124 401 156.5 405.5 Q189 410 218 410 Q307 410 339.5 367.5 Q372 325 372 236 L372 19 Q372 12 366 6 Q360 0 353 0 L317 0 Q306 0 300 14 L288 41 Q232 -10 166 -10 Q105 -10 68 27 Q31 64 31 127 Z M141 127 Q141 104 155.5 89.5 Q170 75 193 75 Q215 75 235.5 89 Q256 103 262 114 L262 169 Q235 181 206 181 Q177 181 159 166 Q141 151 141 127 Z M89 570 Q81 570 75.5 575 Q70 580 70 588 L70 622 Q70 641 89 641 L345 641 Q364 641 364 622 L364 588 Q364 580 358.5 575 Q353 570 345 570 L89 570 Z " />
<glyph glyph-name="abreve" unicode="&#x103;" horiz-adv-x="426" d="M31 127 Q31 182 74 217.5 Q117 253 191 253 Q209 253 227 250.5 Q245 248 254 245 L264 242 Q265 280 252.5 295.5 Q240 311 212 311 Q149 311 100 296 Q81 290 77 314 L68 366 Q64 385 82 391 Q88 393 106 397 Q124 401 156.5 405.5 Q189 410 218 410 Q307 410 339.5 367.5 Q372 325 372 236 L372 19 Q372 12 366 6 Q360 0 353 0 L317 0 Q306 0 300 14 L288 41 Q232 -10 166 -10 Q105 -10 68 27 Q31 64 31 127 Z M141 127 Q141 104 155.5 89.5 Q170 75 193 75 Q215 75 235.5 89 Q256 103 262 114 L262 169 Q235 181 206 181 Q177 181 159 166 Q141 151 141 127 Z M224 528 Q170 528 131 561.5 Q92 595 84 646 Q82 655 87 661.5 Q92 668 102 668 L139 668 Q152 668 156 654 Q164 630 182 615.5 Q200 601 224 601 Q246 601 264 616.5 Q282 632 290 654 Q294 668 307 668 L346 668 Q355 668 360 661.5 Q365 655 364 646 Q356 595 316.5 561.5 Q277 528 224 528 Z " />
<glyph glyph-name="aringacute" unicode="&#x1fb;" horiz-adv-x="426" d="M31 127 Q31 182 74 217.5 Q117 253 191 253 Q209 253 227 250.5 Q245 248 254 245 L264 242 Q265 280 252.5 295.5 Q240 311 212 311 Q149 311 100 296 Q81 290 77 314 L68 366 Q64 385 82 391 Q88 393 106 397 Q124 401 156.5 405.5 Q189 410 218 410 Q307 410 339.5 367.5 Q372 325 372 236 L372 19 Q372 12 366 6 Q360 0 353 0 L317 0 Q306 0 300 14 L288 41 Q232 -10 166 -10 Q105 -10 68 27 Q31 64 31 127 Z M141 127 Q141 104 155.5 89.5 Q170 75 193 75 Q215 75 235.5 89 Q256 103 262 114 L262 169 Q235 181 206 181 Q177 181 159 166 Q141 151 141 127 Z M299 460 Q266 427 219 427 Q172 427 139 460 Q106 493 106 540 Q106 587 139 620 Q172 653 219 653 Q266 653 299 620 Q332 587 332 540 Q332 493 299 460 Z M184.5 505 Q200 490 219 490 Q238 490 252.5 505 Q267 520 267 540 Q267 560 252.5 574 Q238 588 219 588 Q199 588 184 573.5 Q169 559 169 540 Q169 520 184.5 505 Z M148 662 Q129 655 122 668 L105 704 Q99 715 111 723 L274 820 Q292 832 300 817 L329 766 Q338 746 323 739 L148 662 Z " />
<glyph glyph-name="aogonek" unicode="&#x105;" horiz-adv-x="426" d="M30 127 Q30 182 73 217.5 Q116 253 190 253 Q208 253 226 250.5 Q244 248 254 245 L263 242 Q264 282 251 300.5 Q238 319 205 319 Q173 319 99 303 Q79 299 76 321 L67 366 Q63 385 81 391 Q87 393 105 397 Q123 401 155.5 405.5 Q188 410 217 410 Q306 410 338.5 367.5 Q371 325 371 236 L371 19 Q371 12 365.5 6 Q360 0 352 0 L348 0 Q303 -45 303 -96 Q303 -123 320.5 -141.5 Q338 -160 369 -160 Q379 -160 415 -151 Q423 -149 429 -154 Q435 -159 435 -168 L435 -198 Q435 -211 421 -217 Q381 -227 355 -227 Q300 -227 264 -199 Q228 -171 228 -117 Q228 -82 246 -49.5 Q264 -17 278.5 -3.5 Q293 10 299 13 L287 41 Q231 -10 165 -10 Q104 -10 67 27 Q30 64 30 127 Z M140 127 Q140 104 154.5 88.5 Q169 73 192 73 Q214 73 235 88 Q256 103 261 117 L261 169 Q234 181 205 181 Q176 181 158 166 Q140 151 140 127 Z " />
<glyph glyph-name="aeacute" unicode="&#x1fd;" horiz-adv-x="670" d="M30 127 Q30 182 72 217.5 Q114 253 186 253 Q204 253 223 251 Q242 249 252 247 L262 245 Q260 286 249.5 302 Q239 318 207 318 Q159 318 98 302 Q79 300 75 318 L66 372 Q64 388 82 392 Q156 410 218 410 Q307 410 339 369 Q391 410 459 410 Q537 410 591.5 357.5 Q646 305 646 224 Q646 180 625 180 L370 180 Q374 146 400 119 Q426 92 465 92 Q506 92 544 118 Q561 129 570 118 L610 71 Q622 55 609 45 Q550 -10 460 -10 Q364 -10 310 55 Q292 32 254.5 11 Q217 -10 168 -10 Q106 -10 68 27 Q30 64 30 127 Z M379 251 L529 251 Q528 279 506.5 298.5 Q485 318 456 318 Q426 318 404.5 299 Q383 280 379 251 Z M140 130 Q140 106 156.5 91 Q173 76 196 76 Q216 76 232.5 86.5 Q249 97 256 108 L262 118 L262 170 Q235 183 200 183 Q175 183 157.5 168 Q140 153 140 130 Z M311 528 Q292 521 285 534 L268 570 Q262 581 274 589 L437 686 Q455 698 463 683 L492 632 Q501 612 486 605 L311 528 Z " />
<glyph glyph-name="cacute" unicode="&#x107;" horiz-adv-x="426" d="M29 200 Q29 287 93 348.5 Q157 410 242 410 Q331 410 390 339 Q402 323 385 311 L339 267 Q328 258 314 270 Q286 302 245 302 Q205 302 176 272 Q147 242 147 200 Q147 157 175 127.5 Q203 98 244 98 Q264 98 281 105 Q298 112 304 117 Q310 122 324 136 Q336 148 349 139 L392 102 Q409 88 399 74 Q345 -10 241 -10 Q155 -10 92 50.5 Q29 111 29 200 Z M171 528 Q152 521 145 534 L128 570 Q122 581 134 589 L297 686 Q315 698 323 683 L352 632 Q361 612 346 605 L171 528 Z " />
<glyph glyph-name="ccircumflex" unicode="&#x109;" horiz-adv-x="426" d="M29 200 Q29 287 93 348.5 Q157 410 242 410 Q331 410 390 339 Q402 323 385 311 L339 267 Q328 258 314 270 Q286 302 245 302 Q205 302 176 272 Q147 242 147 200 Q147 157 175 127.5 Q203 98 244 98 Q264 98 281 105 Q298 112 304 117 Q310 122 324 136 Q336 148 349 139 L392 102 Q409 88 399 74 Q345 -10 241 -10 Q155 -10 92 50.5 Q29 111 29 200 Z M121 529 L95 566 Q88 576 101 585 L231 686 Q241 694 252 686 L382 585 Q395 576 388 566 L362 529 Q353 518 339 526 L242 587 L144 526 Q130 518 121 529 Z " />
<glyph glyph-name="ccaron" unicode="&#x10d;" horiz-adv-x="426" d="M29 200 Q29 287 93 348.5 Q157 410 242 410 Q331 410 390 339 Q402 323 385 311 L339 267 Q328 258 314 270 Q286 302 245 302 Q205 302 176 272 Q147 242 147 200 Q147 157 175 127.5 Q203 98 244 98 Q264 98 281 105 Q298 112 304 117 Q310 122 324 136 Q336 148 349 139 L392 102 Q409 88 399 74 Q345 -10 241 -10 Q155 -10 92 50.5 Q29 111 29 200 Z M231 524 L101 625 Q88 634 95 644 L121 681 Q130 692 144 684 L241 623 L339 684 Q353 692 362 681 L388 644 Q395 634 382 625 L252 524 Q242 516 231 524 Z " />
<glyph glyph-name="cdotaccent" unicode="&#x10b;" horiz-adv-x="426" d="M29 200 Q29 287 93 348.5 Q157 410 242 410 Q331 410 390 339 Q402 323 385 311 L339 267 Q328 258 314 270 Q286 302 245 302 Q205 302 176 272 Q147 242 147 200 Q147 157 175 127.5 Q203 98 244 98 Q264 98 281 105 Q298 112 304 117 Q310 122 324 136 Q336 148 349 139 L392 102 Q409 88 399 74 Q345 -10 241 -10 Q155 -10 92 50.5 Q29 111 29 200 Z M293 557 Q272 536 242 536 Q212 536 191 557 Q170 578 170 608 Q170 638 191 659 Q212 680 242 680 Q272 680 293 659 Q314 638 314 608 Q314 578 293 557 Z " />
<glyph glyph-name="dcaron" unicode="&#x10f;" horiz-adv-x="530" d="M30 200 Q30 289 85 349.5 Q140 410 228 410 Q271 410 317 392 L317 681 Q317 688 322.5 694 Q328 700 336 700 L421 700 Q428 700 434 694 Q440 688 440 681 L440 19 Q440 12 434 6 Q428 0 421 0 L382 0 Q368 0 363 19 L353 50 Q348 43 337.5 33 Q327 23 293 6.5 Q259 -10 222 -10 Q141 -10 85.5 51.5 Q30 113 30 200 Z M173.5 272.5 Q146 243 146 200 Q146 157 172 127.5 Q198 98 237 98 Q272 98 293 118.5 Q314 139 321 163 L321 279 Q293 302 243 302 Q201 302 173.5 272.5 Z M576 423 L562 437 Q551 448 564 460 Q574 467 586.5 479 Q599 491 615.5 521 Q632 551 632 582 L630 582 Q628 581 625.5 580.5 Q623 580 619.5 579 Q616 578 611 577.5 Q606 577 602 577 Q574 577 554.5 596 Q535 615 535 643 Q535 671 555.5 690.5 Q576 710 606 710 Q639 710 664 684.5 Q689 659 689 603 Q689 502 599 422 Q586 413 576 423 Z " />
<glyph glyph-name="dslash" unicode="&#x111;" horiz-adv-x="500" d="M30 200 Q30 289 85 349.5 Q140 410 228 410 Q271 410 317 392 L317 533 L202 533 Q194 533 188.5 538 Q183 543 183 551 L183 565 Q183 573 188.5 578.5 Q194 584 202 584 L317 584 L317 681 Q317 688 322.5 694 Q328 700 336 700 L421 700 Q428 700 434 694 Q440 688 440 681 L440 584 L473 584 Q480 584 485.5 578.5 Q491 573 491 565 L491 552 Q491 544 485.5 538.5 Q480 533 473 533 L440 533 L440 19 Q440 12 434 6 Q428 0 421 0 L382 0 Q368 0 363 19 L353 50 Q348 43 337.5 33 Q327 23 293 6.5 Q259 -10 222 -10 Q141 -10 85.5 51.5 Q30 113 30 200 Z M146 200 Q146 157 172 127.5 Q198 98 237 98 Q272 98 293 118.5 Q314 139 321 163 L321 277 Q293 300 243 300 Q201 300 173.5 271 Q146 242 146 200 Z " />
<glyph glyph-name="ecaron" unicode="&#x11b;" horiz-adv-x="445" d="M30 200 Q30 286 88 348 Q146 410 234 410 Q312 410 366.5 357 Q421 304 421 224 Q421 211 419 197 Q417 180 400 180 L144 180 Q146 146 172.5 119.5 Q199 93 240 93 Q283 93 318 118 Q335 128 344 118 L385 71 Q399 57 384 45 Q325 -10 235 -10 Q146 -10 88 51 Q30 112 30 200 Z M153 250 L304 250 Q302 278 280.5 298 Q259 318 231 318 Q201 318 179 298.5 Q157 279 153 250 Z M221 524 L91 625 Q78 634 85 644 L111 681 Q120 692 134 684 L231 623 L329 684 Q343 692 352 681 L378 644 Q385 634 372 625 L242 524 Q232 516 221 524 Z " />
<glyph glyph-name="emacron" unicode="&#x113;" horiz-adv-x="445" d="M30 200 Q30 286 88 348 Q146 410 234 410 Q312 410 366.5 357 Q421 304 421 224 Q421 211 419 197 Q417 180 400 180 L144 180 Q146 146 172.5 119.5 Q199 93 240 93 Q283 93 318 118 Q335 128 344 118 L385 71 Q399 57 384 45 Q325 -10 235 -10 Q146 -10 88 51 Q30 112 30 200 Z M153 250 L304 250 Q302 278 280.5 298 Q259 318 231 318 Q201 318 179 298.5 Q157 279 153 250 Z M103 570 Q95 570 89.5 575 Q84 580 84 588 L84 622 Q84 641 103 641 L359 641 Q378 641 378 622 L378 588 Q378 580 372.5 575 Q367 570 359 570 L103 570 Z " />
<glyph glyph-name="ebreve" unicode="&#x115;" horiz-adv-x="445" d="M30 200 Q30 286 88 348 Q146 410 234 410 Q312 410 366.5 357 Q421 304 421 224 Q421 211 419 197 Q417 180 400 180 L144 180 Q146 146 172.5 119.5 Q199 93 240 93 Q283 93 318 118 Q335 128 344 118 L385 71 Q399 57 384 45 Q325 -10 235 -10 Q146 -10 88 51 Q30 112 30 200 Z M153 250 L304 250 Q302 278 280.5 298 Q259 318 231 318 Q201 318 179 298.5 Q157 279 153 250 Z M232 528 Q178 528 139 561.5 Q100 595 92 646 Q90 655 95 661.5 Q100 668 110 668 L147 668 Q160 668 164 654 Q172 630 190 615.5 Q208 601 232 601 Q254 601 272 616.5 Q290 632 298 654 Q302 668 315 668 L354 668 Q363 668 368 661.5 Q373 655 372 646 Q364 595 324.5 561.5 Q285 528 232 528 Z " />
<glyph glyph-name="edotaccent" unicode="&#x117;" horiz-adv-x="445" d="M30 200 Q30 286 88 348 Q146 410 234 410 Q312 410 366.5 357 Q421 304 421 224 Q421 211 419 197 Q417 180 400 180 L144 180 Q146 146 172.5 119.5 Q199 93 240 93 Q283 93 318 118 Q335 128 344 118 L385 71 Q399 57 384 45 Q325 -10 235 -10 Q146 -10 88 51 Q30 112 30 200 Z M153 250 L304 250 Q302 278 280.5 298 Q259 318 231 318 Q201 318 179 298.5 Q157 279 153 250 Z M283 557 Q262 536 232 536 Q202 536 181 557 Q160 578 160 608 Q160 638 181 659 Q202 680 232 680 Q262 680 283 659 Q304 638 304 608 Q304 578 283 557 Z " />
<glyph glyph-name="eogonek" unicode="&#x119;" horiz-adv-x="446" d="M153 -117 Q153 -57 201 -7 Q125 5 77.5 63 Q30 121 30 200 Q30 286 88 348 Q146 410 234 410 Q312 410 366.5 357 Q421 304 421 224 Q421 211 419 197 Q417 180 400 180 L144 180 Q146 146 172.5 119 Q199 92 240 92 Q282 92 318 118 Q337 129 344 118 Q352 110 364.5 95 Q377 80 385 71 Q399 57 384 45 Q338 2 266 -8 Q228 -50 228 -96 Q228 -123 245.5 -141.5 Q263 -160 294 -160 Q304 -160 340 -151 Q348 -149 354 -154 Q360 -159 360 -168 L360 -198 Q360 -211 346 -217 Q306 -227 280 -227 Q225 -227 189 -199 Q153 -171 153 -117 Z M153 250 L304 250 Q302 278 280.5 298 Q259 318 231 318 Q201 318 179 298.5 Q157 279 153 250 Z " />
<glyph glyph-name="gcircumflex" unicode="&#x11d;" horiz-adv-x="462" d="M18 30 Q18 52 25.5 71.5 Q33 91 44.5 103.5 Q56 116 67 125 Q78 134 86 138 L93 142 Q63 176 63 236 Q63 307 113.5 358.5 Q164 410 237 410 L419 410 Q438 410 438 391 L438 358 Q438 344 427 341 L371 323 Q375 320 382 312.5 Q389 305 400 279 Q411 253 411 221 Q411 159 363.5 111.5 Q316 64 240 64 Q218 64 191.5 68 Q165 72 160 72 Q148 72 135.5 61.5 Q123 51 123 34 Q123 19 134.5 9.5 Q146 0 163 0 L291 0 Q362 0 409 -38 Q456 -76 456 -140 Q456 -213 398.5 -261.5 Q341 -310 237 -310 Q135 -310 84 -269 Q33 -228 33 -173 Q33 -114 93 -78 L93 -75 Q80 -71 65.5 -62 Q51 -53 34.5 -28 Q18 -3 18 30 Z M190 282.5 Q170 262 170 231 Q170 200 190 179.5 Q210 159 240 159 Q271 159 290 179 Q309 199 309 231 Q309 263 290 283 Q271 303 240 303 Q210 303 190 282.5 Z M148 -151 Q148 -177 172 -193.5 Q196 -210 236 -210 Q278 -210 303.5 -192.5 Q329 -175 329 -147 Q329 -129 312 -113.5 Q295 -98 256 -98 Q219 -98 191 -102 Q148 -116 148 -151 Z M129 529 L103 566 Q96 576 109 585 L239 686 Q249 694 260 686 L390 585 Q403 576 396 566 L370 529 Q361 518 347 526 L250 587 L152 526 Q138 518 129 529 Z " />
<glyph glyph-name="gbreve" unicode="&#x11f;" horiz-adv-x="462" d="M18 30 Q18 52 25.5 71.5 Q33 91 44.5 103.5 Q56 116 67 125 Q78 134 86 138 L93 142 Q63 176 63 236 Q63 307 113.5 358.5 Q164 410 237 410 L419 410 Q438 410 438 391 L438 358 Q438 344 427 341 L371 323 Q375 320 382 312.5 Q389 305 400 279 Q411 253 411 221 Q411 159 363.5 111.5 Q316 64 240 64 Q218 64 191.5 68 Q165 72 160 72 Q148 72 135.5 61.5 Q123 51 123 34 Q123 19 134.5 9.5 Q146 0 163 0 L291 0 Q362 0 409 -38 Q456 -76 456 -140 Q456 -213 398.5 -261.5 Q341 -310 237 -310 Q135 -310 84 -269 Q33 -228 33 -173 Q33 -114 93 -78 L93 -75 Q80 -71 65.5 -62 Q51 -53 34.5 -28 Q18 -3 18 30 Z M190 282.5 Q170 262 170 231 Q170 200 190 179.5 Q210 159 240 159 Q271 159 290 179 Q309 199 309 231 Q309 263 290 283 Q271 303 240 303 Q210 303 190 282.5 Z M148 -151 Q148 -177 172 -193.5 Q196 -210 236 -210 Q278 -210 303.5 -192.5 Q329 -175 329 -147 Q329 -129 312 -113.5 Q295 -98 256 -98 Q219 -98 191 -102 Q148 -116 148 -151 Z M249 528 Q195 528 156 561.5 Q117 595 109 646 Q107 655 112 661.5 Q117 668 127 668 L164 668 Q177 668 181 654 Q189 630 207 615.5 Q225 601 249 601 Q271 601 289 616.5 Q307 632 315 654 Q318 668 332 668 L371 668 Q380 668 385 661.5 Q390 655 389 646 Q381 595 341.5 561.5 Q302 528 249 528 Z " />
<glyph glyph-name="gdotaccent" unicode="&#x121;" horiz-adv-x="462" d="M18 30 Q18 52 25.5 71.5 Q33 91 44.5 103.5 Q56 116 67 125 Q78 134 86 138 L93 142 Q63 176 63 236 Q63 307 113.5 358.5 Q164 410 237 410 L419 410 Q438 410 438 391 L438 358 Q438 344 427 341 L371 323 Q375 320 382 312.5 Q389 305 400 279 Q411 253 411 221 Q411 159 363.5 111.5 Q316 64 240 64 Q218 64 191.5 68 Q165 72 160 72 Q148 72 135.5 61.5 Q123 51 123 34 Q123 19 134.5 9.5 Q146 0 163 0 L291 0 Q362 0 409 -38 Q456 -76 456 -140 Q456 -213 398.5 -261.5 Q341 -310 237 -310 Q135 -310 84 -269 Q33 -228 33 -173 Q33 -114 93 -78 L93 -75 Q80 -71 65.5 -62 Q51 -53 34.5 -28 Q18 -3 18 30 Z M190 282.5 Q170 262 170 231 Q170 200 190 179.5 Q210 159 240 159 Q271 159 290 179 Q309 199 309 231 Q309 263 290 283 Q271 303 240 303 Q210 303 190 282.5 Z M148 -151 Q148 -177 172 -193.5 Q196 -210 236 -210 Q278 -210 303.5 -192.5 Q329 -175 329 -147 Q329 -129 312 -113.5 Q295 -98 256 -98 Q219 -98 191 -102 Q148 -116 148 -151 Z M298 557 Q277 536 247 536 Q217 536 196 557 Q175 578 175 608 Q175 638 196 659 Q217 680 247 680 Q277 680 298 659 Q319 638 319 608 Q319 578 298 557 Z " />
<glyph glyph-name="gcommaaccent" unicode="&#x123;" horiz-adv-x="462" d="M252 529 Q219 529 194 554.5 Q169 580 169 636 Q169 737 259 817 Q272 827 282 816 L297 802 Q307 790 294 779 Q284 772 271.5 760 Q259 748 242.5 718 Q226 688 226 657 L228 658 Q230 658 232.5 659 Q235 660 239 660.5 Q243 661 247.5 661.5 Q252 662 257 662 Q284 662 304 642.5 Q324 623 324 596 Q324 568 303.5 548.5 Q283 529 252 529 Z M18 30 Q18 52 25.5 71.5 Q33 91 44.5 103.5 Q56 116 67 125 Q78 134 86 138 L93 142 Q63 176 63 236 Q63 307 113.5 358.5 Q164 410 237 410 L419 410 Q438 410 438 391 L438 358 Q438 344 427 341 L371 323 Q375 320 382 312.5 Q389 305 400 279 Q411 253 411 221 Q411 159 363.5 111.5 Q316 64 240 64 Q218 64 191.5 68 Q165 72 160 72 Q148 72 135.5 61.5 Q123 51 123 34 Q123 19 134.5 9.5 Q146 0 163 0 L291 0 Q362 0 409 -38 Q456 -76 456 -140 Q456 -213 398.5 -261.5 Q341 -310 237 -310 Q135 -310 84 -269 Q33 -228 33 -173 Q33 -114 93 -78 L93 -75 Q80 -71 65.5 -62 Q51 -53 34.5 -28 Q18 -3 18 30 Z M190 282.5 Q170 262 170 231 Q170 200 190 179.5 Q210 159 240 159 Q271 159 290 179 Q309 199 309 231 Q309 263 290 283 Q271 303 240 303 Q210 303 190 282.5 Z M148 -151 Q148 -177 172 -193.5 Q196 -210 236 -210 Q278 -210 303.5 -192.5 Q329 -175 329 -147 Q329 -129 312 -113.5 Q295 -98 256 -98 Q219 -98 191 -102 Q148 -116 148 -151 Z " />
<glyph glyph-name="hcircumflex" unicode="&#x125;" horiz-adv-x="520" d="M60 19 L60 681 Q60 688 66 694 Q72 700 79 700 L164 700 Q172 700 177.5 694 Q183 688 183 681 L183 377 Q227 410 289 410 Q378 410 423 352.5 Q468 295 468 211 L468 19 Q468 12 462 6 Q456 0 449 0 L368 0 Q360 0 354.5 5.5 Q349 11 349 19 L349 212 Q349 253 327.5 277.5 Q306 302 270 302 Q237 302 214 282.5 Q191 263 183 231 L183 19 Q183 0 162 0 L79 0 Q72 0 66 6 Q60 12 60 19 Z M-2 746 L-28 783 Q-35 793 -22 802 L108 903 Q118 911 129 903 L259 802 Q272 793 265 783 L239 746 Q230 735 216 743 L119 804 L21 743 Q7 735 -2 746 Z " />
<glyph glyph-name="hbar" unicode="&#x127;" horiz-adv-x="520" d="M60 19 L60 533 L29 533 Q22 533 16.5 538.5 Q11 544 11 552 L11 565 Q11 573 16.5 578.5 Q22 584 29 584 L60 584 L60 681 Q60 688 66 694 Q72 700 79 700 L164 700 Q172 700 177.5 694 Q183 688 183 681 L183 584 L299 584 Q307 584 312.5 578.5 Q318 573 318 565 L318 551 Q318 543 312.5 538 Q307 533 299 533 L183 533 L183 377 Q227 410 289 410 Q378 410 423 352.5 Q468 295 468 211 L468 19 Q468 12 462 6 Q456 0 449 0 L368 0 Q360 0 354.5 5.5 Q349 11 349 19 L349 210 Q349 251 327.5 275.5 Q306 300 270 300 Q237 300 214 280.5 Q191 261 183 229 L183 19 Q183 0 162 0 L79 0 Q72 0 66 6 Q60 12 60 19 Z " />
<glyph glyph-name="dotlessi" unicode="&#x131;" horiz-adv-x="241" d="M60 19 L60 381 Q60 389 65.5 394.5 Q71 400 79 400 L162 400 Q170 400 175.5 394.5 Q181 389 181 381 L181 19 Q181 12 175.5 6 Q170 0 162 0 L79 0 Q72 0 66 6 Q60 12 60 19 Z " />
<glyph glyph-name="ibreve" unicode="&#x12d;" horiz-adv-x="241" d="M121 528 Q67 528 28 561.5 Q-11 595 -19 646 Q-21 655 -16 661.5 Q-11 668 -1 668 L36 668 Q49 668 53 654 Q61 630 79 615.5 Q97 601 121 601 Q143 601 161 616.5 Q179 632 187 654 Q190 668 204 668 L243 668 Q252 668 257 661.5 Q262 655 261 646 Q253 595 213.5 561.5 Q174 528 121 528 Z M60 19 L60 381 Q60 389 65.5 394.5 Q71 400 79 400 L162 400 Q170 400 175.5 394.5 Q181 389 181 381 L181 19 Q181 12 175.5 6 Q170 0 162 0 L79 0 Q72 0 66 6 Q60 12 60 19 Z " />
<glyph glyph-name="itilde" unicode="&#x129;" horiz-adv-x="241" d="M1 562 L-28 583 Q-40 592 -34 606 Q-26 621 -21.5 628 Q-17 635 -2.5 653.5 Q12 672 30.5 681 Q49 690 70 690 Q98 690 129 662.5 Q160 635 177 635 Q189 635 198 644.5 Q207 654 211.5 663.5 Q216 673 224.5 678.5 Q233 684 242 676 L270 656 Q283 646 271 625 Q241 573 211 558 Q194 549 174 549 Q146 549 112.5 577 Q79 605 65 605 Q50 605 40 590 Q30 575 22 564.5 Q14 554 1 562 Z M60 19 L60 381 Q60 389 65.5 394.5 Q71 400 79 400 L162 400 Q170 400 175.5 394.5 Q181 389 181 381 L181 19 Q181 12 175.5 6 Q170 0 162 0 L79 0 Q72 0 66 6 Q60 12 60 19 Z " />
<glyph glyph-name="imacron" unicode="&#x12b;" horiz-adv-x="241" d="M-7 570 Q-15 570 -20.5 575 Q-26 580 -26 588 L-26 622 Q-26 641 -7 641 L249 641 Q268 641 268 622 L268 588 Q268 580 262.5 575 Q257 570 249 570 L-7 570 Z M60 19 L60 381 Q60 389 65.5 394.5 Q71 400 79 400 L162 400 Q170 400 175.5 394.5 Q181 389 181 381 L181 19 Q181 12 175.5 6 Q170 0 162 0 L79 0 Q72 0 66 6 Q60 12 60 19 Z " />
<glyph glyph-name="iogonek" unicode="&#x12f;" horiz-adv-x="241" d="M119 542 Q91 542 71 562 Q51 582 51 611 Q51 640 71 660 Q91 680 119 680 Q148 680 168.5 660 Q189 640 189 611 Q189 582 168.5 562 Q148 542 119 542 Z M60 19 L60 381 Q60 389 65.5 394.5 Q71 400 79 400 L162 400 Q170 400 175.5 394.5 Q181 389 181 381 L181 19 Q181 12 175.5 6 Q170 0 162 0 L144 0 Q99 -45 99 -96 Q99 -123 116.5 -141.5 Q134 -160 165 -160 Q175 -160 211 -151 Q219 -149 225 -154 Q231 -159 231 -168 L231 -198 Q231 -211 217 -217 Q177 -227 151 -227 Q96 -227 60 -199 Q24 -171 24 -117 Q24 -50 79 0 Q72 0 66 6 Q60 12 60 19 Z " />
<glyph glyph-name="dotlessj" unicode="&#x237;" horiz-adv-x="242" d="M60 -108 L60 381 Q60 389 65.5 394.5 Q71 400 79 400 L163 400 Q171 400 176.5 394.5 Q182 389 182 381 L182 -108 Q182 -204 130 -257 Q78 -310 -4 -310 Q-40 -310 -73.5 -297.5 Q-107 -285 -122 -271 Q-134 -262 -126 -248 L-93 -184 Q-86 -170 -69 -179 Q-37 -199 -10 -199 Q24 -199 42 -175.5 Q60 -152 60 -108 Z " />
<glyph glyph-name="jcircumflex" unicode="&#x135;" horiz-adv-x="242" d="M60 -108 L60 381 Q60 389 65.5 394.5 Q71 400 79 400 L163 400 Q171 400 176.5 394.5 Q182 389 182 381 L182 -108 Q182 -204 130 -257 Q78 -310 -4 -310 Q-40 -310 -73.5 -297.5 Q-107 -285 -122 -271 Q-134 -262 -126 -248 L-93 -184 Q-86 -170 -69 -179 Q-37 -199 -10 -199 Q24 -199 42 -175.5 Q60 -152 60 -108 Z M-1 529 L-27 566 Q-34 576 -21 585 L109 686 Q119 694 130 686 L260 585 Q273 576 266 566 L240 529 Q231 518 217 526 L120 587 L22 526 Q8 518 -1 529 Z " />
<glyph glyph-name="kcommaaccent" unicode="&#x137;" horiz-adv-x="489" d="M60 19 L60 681 Q60 688 66 694 Q72 700 79 700 L164 700 Q172 700 177.5 694 Q183 688 183 681 L183 248 L321 388 Q335 400 346 400 L437 400 Q449 400 453.5 389.5 Q458 379 450 371 L301 219 L479 28 Q487 20 482.5 10 Q478 0 466 0 L358 0 Q347 0 341 8 L183 188 L183 19 Q183 12 177.5 6 Q172 0 164 0 L79 0 Q72 0 66 6 Q60 12 60 19 Z M260 -91 Q293 -91 318 -116.5 Q343 -142 343 -198 Q343 -299 253 -379 Q240 -389 230 -378 L215 -364 Q205 -352 218 -341 Q228 -334 240.5 -322 Q253 -310 269.5 -280 Q286 -250 286 -219 L284 -220 Q282 -220 279.5 -221 Q277 -222 273 -222.5 Q269 -223 264.5 -223.5 Q260 -224 255 -224 Q228 -224 208 -204.5 Q188 -185 188 -158 Q188 -130 208.5 -110.5 Q229 -91 260 -91 Z " />
<glyph glyph-name="kgreenlandic" unicode="&#x138;" horiz-adv-x="493" d="M60 19 L60 381 Q60 388 66 394 Q72 400 79 400 L164 400 Q172 400 177.5 394 Q183 388 183 381 L183 222 L334 388 Q344 400 359 400 L450 400 Q462 400 466.5 389.5 Q471 379 463 371 L297 195 L479 28 Q487 20 482.5 10 Q478 0 466 0 L358 0 Q352 0 341 8 L183 162 L183 19 Q183 12 177.5 6 Q172 0 164 0 L79 0 Q72 0 66 6 Q60 12 60 19 Z " />
<glyph glyph-name="lacute" unicode="&#x13a;" horiz-adv-x="242" d="M60 19 L60 681 Q60 688 66 694 Q72 700 79 700 L163 700 Q170 700 176 694 Q182 688 182 681 L182 19 Q182 12 176 6 Q170 0 163 0 L79 0 Q72 0 66 6 Q60 12 60 19 Z M49 745 Q30 738 23 751 L6 787 Q0 798 12 806 L175 903 Q193 915 201 900 L230 849 Q239 830 224 822 L49 745 Z " />
<glyph glyph-name="lcaron" unicode="&#x13e;" horiz-adv-x="272" d="M60 19 L60 681 Q60 688 66 694 Q72 700 79 700 L163 700 Q170 700 176 694 Q182 688 182 681 L182 19 Q182 12 176 6 Q170 0 163 0 L79 0 Q72 0 66 6 Q60 12 60 19 Z M318 423 L304 437 Q293 448 306 460 Q316 467 328.5 479 Q341 491 357.5 521 Q374 551 374 582 L372 582 Q370 581 367.5 580.5 Q365 580 361.5 579 Q358 578 353 577.5 Q348 577 344 577 Q316 577 296.5 596 Q277 615 277 643 Q277 671 297.5 690.5 Q318 710 348 710 Q381 710 406 684.5 Q431 659 431 603 Q431 502 341 422 Q328 413 318 423 Z " />
<glyph glyph-name="lcommaaccent" unicode="&#x13c;" horiz-adv-x="242" d="M60 19 L60 681 Q60 688 66 694 Q72 700 79 700 L163 700 Q170 700 176 694 Q182 688 182 681 L182 19 Q182 12 176 6 Q170 0 163 0 L79 0 Q72 0 66 6 Q60 12 60 19 Z M117 -91 Q150 -91 175 -116.5 Q200 -142 200 -198 Q200 -299 110 -379 Q97 -389 87 -378 L72 -364 Q62 -352 75 -341 Q85 -334 97.5 -322 Q110 -310 126.5 -280 Q143 -250 143 -219 L141 -220 Q139 -220 136.5 -221 Q134 -222 130 -222.5 Q126 -223 121.5 -223.5 Q117 -224 112 -224 Q85 -224 65 -204.5 Q45 -185 45 -158 Q45 -130 65.5 -110.5 Q86 -91 117 -91 Z " />
<glyph glyph-name="lslash" unicode="&#x142;" horiz-adv-x="257" d="M74 19 L74 311 L40 292 Q23 282 14 299 L8 311 Q-2 327 14 336 L74 370 L74 681 Q74 688 80 694 Q86 700 93 700 L177 700 Q184 700 190 694 Q196 688 196 681 L196 442 L259 479 Q276 489 285 472 L292 459 Q296 453 294 445.5 Q292 438 285 434 L196 382 L196 19 Q196 12 190 6 Q184 0 177 0 L93 0 Q86 0 80 6 Q74 12 74 19 Z " />
<glyph glyph-name="ldot" unicode="&#x140;" horiz-adv-x="395" d="M60 19 L60 681 Q60 688 66 694 Q72 700 79 700 L163 700 Q170 700 176 694 Q182 688 182 681 L182 19 Q182 12 176 6 Q170 0 163 0 L79 0 Q72 0 66 6 Q60 12 60 19 Z M369 309 Q348 288 318 288 Q288 288 267 309 Q246 330 246 360 Q246 390 267 411 Q288 432 318 432 Q348 432 369 411 Q390 390 390 360 Q390 330 369 309 Z " />
<glyph glyph-name="nacute" unicode="&#x144;" horiz-adv-x="519" d="M60 19 L60 381 Q60 389 65.5 394.5 Q71 400 79 400 L117 400 Q129 400 134 388 L148 351 Q203 410 289 410 Q379 410 423 353 Q467 296 467 211 L467 19 Q467 12 461.5 6 Q456 0 448 0 L366 0 Q358 0 352.5 5.5 Q347 11 347 19 L347 217 Q347 256 327.5 279 Q308 302 272 302 Q236 302 211.5 282.5 Q187 263 178 239 L178 19 Q178 0 153 0 L79 0 Q72 0 66 6 Q60 12 60 19 Z M198 528 Q179 521 172 534 L155 570 Q149 581 161 589 L324 686 Q342 698 350 683 L379 632 Q388 612 373 605 L198 528 Z " />
<glyph glyph-name="ncaron" unicode="&#x148;" horiz-adv-x="519" d="M60 19 L60 381 Q60 389 65.5 394.5 Q71 400 79 400 L117 400 Q129 400 134 388 L148 351 Q203 410 289 410 Q379 410 423 353 Q467 296 467 211 L467 19 Q467 12 461.5 6 Q456 0 448 0 L366 0 Q358 0 352.5 5.5 Q347 11 347 19 L347 217 Q347 256 327.5 279 Q308 302 272 302 Q236 302 211.5 282.5 Q187 263 178 239 L178 19 Q178 0 153 0 L79 0 Q72 0 66 6 Q60 12 60 19 Z M259 524 L129 625 Q116 634 123 644 L149 681 Q158 692 172 684 L269 623 L367 684 Q381 692 390 681 L416 644 Q423 634 410 625 L280 524 Q270 516 259 524 Z " />
<glyph glyph-name="ncommaaccent" unicode="&#x146;" horiz-adv-x="520" d="M60 19 L60 381 Q60 389 65.5 394.5 Q71 400 79 400 L117 400 Q129 400 134 388 L148 351 Q203 410 289 410 Q379 410 423 353 Q467 296 467 211 L467 19 Q467 12 461.5 6 Q456 0 448 0 L366 0 Q358 0 352.5 5.5 Q347 11 347 19 L347 217 Q347 256 327.5 279 Q308 302 272 302 Q236 302 211.5 282.5 Q187 263 178 239 L178 19 Q178 0 153 0 L79 0 Q72 0 66 6 Q60 12 60 19 Z M259 -91 Q292 -91 317 -116.5 Q342 -142 342 -198 Q342 -299 252 -379 Q239 -389 229 -378 L214 -364 Q204 -352 217 -341 Q227 -334 239.5 -322 Q252 -310 268.5 -280 Q285 -250 285 -219 L283 -220 Q281 -220 278.5 -221 Q276 -222 272 -222.5 Q268 -223 263.5 -223.5 Q259 -224 254 -224 Q227 -224 207 -204.5 Q187 -185 187 -158 Q187 -130 207.5 -110.5 Q228 -91 259 -91 Z " />
<glyph glyph-name="napostrophe" unicode="&#x149;" horiz-adv-x="519" d="M60 19 L60 381 Q60 389 65.5 394.5 Q71 400 79 400 L117 400 Q129 400 134 388 L148 351 Q203 410 289 410 Q379 410 423 353 Q467 296 467 211 L467 19 Q467 12 461.5 6 Q456 0 448 0 L366 0 Q358 0 352.5 5.5 Q347 11 347 19 L347 217 Q347 256 327.5 279 Q308 302 272 302 Q236 302 211.5 282.5 Q187 263 178 239 L178 19 Q178 0 153 0 L79 0 Q72 0 66 6 Q60 12 60 19 Z M-85 710 Q-52 710 -27 684.5 Q-2 659 -2 603 Q-2 502 -92 422 Q-105 412 -115 423 L-130 437 Q-140 449 -127 460 Q-117 467 -104.5 479 Q-92 491 -75.5 521 Q-59 551 -59 582 L-61 582 Q-63 581 -65.5 580.5 Q-68 580 -72 579 Q-76 578 -80.5 577.5 Q-85 577 -90 577 Q-117 577 -137 596.5 Q-157 616 -157 643 Q-157 671 -136.5 690.5 Q-116 710 -85 710 Z " />
<glyph glyph-name="omacron" unicode="&#x14d;" horiz-adv-x="468" d="M29 201 Q29 286 89.5 348 Q150 410 234 410 Q318 410 378.5 348 Q439 286 439 201 Q439 115 379 52.5 Q319 -10 234 -10 Q149 -10 89 52.5 Q29 115 29 201 Z M138 201 Q138 158 166 128 Q194 98 234 98 Q274 98 302 128 Q330 158 330 201 Q330 243 302 272.5 Q274 302 234 302 Q194 302 166 272.5 Q138 243 138 201 Z M106 570 Q98 570 92.5 575 Q87 580 87 588 L87 622 Q87 641 106 641 L362 641 Q381 641 381 622 L381 588 Q381 580 375.5 575 Q370 570 362 570 L106 570 Z " />
<glyph glyph-name="obreve" unicode="&#x14f;" horiz-adv-x="468" d="M29 201 Q29 286 89.5 348 Q150 410 234 410 Q318 410 378.5 348 Q439 286 439 201 Q439 115 379 52.5 Q319 -10 234 -10 Q149 -10 89 52.5 Q29 115 29 201 Z M138 201 Q138 158 166 128 Q194 98 234 98 Q274 98 302 128 Q330 158 330 201 Q330 243 302 272.5 Q274 302 234 302 Q194 302 166 272.5 Q138 243 138 201 Z M235 528 Q181 528 142 561.5 Q103 595 95 646 Q93 655 98 661.5 Q103 668 113 668 L150 668 Q163 668 167 654 Q175 630 193 615.5 Q211 601 235 601 Q257 601 275 616.5 Q293 632 301 654 Q304 668 318 668 L357 668 Q366 668 371 661.5 Q376 655 375 646 Q367 595 327.5 561.5 Q288 528 235 528 Z " />
<glyph glyph-name="ohungarumlaut" unicode="&#x151;" horiz-adv-x="468" d="M29 201 Q29 286 89.5 348 Q150 410 234 410 Q318 410 378.5 348 Q439 286 439 201 Q439 115 379 52.5 Q319 -10 234 -10 Q149 -10 89 52.5 Q29 115 29 201 Z M138 201 Q138 158 166 128 Q194 98 234 98 Q274 98 302 128 Q330 158 330 201 Q330 243 302 272.5 Q274 302 234 302 Q194 302 166 272.5 Q138 243 138 201 Z M304 521 Q293 521 288 526.5 Q283 532 285 540 L322 681 Q328 700 341 700 L417 700 Q431 700 436 692 Q441 684 435 675 L357 536 Q350 521 339 521 L304 521 Z M138 521 Q127 521 122 526.5 Q117 532 119 540 L156 681 Q162 700 175 700 L251 700 Q265 700 270 692.5 Q275 685 269 675 L191 536 Q184 521 173 521 L138 521 Z " />
<glyph glyph-name="oslashacute" unicode="&#x1ff;" horiz-adv-x="468" d="M163 528 Q144 521 137 534 L120 570 Q114 581 126 589 L289 686 Q307 698 315 683 L344 632 Q353 612 338 605 L163 528 Z M51 24 Q38 38 50 50 L72 72 Q30 129 30 202 Q30 287 90.5 348.5 Q151 410 235 410 Q305 410 361 364 L387 390 Q399 404 413 390 L423 380 Q437 368 423 354 L397 328 Q439 271 439 202 Q439 115 379 52.5 Q319 -10 235 -10 Q164 -10 108 35 L87 13 Q82 8 73.5 8 Q65 8 60 14 L51 24 Z M150 152 L284 287 Q263 302 235 302 Q195 302 167 273 Q139 244 139 202 Q139 174 150 152 Z M185 112 Q207 98 235 98 Q275 98 302.5 128.5 Q330 159 330 202 Q330 227 319 249 L185 112 Z " />
<glyph glyph-name="racute" unicode="&#x155;" horiz-adv-x="341" d="M60 19 L60 381 Q60 389 65.5 394.5 Q71 400 79 400 L117 400 Q130 400 135 387 L149 348 Q192 410 262 410 Q300 410 324 399 Q348 388 339 370 L302 305 Q293 289 279 296 Q261 302 250 302 Q223 302 204.5 288.5 Q186 275 179 261 L179 19 Q179 0 156 0 L79 0 Q72 0 66 6 Q60 12 60 19 Z M108 528 Q89 521 82 534 L65 570 Q59 581 71 589 L234 686 Q252 698 260 683 L289 632 Q298 612 283 605 L108 528 Z " />
<glyph glyph-name="rcaron" unicode="&#x159;" horiz-adv-x="341" d="M60 19 L60 381 Q60 389 65.5 394.5 Q71 400 79 400 L117 400 Q130 400 135 387 L149 348 Q192 410 262 410 Q300 410 324 399 Q348 388 339 370 L302 305 Q293 289 279 296 Q261 302 250 302 Q223 302 204.5 288.5 Q186 275 179 261 L179 19 Q179 0 156 0 L79 0 Q72 0 66 6 Q60 12 60 19 Z M164 524 L34 625 Q21 634 28 644 L54 681 Q63 692 77 684 L174 623 L272 684 Q286 692 295 681 L321 644 Q328 634 315 625 L185 524 Q175 516 164 524 Z " />
<glyph glyph-name="rcommaaccent" unicode="&#x157;" horiz-adv-x="341" d="M60 19 L60 381 Q60 389 65.5 394.5 Q71 400 79 400 L117 400 Q130 400 135 387 L149 348 Q192 410 262 410 Q300 410 324 399 Q348 388 339 370 L302 305 Q293 289 279 296 Q261 302 250 302 Q223 302 204.5 288.5 Q186 275 179 261 L179 19 Q179 0 156 0 L79 0 Q72 0 66 6 Q60 12 60 19 Z M113 -91 Q146 -91 171 -116.5 Q196 -142 196 -198 Q196 -299 106 -379 Q93 -389 83 -378 L68 -364 Q58 -352 71 -341 Q81 -334 93.5 -322 Q106 -310 122.5 -280 Q139 -250 139 -219 L137 -220 Q135 -220 132.5 -221 Q130 -222 126 -222.5 Q122 -223 117.5 -223.5 Q113 -224 108 -224 Q81 -224 61 -204.5 Q41 -185 41 -158 Q41 -130 61.5 -110.5 Q82 -91 113 -91 Z " />
<glyph glyph-name="sacute" unicode="&#x15b;" horiz-adv-x="364" d="M44 27 Q32 37 38 48 L65 102 Q71 118 88 109 Q133 85 179 85 Q213 85 213 110 Q213 124 199 134 Q185 144 146 160 Q33 204 33 292 Q33 342 70.5 376 Q108 410 180 410 Q256 410 303 379 Q320 368 312 352 L287 301 Q280 288 263 294 Q218 315 180 315 Q146 315 146 292 Q146 280 155.5 274 Q165 268 194 256 Q199 254 201 253 Q268 227 302 196.5 Q336 166 336 112 Q336 60 293 25 Q250 -10 177 -10 Q93 -10 44 27 Z M115 528 Q96 521 89 534 L72 570 Q66 581 78 589 L241 686 Q259 698 267 683 L296 632 Q305 612 290 605 L115 528 Z " />
<glyph glyph-name="scircumflex" unicode="&#x15d;" horiz-adv-x="364" d="M44 27 Q32 37 38 48 L65 102 Q71 118 88 109 Q133 85 179 85 Q213 85 213 110 Q213 124 199 134 Q185 144 146 160 Q33 204 33 292 Q33 342 70.5 376 Q108 410 180 410 Q256 410 303 379 Q320 368 312 352 L287 301 Q280 288 263 294 Q218 315 180 315 Q146 315 146 292 Q146 280 155.5 274 Q165 268 194 256 Q199 254 201 253 Q268 227 302 196.5 Q336 166 336 112 Q336 60 293 25 Q250 -10 177 -10 Q93 -10 44 27 Z M60 529 L34 566 Q27 576 40 585 L170 686 Q180 694 191 686 L321 585 Q334 576 327 566 L301 529 Q292 518 278 526 L181 587 L83 526 Q69 518 60 529 Z " />
<glyph glyph-name="scedilla" unicode="&#x15f;" horiz-adv-x="366" d="M45 27 Q33 37 39 48 L66 102 Q72 118 89 109 Q134 85 180 85 Q214 85 214 110 Q214 124 200 134 Q186 144 147 160 Q34 204 34 292 Q34 342 71.5 376 Q109 410 181 410 Q258 410 304 379 Q321 368 313 352 L288 301 Q281 288 264 294 Q219 315 181 315 Q147 315 147 292 Q147 280 156.5 274 Q166 268 195 256 Q200 254 202 253 Q269 227 303 196.5 Q337 166 337 112 Q337 62 297.5 28 Q258 -6 190 -9 L190 -52 Q236 -58 261.5 -85.5 Q287 -113 287 -155 Q287 -199 256 -229.5 Q225 -260 181 -260 Q135 -260 105 -225 Q92 -211 108 -197 L128 -180 Q139 -169 149 -181 Q160 -193 179 -193 Q194 -193 204 -182 Q214 -171 214 -156 Q214 -113 141 -107 Q124 -105 124 -89 L124 -5 Q74 4 45 27 Z " />
<glyph glyph-name="scommaaccent" unicode="&#x219;" horiz-adv-x="364" d="M44 27 Q32 37 38 48 L65 102 Q71 118 88 109 Q133 85 179 85 Q213 85 213 110 Q213 124 199 134 Q185 144 146 160 Q33 204 33 292 Q33 342 70.5 376 Q108 410 180 410 Q256 410 303 379 Q320 368 312 352 L287 301 Q280 288 263 294 Q218 315 180 315 Q146 315 146 292 Q146 280 155.5 274 Q165 268 194 256 Q199 254 201 253 Q268 227 302 196.5 Q336 166 336 112 Q336 60 293 25 Q250 -10 177 -10 Q93 -10 44 27 Z M184 -91 Q217 -91 242 -116.5 Q267 -142 267 -198 Q267 -299 177 -379 Q164 -389 154 -378 L139 -364 Q129 -352 142 -341 Q152 -334 164.5 -322 Q177 -310 193.5 -280 Q210 -250 210 -219 L208 -220 Q206 -220 203.5 -221 Q201 -222 197 -222.5 Q193 -223 188.5 -223.5 Q184 -224 179 -224 Q152 -224 132 -204.5 Q112 -185 112 -158 Q112 -130 132.5 -110.5 Q153 -91 184 -91 Z " />
<glyph glyph-name="tcaron" unicode="&#x165;" horiz-adv-x="345" d="M81 119 L81 295 L47 295 Q40 295 34.5 300.5 Q29 306 29 314 L29 381 Q29 389 34 394.5 Q39 400 47 400 L81 400 L81 511 Q81 518 86.5 524 Q92 530 100 530 L182 531 Q189 531 194.5 525.5 Q200 520 200 512 L200 400 L288 400 Q307 400 307 381 L307 314 Q307 306 301.5 300.5 Q296 295 288 295 L200 295 L200 135 Q200 103 231 103 Q250 103 280 114 Q297 120 302 103 L322 40 Q329 23 311 16 Q307 14 289.5 8 Q272 2 243 -4 Q214 -10 192 -10 Q81 -10 81 119 Z M398 423 L384 437 Q373 448 386 460 Q396 467 408.5 479 Q421 491 437.5 521 Q454 551 454 582 L452 582 Q450 581 447.5 580.5 Q445 580 441.5 579 Q438 578 433 577.5 Q428 577 424 577 Q396 577 376.5 596 Q357 615 357 643 Q357 671 377.5 690.5 Q398 710 428 710 Q461 710 486 684.5 Q511 659 511 603 Q511 502 421 422 Q408 413 398 423 Z " />
<glyph glyph-name="tcommaaccent" unicode="&#x163;" horiz-adv-x="346" d="M81 119 L81 295 L47 295 Q40 295 34.5 300.5 Q29 306 29 314 L29 381 Q29 389 34 394.5 Q39 400 47 400 L81 400 L81 511 Q81 518 86.5 524 Q92 530 100 530 L182 531 Q189 531 194.5 525.5 Q200 520 200 512 L200 400 L288 400 Q307 400 307 381 L307 314 Q307 306 301.5 300.5 Q296 295 288 295 L200 295 L200 135 Q200 103 231 103 Q250 103 280 114 Q297 120 302 103 L322 40 Q329 23 311 16 Q307 14 289.5 8 Q272 2 243 -4 Q214 -10 192 -10 Q81 -10 81 119 Z M193 -91 Q226 -91 251 -116.5 Q276 -142 276 -198 Q276 -299 186 -379 Q173 -389 163 -378 L148 -364 Q138 -352 151 -341 Q161 -334 173.5 -322 Q186 -310 202.5 -280 Q219 -250 219 -219 L217 -220 Q215 -220 212.5 -221 Q210 -222 206 -222.5 Q202 -223 197.5 -223.5 Q193 -224 188 -224 Q161 -224 141 -204.5 Q121 -185 121 -158 Q121 -130 141.5 -110.5 Q162 -91 193 -91 Z " />
<glyph glyph-name="uni021B" unicode="&#x21b;" horiz-adv-x="346" d="M81 119 L81 295 L47 295 Q40 295 34.5 300.5 Q29 306 29 314 L29 381 Q29 389 34 394.5 Q39 400 47 400 L81 400 L81 511 Q81 518 86.5 524 Q92 530 100 530 L182 531 Q189 531 194.5 525.5 Q200 520 200 512 L200 400 L288 400 Q307 400 307 381 L307 314 Q307 306 301.5 300.5 Q296 295 288 295 L200 295 L200 135 Q200 103 231 103 Q250 103 280 114 Q297 120 302 103 L322 40 Q329 23 311 16 Q307 14 289.5 8 Q272 2 243 -4 Q214 -10 192 -10 Q81 -10 81 119 Z M193 -91 Q226 -91 251 -116.5 Q276 -142 276 -198 Q276 -299 186 -379 Q173 -389 163 -378 L148 -364 Q138 -352 151 -341 Q161 -334 173.5 -322 Q186 -310 202.5 -280 Q219 -250 219 -219 L217 -220 Q215 -220 212.5 -221 Q210 -222 206 -222.5 Q202 -223 197.5 -223.5 Q193 -224 188 -224 Q161 -224 141 -204.5 Q121 -185 121 -158 Q121 -130 141.5 -110.5 Q162 -91 193 -91 Z " />
<glyph glyph-name="tbar" unicode="&#x167;" horiz-adv-x="345" d="M81 119 L81 170 L50 170 Q43 170 37.5 175.5 Q32 181 32 189 L32 202 Q32 210 37.5 215.5 Q43 221 50 221 L81 221 L81 295 L47 295 Q40 295 34.5 300.5 Q29 306 29 314 L29 381 Q29 389 34 394.5 Q39 400 47 400 L81 400 L81 511 Q81 518 86.5 524 Q92 530 100 530 L182 531 Q189 531 194.5 525.5 Q200 520 200 512 L200 400 L288 400 Q307 400 307 381 L307 314 Q307 306 301.5 300.5 Q296 295 288 295 L200 295 L200 221 L281 221 Q289 221 294.5 215.5 Q300 210 300 202 L300 188 Q300 180 294.5 175 Q289 170 281 170 L200 170 L200 136 Q200 104 231 104 Q252 104 280 114 Q297 120 302 103 L322 40 Q327 22 311 16 Q307 14 289.5 8 Q272 2 243 -4 Q214 -10 192 -10 Q81 -10 81 119 Z " />
<glyph glyph-name="utilde" unicode="&#x169;" horiz-adv-x="503" d="M53 187 L53 381 Q53 389 58.5 394.5 Q64 400 72 400 L154 400 Q162 400 167.5 394.5 Q173 389 173 381 L173 184 Q173 144 192.5 121 Q212 98 246 98 Q276 98 298.5 121 Q321 144 326 173 L326 381 Q326 392 331 396 Q336 400 348 400 L424 400 Q432 400 437.5 394.5 Q443 389 443 381 L443 19 Q443 12 437.5 6 Q432 0 424 0 L387 0 Q374 0 368 15 L356 48 Q355 47 348.5 41 Q342 35 338.5 32 Q335 29 326.5 23 Q318 17 311.5 13 Q305 9 294.5 4 Q284 -1 273.5 -3.5 Q263 -6 249.5 -8 Q236 -10 222 -10 Q135 -10 94 46 Q53 102 53 187 Z M133 562 L104 583 Q92 592 98 606 Q106 621 110.5 628 Q115 635 129.5 653.5 Q144 672 162.5 681 Q181 690 202 690 Q230 690 261 662.5 Q292 635 309 635 Q321 635 330 644.5 Q339 654 343.5 663.5 Q348 673 356.5 678.5 Q365 684 374 676 L402 656 Q415 646 403 625 Q373 573 343 558 Q326 549 306 549 Q278 549 244.5 577 Q211 605 197 605 Q182 605 172 590 Q162 575 154 564.5 Q146 554 133 562 Z " />
<glyph glyph-name="umacron" unicode="&#x16b;" horiz-adv-x="503" d="M53 187 L53 381 Q53 389 58.5 394.5 Q64 400 72 400 L154 400 Q162 400 167.5 394.5 Q173 389 173 381 L173 184 Q173 144 192.5 121 Q212 98 246 98 Q276 98 298.5 121 Q321 144 326 173 L326 381 Q326 392 331 396 Q336 400 348 400 L424 400 Q432 400 437.5 394.5 Q443 389 443 381 L443 19 Q443 12 437.5 6 Q432 0 424 0 L387 0 Q374 0 368 15 L356 48 Q355 47 348.5 41 Q342 35 338.5 32 Q335 29 326.5 23 Q318 17 311.5 13 Q305 9 294.5 4 Q284 -1 273.5 -3.5 Q263 -6 249.5 -8 Q236 -10 222 -10 Q135 -10 94 46 Q53 102 53 187 Z M125 570 Q117 570 111.5 575 Q106 580 106 588 L106 622 Q106 641 125 641 L381 641 Q400 641 400 622 L400 588 Q400 580 394.5 575 Q389 570 381 570 L125 570 Z " />
<glyph glyph-name="ubreve" unicode="&#x16d;" horiz-adv-x="503" d="M53 187 L53 381 Q53 389 58.5 394.5 Q64 400 72 400 L154 400 Q162 400 167.5 394.5 Q173 389 173 381 L173 184 Q173 144 192.5 121 Q212 98 246 98 Q276 98 298.5 121 Q321 144 326 173 L326 381 Q326 392 331 396 Q336 400 348 400 L424 400 Q432 400 437.5 394.5 Q443 389 443 381 L443 19 Q443 12 437.5 6 Q432 0 424 0 L387 0 Q374 0 368 15 L356 48 Q355 47 348.5 41 Q342 35 338.5 32 Q335 29 326.5 23 Q318 17 311.5 13 Q305 9 294.5 4 Q284 -1 273.5 -3.5 Q263 -6 249.5 -8 Q236 -10 222 -10 Q135 -10 94 46 Q53 102 53 187 Z M254 528 Q200 528 161 561.5 Q122 595 114 646 Q112 655 117 661.5 Q122 668 132 668 L169 668 Q182 668 186 654 Q194 630 212 615.5 Q230 601 254 601 Q276 601 294 616.5 Q312 632 320 654 Q324 668 337 668 L376 668 Q385 668 390 661.5 Q395 655 394 646 Q386 595 346.5 561.5 Q307 528 254 528 Z " />
<glyph glyph-name="uring" unicode="&#x16f;" horiz-adv-x="503" d="M53 187 L53 381 Q53 389 58.5 394.5 Q64 400 72 400 L154 400 Q162 400 167.5 394.5 Q173 389 173 381 L173 184 Q173 144 192.5 121 Q212 98 246 98 Q276 98 298.5 121 Q321 144 326 173 L326 381 Q326 392 331 396 Q336 400 348 400 L424 400 Q432 400 437.5 394.5 Q443 389 443 381 L443 19 Q443 12 437.5 6 Q432 0 424 0 L387 0 Q374 0 368 15 L356 48 Q355 47 348.5 41 Q342 35 338.5 32 Q335 29 326.5 23 Q318 17 311.5 13 Q305 9 294.5 4 Q284 -1 273.5 -3.5 Q263 -6 249.5 -8 Q236 -10 222 -10 Q135 -10 94 46 Q53 102 53 187 Z M332 517 Q299 484 252 484 Q205 484 172 517 Q139 550 139 597 Q139 644 172 677 Q205 710 252 710 Q299 710 332 677 Q365 644 365 597 Q365 550 332 517 Z M252 547 Q271 547 285.5 562 Q300 577 300 597 Q300 616 286 630.5 Q272 645 252 645 Q232 645 217 630.5 Q202 616 202 597 Q202 578 217 562.5 Q232 547 252 547 Z " />
<glyph glyph-name="uhungarumlaut" unicode="&#x171;" horiz-adv-x="503" d="M53 187 L53 381 Q53 389 58.5 394.5 Q64 400 72 400 L154 400 Q162 400 167.5 394.5 Q173 389 173 381 L173 184 Q173 144 192.5 121 Q212 98 246 98 Q276 98 298.5 121 Q321 144 326 173 L326 381 Q326 392 331 396 Q336 400 348 400 L424 400 Q432 400 437.5 394.5 Q443 389 443 381 L443 19 Q443 12 437.5 6 Q432 0 424 0 L387 0 Q374 0 368 15 L356 48 Q355 47 348.5 41 Q342 35 338.5 32 Q335 29 326.5 23 Q318 17 311.5 13 Q305 9 294.5 4 Q284 -1 273.5 -3.5 Q263 -6 249.5 -8 Q236 -10 222 -10 Q135 -10 94 46 Q53 102 53 187 Z M325 521 Q314 521 309 526.5 Q304 532 306 540 L343 681 Q349 700 362 700 L438 700 Q452 700 457 692 Q462 684 456 675 L378 536 Q370 521 360 521 L325 521 Z M159 521 Q148 521 143 526.5 Q138 532 140 540 L177 681 Q183 700 196 700 L272 700 Q286 700 291 692.5 Q296 685 290 675 L212 536 Q204 521 194 521 L159 521 Z " />
<glyph glyph-name="uogonek" unicode="&#x173;" horiz-adv-x="503" d="M53 187 L53 381 Q53 389 58.5 394.5 Q64 400 72 400 L154 400 Q162 400 167.5 394.5 Q173 389 173 381 L173 190 Q173 150 192.5 127 Q212 104 246 104 Q276 104 298.5 127 Q321 150 326 179 L326 381 Q326 392 331 396 Q336 400 348 400 L424 400 Q432 400 437.5 394.5 Q443 389 443 381 L443 19 Q443 12 437.5 6 Q432 0 424 0 L418 0 Q373 -45 373 -96 Q373 -123 390.5 -141.5 Q408 -160 439 -160 Q449 -160 485 -151 Q493 -149 499 -154 Q505 -159 505 -168 L505 -198 Q505 -211 491 -217 Q451 -227 425 -227 Q370 -227 334 -199 Q298 -171 298 -117 Q298 -82 316 -49.5 Q334 -17 347.5 -4.5 Q361 8 369 13 L356 48 Q355 47 348.5 41 Q342 35 338.5 32 Q335 29 326.5 23 Q318 17 311.5 13 Q305 9 294.5 4 Q284 -1 273.5 -3.5 Q263 -6 249.5 -8 Q236 -10 222 -10 Q135 -10 94 46 Q53 102 53 187 Z " />
<glyph glyph-name="wacute" unicode="&#x1e83;" horiz-adv-x="616" d="M143 1 L18 377 Q14 387 19 393.5 Q24 400 35 400 L107 400 Q122 400 125 388 L185 209 L186 209 L288 401 Q292 410 304 410 L312 410 Q323 410 328 401 L429 209 L430 209 L490 388 Q494 400 513 400 L578 400 Q589 400 594.5 393.5 Q600 387 596 377 L471 1 Q467 -10 453 -10 L449 -10 Q438 -10 433 -1 L307 232 L306 232 L181 -1 Q176 -10 165 -10 L160 -10 Q147 -10 143 1 Z M237 528 Q218 521 211 534 L194 570 Q188 581 200 589 L363 686 Q381 698 389 683 L418 632 Q427 612 412 605 L237 528 Z " />
<glyph glyph-name="wcircumflex" unicode="&#x175;" horiz-adv-x="616" d="M143 1 L18 377 Q14 387 19 393.5 Q24 400 35 400 L107 400 Q122 400 125 388 L185 209 L186 209 L288 401 Q292 410 304 410 L312 410 Q323 410 328 401 L429 209 L430 209 L490 388 Q494 400 513 400 L578 400 Q589 400 594.5 393.5 Q600 387 596 377 L471 1 Q467 -10 453 -10 L449 -10 Q438 -10 433 -1 L307 232 L306 232 L181 -1 Q176 -10 165 -10 L160 -10 Q147 -10 143 1 Z M186 529 L160 566 Q153 576 166 585 L296 686 Q306 694 317 686 L447 585 Q460 576 453 566 L427 529 Q418 518 404 526 L307 587 L209 526 Q195 518 186 529 Z " />
<glyph glyph-name="wdieresis" unicode="&#x1e85;" horiz-adv-x="616" d="M143 1 L18 377 Q14 387 19 393.5 Q24 400 35 400 L107 400 Q122 400 125 388 L185 209 L186 209 L288 401 Q292 410 304 410 L312 410 Q323 410 328 401 L429 209 L430 209 L490 388 Q494 400 513 400 L578 400 Q589 400 594.5 393.5 Q600 387 596 377 L471 1 Q467 -10 453 -10 L449 -10 Q438 -10 433 -1 L307 232 L306 232 L181 -1 Q176 -10 165 -10 L160 -10 Q147 -10 143 1 Z M452 570 Q433 551 407 551 Q381 551 362.5 570 Q344 589 344 615 Q344 641 362.5 659.5 Q381 678 407 678 Q433 678 452 659.5 Q471 641 471 615 Q471 589 452 570 Z M251 570 Q232 551 206 551 Q180 551 161.5 570 Q143 589 143 615 Q143 641 161.5 659.5 Q180 678 206 678 Q232 678 251 659.5 Q270 641 270 615 Q270 589 251 570 Z " />
<glyph glyph-name="wgrave" unicode="&#x1e81;" horiz-adv-x="616" d="M143 1 L18 377 Q14 387 19 393.5 Q24 400 35 400 L107 400 Q122 400 125 388 L185 209 L186 209 L288 401 Q292 410 304 410 L312 410 Q323 410 328 401 L429 209 L430 209 L490 388 Q494 400 513 400 L578 400 Q589 400 594.5 393.5 Q600 387 596 377 L471 1 Q467 -10 453 -10 L449 -10 Q438 -10 433 -1 L307 232 L306 232 L181 -1 Q176 -10 165 -10 L160 -10 Q147 -10 143 1 Z M377 528 L202 605 Q186 613 196 632 L224 683 Q232 698 250 686 L414 589 Q426 583 420 570 L402 534 Q396 520 377 528 Z " />
<glyph glyph-name="ycircumflex" unicode="&#x177;" horiz-adv-x="463" d="M171 28 L8 374 Q3 384 8.5 392 Q14 400 25 400 L115 400 Q126 400 132 389 L233 163 L234 163 L334 389 Q340 400 358 400 L438 400 Q450 400 455 392 Q460 384 455 374 L149 -288 Q143 -300 132 -300 L46 -300 Q35 -300 29.5 -291.5 Q24 -283 29 -273 L171 28 Z M112 529 L86 566 Q79 576 92 585 L222 686 Q232 694 243 686 L373 585 Q386 576 379 566 L353 529 Q344 518 330 526 L233 587 L135 526 Q121 518 112 529 Z " />
<glyph glyph-name="ygrave" unicode="&#x1ef3;" horiz-adv-x="463" d="M171 28 L8 374 Q3 384 8.5 392 Q14 400 25 400 L115 400 Q126 400 132 389 L233 163 L234 163 L334 389 Q340 400 358 400 L438 400 Q450 400 455 392 Q460 384 455 374 L149 -288 Q143 -300 132 -300 L46 -300 Q35 -300 29.5 -291.5 Q24 -283 29 -273 L171 28 Z M303 528 L128 605 Q112 613 122 632 L150 683 Q158 698 176 686 L340 589 Q352 583 346 570 L328 534 Q322 520 303 528 Z " />
<glyph glyph-name="zacute" unicode="&#x17a;" horiz-adv-x="366" d="M30 19 L30 29 L172 291 L172 293 L58 293 Q51 293 45.5 298.5 Q40 304 40 312 L40 381 Q40 389 45 394.5 Q50 400 58 400 L322 400 Q333 400 339 391.5 Q345 383 339 373 L194 109 L194 106 L302 106 Q321 106 321 87 L321 19 Q321 11 315.5 5.5 Q310 0 302 0 L49 0 Q42 0 36 6 Q30 12 30 19 Z M123 528 Q104 521 97 534 L80 570 Q74 581 86 589 L249 686 Q267 698 275 683 L304 632 Q313 612 298 605 L123 528 Z " />
<glyph glyph-name="zdotaccent" unicode="&#x17c;" horiz-adv-x="366" d="M30 19 L30 29 L172 291 L172 293 L58 293 Q51 293 45.5 298.5 Q40 304 40 312 L40 381 Q40 389 45 394.5 Q50 400 58 400 L322 400 Q333 400 339 391.5 Q345 383 339 373 L194 109 L194 106 L302 106 Q321 106 321 87 L321 19 Q321 11 315.5 5.5 Q310 0 302 0 L49 0 Q42 0 36 6 Q30 12 30 19 Z M246 557 Q225 536 195 536 Q165 536 144 557 Q123 578 123 608 Q123 638 144 659 Q165 680 195 680 Q225 680 246 659 Q267 638 267 608 Q267 578 246 557 Z " />
<glyph glyph-name="IJ" unicode="&#x132;" horiz-adv-x="750" d="M91 19 L91 681 Q91 688 96.5 694 Q102 700 110 700 L203 700 Q210 700 216 694 Q222 688 222 681 L222 19 Q222 12 216 6 Q210 0 203 0 L110 0 Q102 0 96.5 6 Q91 12 91 19 Z M316 63 Q308 76 318 88 L370 141 Q385 155 400 140 Q430 108 466 108 Q498 108 522 134.5 Q546 161 546 209 L546 681 Q546 689 551.5 694.5 Q557 700 565 700 L659 700 Q667 700 672.5 694.5 Q678 689 678 681 L678 209 Q678 108 618.5 49 Q559 -10 468 -10 Q375 -10 316 63 Z " />
<glyph glyph-name="ij" unicode="&#x133;" horiz-adv-x="500" d="M119 542 Q91 542 71 562 Q51 582 51 611 Q51 640 71 660 Q91 680 119 680 Q148 680 168.5 660 Q189 640 189 611 Q189 582 168.5 562 Q148 542 119 542 Z M60 19 L60 381 Q60 389 65.5 394.5 Q71 400 79 400 L162 400 Q170 400 175.5 394.5 Q181 389 181 381 L181 19 Q181 12 175.5 6 Q170 0 162 0 L79 0 Q72 0 66 6 Q60 12 60 19 Z M378 542 Q350 542 330 562 Q310 582 310 611 Q310 640 330 660 Q350 680 378 680 Q407 680 427.5 660 Q448 640 448 611 Q448 582 427.5 562 Q407 542 378 542 Z M318 -108 L318 381 Q318 389 323.5 394.5 Q329 400 337 400 L421 400 Q429 400 434.5 394.5 Q440 389 440 381 L440 -108 Q440 -204 388 -257 Q336 -310 254 -310 Q218 -310 184.5 -297.5 Q151 -285 136 -271 Q124 -262 132 -248 L165 -184 Q172 -170 189 -179 Q222 -199 248 -199 Q282 -199 300 -175.5 Q318 -152 318 -108 Z " />
<glyph glyph-name="fi" unicode="&#xfb01;" horiz-adv-x="557" d="M84 19 L84 295 L50 295 Q42 295 36.5 300.5 Q31 306 31 314 L31 381 Q31 400 50 400 L84 400 L84 509 Q84 599 140 654.5 Q196 710 281 710 Q357 710 434 667 Q450 658 440 641 L406 578 Q397 560 379 569 Q323 597 282 597 Q252 597 230.5 574 Q209 551 209 508 L209 400 L478 400 Q486 400 491.5 394.5 Q497 389 497 381 L497 19 Q497 12 491.5 6 Q486 0 478 0 L395 0 Q387 0 381.5 5.5 Q376 11 376 19 L376 295 L209 295 L209 19 Q209 0 171 0 L103 0 Q96 0 90 6 Q84 12 84 19 Z " />
</font>
</svg>
